<?xml version="1.0" encoding="utf-8"?>
<!-- Generator: Adobe Illustrator 20.1.0, SVG Export Plug-In . SVG Version: 6.00 Build 0)  -->
<svg version="1.1" id="Layer_1" xmlns="http://www.w3.org/2000/svg" xmlns:xlink="http://www.w3.org/1999/xlink" x="0px" y="0px"
	 viewBox="0 0 432.4 447.9" style="enable-background:new 0 0 432.4 447.9;" xml:space="preserve">
<style type="text/css">
	.st0{display:none;fill:#FFFFFF;}
	.st1{fill:#C4C4C4;}
</style>
<path class="st0" d="M-272.4,235.4c0-166.7,0-333.4,0-500.2c300.2,0,600.3,0,900.5,0c0,166.7,0,333.4,0,500.2
	C327.9,235.4,27.7,235.4-272.4,235.4z M401.9,22.5c0-0.9,0-1.5,0-2.1c0-70.5-0.1-140.9-0.1-211.4c0-0.1-0.1-0.1-0.1-0.2
	c-0.1-0.1-0.1-0.1-0.2-0.1c-0.4,0.4-0.9,0.7-1.2,1.1c-3.4,4.2-6.8,8.4-10.2,12.5c-6.9,8.3-13.7,16.6-20.6,24.9
	c-3.7,4.5-7.5,9-11.3,13.5c-4.4,5.3-8.8,10.6-13.2,16c-5.4,6.5-10.7,12.9-16.1,19.4c-4.5,5.4-9,10.9-13.5,16.3
	c-4.6,5.6-9.2,11.1-13.8,16.6c-1.7,2-3.2,4.1-5,6.1s-1.9,1.8-3.6,0c-0.1-0.1-0.1-0.2-0.1-0.2c-3.8-4.6-7.6-9.2-11.4-13.8
	c-6.3-7.7-12.6-15.3-18.9-23c-3.6-4.3-7.1-8.7-10.7-13.1c-3.7-4.5-7.4-8.9-11-13.4c-2.7-3.3-5.4-6.6-8.2-9.9
	c-2.1-2.6-4.3-5.1-6.5-7.6c-3.7-4.5-7.4-9.1-11.1-13.6c-4.3-5.3-8.7-10.5-13-15.8c-4.1-5-8.2-9.9-12.3-14.9c-0.4-0.5-1-0.9-1.8-1.6
	c0,1,0,1.6,0,2.1c0,69.9,0,139.8,0,209.7c0,2.4,0.3,2.7,2.8,2.7c6,0,12,0,18,0c2.2,0,4.5,0.1,6.7,0.1c1.6,0,2-0.4,2-2
	c0-0.4,0-0.8,0-1.2c0-42.4,0-84.8,0-127.2c0-0.7,0-1.4,0.1-2.2c0.1-0.4,0.4-0.7,0.7-1.3c25.5,30.9,50.8,61.7,76.4,92.8
	c25.7-31,51.1-61.8,76.6-92.6c1.3,1,0.9,2.2,0.9,3.3c0,42.1,0,84.2,0,126.2c0,0.6,0,1.3,0,1.9c0,1.9,0.4,2.2,2.2,2.2
	c8.2,0,16.3,0,24.5-0.1C399.9,22.8,400.9,22.6,401.9,22.5z M-260.8,22.6c1.2,0.1,2.2,0.2,3.2,0.2c8,0,16,0,24,0.1
	c2.1,0,2.3-0.2,2.3-2.6c0-42.6,0-85.1,0-127.7c0-0.7,0-1.4,0.1-2.2c0-0.4,0.3-0.7,0.5-1.3c25.4,30.9,50.7,61.6,76.2,92.4
	c0.6-0.5,1.1-0.8,1.5-1.3c5.4-6.6,10.7-13.1,16.1-19.7c4.9-5.9,9.8-11.8,14.7-17.7c4.4-5.3,8.8-10.7,13.2-16
	c5.4-6.5,10.8-12.9,16.1-19.4c4.6-5.5,9.1-11,13.6-16.5c0.5-0.7,1-1.3,2.3-1.6c0,1.2,0,2.3,0,3.3c0,42.5,0,84.9,0,127.4
	c0,0.5-0.2,1,0,1.4c0.2,0.5,0.7,1.1,1.2,1.3c0.5,0.2,1.1,0,1.7,0c8,0,16,0,24,0c2.7,0,2.9-0.1,2.9-2.8c0-69.9,0-139.8,0-209.7
	c0-0.5-0.1-1-0.2-2.1c-1.4,1.8-2.5,3.1-3.6,4.4c-3,3.6-6,7.2-9,10.8c-4.1,4.9-8.1,9.8-12.1,14.6c-5.2,6.3-10.5,12.5-15.7,18.7
	c-5.9,7.1-11.7,14.2-17.5,21.3c-4.7,5.7-9.5,11.3-14.2,17c-3.2,3.8-6.3,7.7-9.5,11.5c-4.5,5.4-9.1,10.7-13.6,16.2
	c-3.4,4.1-6.8,8.3-10.2,12.5c-1.3,1.5-1.9,1.5-3.2-0.1c-2.3-2.8-4.6-5.6-6.9-8.4c-1.9-2.3-3.9-4.6-5.9-6.9
	c-3.9-4.7-7.7-9.5-11.6-14.2c-4.3-5.2-8.6-10.4-12.9-15.6c-4.7-5.8-9.4-11.6-14.1-17.3c-4.4-5.3-8.9-10.6-13.2-15.9
	c-7.1-8.6-14.1-17.2-21.2-25.7c-4.4-5.4-8.8-10.8-13.2-16.2c-1.7-2.1-3.5-4.1-5.6-6.6C-260.8-119.9-260.8-48.9-260.8,22.6z
	 M71.2-191.7c-0.5,0.8-1,1.3-1.3,1.9c-2.8,6.1-5.6,12.2-8.4,18.3c-2.4,5.3-4.9,10.7-7.3,16c-2.4,5.3-4.9,10.7-7.3,16
	c-4,8.6-7.9,17.3-11.9,25.9c-4,8.8-8,17.6-12,26.4c-3,6.5-5.9,13.1-8.9,19.7C10.1-58.6,6-49.8,2-40.9C-1-34.3-4-27.6-7-21
	c-2.6,5.6-5.2,11.2-7.7,16.8c-4,8.8-8,17.6-12,26.3c0.4,1.1,1.3,0.8,2.1,0.8c8.9,0,17.8-0.1,26.6,0c2.8,0,2.7,0.2,3.9-2.5
	C9.1,13.4,12,6.3,15-0.8c2.4-5.6,4.7-11.2,7-16.9c0.5-1.2,1.3-1.8,2.5-1.8c0.6,0,1.1,0,1.7,0c29.2,0,58.4,0,87.6,0c0.5,0,1,0,1.4,0
	c1.5-0.1,2.4,0.5,2.9,1.9c0.3,1.1,0.9,2.2,1.3,3.3c2.1,5.2,4.4,10.2,6.5,15.3c2.7,6.4,5.4,12.9,8.1,19.3c0.7,1.7,1.7,2.6,3.8,2.5
	c7.1-0.1,14.2-0.1,21.4-0.1c2.4,0,4.8,0.1,7.2,0c1.4,0,1.8-0.6,1.3-1.7c-2.2-4.7-4.5-9.4-6.6-14.2c-3.6-7.9-7-15.8-10.6-23.7
	c-2.6-5.7-5.2-11.4-7.8-17.1c-2.9-6.3-5.7-12.5-8.6-18.8c-4.1-9.2-8.2-18.3-12.4-27.5c-2.4-5.4-4.9-10.8-7.4-16.2
	c-2.5-5.5-5-10.9-7.5-16.4c-2.8-6.1-5.4-12.3-8.2-18.4c-3.2-7.1-6.5-14.1-9.7-21.1c-2.3-5-4.5-10-6.8-15c-2.2-4.8-4.3-9.7-6.5-14.6
	C74.3-185,72.8-188.2,71.2-191.7z M520.5-191.8c-0.4,0.7-0.5,1-0.7,1.3c-2.6,5.6-5.3,11.2-7.8,16.8c-3.5,7.7-7,15.4-10.5,23.2
	c-4.5,9.9-9,19.7-13.6,29.6c-3.9,8.6-7.9,17.1-11.8,25.6c-3,6.6-6,13.3-9.1,19.9c-3.1,6.8-6.1,13.5-9.2,20.3
	c-2.6,5.7-5.2,11.4-7.8,17.1c-2.4,5.3-4.8,10.5-7.2,15.8c-3,6.5-5.9,12.9-8.9,19.4c-3.6,7.8-7.1,15.6-10.7,23.4
	c-0.8,1.7-0.3,2.3,1.6,2.3c4.5,0,9,0,13.4,0c4.7,0,9.4,0,14.2,0.1c1.4,0,2.1-0.4,2.7-1.8c3.2-7.6,6.5-15.1,9.8-22.7
	c2.3-5.2,4.6-10.5,6.7-15.8c0.7-1.7,1.7-2.2,3.5-2.2c29.6,0,59.2,0,88.8,0c2.9,0,3,0.1,4.1,2.7c2.1,5.1,4.2,10.2,6.4,15.3
	c3.2,7.4,6.5,14.8,9.5,22.3c0.7,1.6,1.5,2,3,2c9.7,0,19.4,0,29,0c0.6,0,1.2-0.2,2-0.3c-0.6-1.1-1.2-1.9-1.6-2.7
	c-2.8-6.1-5.5-12.3-8.3-18.4c-3.7-8.4-7.4-16.8-11.2-25.2c-3.3-7.2-6.6-14.4-9.9-21.6c-4.1-9.1-8.2-18.2-12.3-27.3
	c-2.8-6.3-5.7-12.5-8.6-18.7c-3.1-6.8-6.1-13.6-9.1-20.4c-3.2-7.1-6.5-14.1-9.7-21.2c-2.8-6.1-5.5-12.1-8.2-18.2
	c-2.5-5.6-5-11.3-7.5-16.9c-2.5-5.6-5.1-11.3-7.6-16.9C522.7-187.2,521.7-189.3,520.5-191.8z M447,119.9c2.9-1,5.3-1.7,7.6-2.6
	c7.7-3.1,11.5-9.4,13.3-17.1c0.6-2.7,0.6-5.6,0.6-8.3c0-4.2-1-8.2-3.1-11.9c-3.1-5.3-8-8.5-13.6-10.6c-5.7-2-11.7-2.5-17.6-2.7
	c-10.2-0.4-20.5-0.1-30.7-0.1c-0.6,0-1.3,0-1.9,0.1c-0.9,0.2-1.4,0.7-1.4,1.7c0,0.5,0,1,0,1.4c0,29.8,0,59.7,0,89.5
	c0,0.6,0.1,1.2,0.1,1.8c2.5,0.5,14.6,0.4,16.5-0.1c0.1-13.1-0.1-26.2,0.1-39.6c1.1-0.1,1.8-0.2,2.6-0.2c2.2,0,4.5,0.1,6.7-0.1
	c2.3-0.2,3.6,0.7,4.7,2.7c2.8,5.5,5.9,10.8,8.9,16.3c2.6,4.7,5.1,9.5,7.7,14.2c1.3,2.3,2.6,4.7,3.8,6.9c4.7,0.5,18,0.3,19.7-0.4
	c-0.1-0.4-0.2-0.8-0.4-1.1c-3.8-6.2-7.6-12.4-11.3-18.7c-3.9-6.4-7.7-12.9-11.6-19.3C447.4,121.2,447.2,120.5,447,119.9z M34,104.4
	c-0.8,0.1-1.2,0.2-1.6,0.2c-13.6,0-27.2,0-40.8,0c-1.8,0-1.9-0.2-2-1.9c0-0.7,0-1.4,0-2.2c0-10.4,0-20.8,0-31.2
	c0-2.3-0.3-2.6-2.6-2.7c-2.2,0-4.5,0-6.7,0c-2.3,0-4.6,0-6.8,0c-0.7,2-0.8,92.2-0.2,94.5c2.6,0.5,14.5,0.4,16.3-0.2
	c0-0.7,0-1.5,0-2.3c0-12.1,0-24.2,0-36.2c0-2.9,0.2-3.1,3.2-3.1c12.7,0,25.4,0,38.2,0c0.9,0,1.9,0.1,3.1,0.2c0,7.1,0,13.9,0,20.8
	s0,13.9,0,20.7c2.6,0.6,15.1,0.5,17-0.1c0-0.9,0-1.8,0-2.8c0-29.3,0-58.5,0-87.8c0-0.7,0-1.4,0-2.2c-0.1-0.5-0.3-1-0.5-1.6
	c-4.6,0-9.1,0-13.6,0c-2.8,0-3,0.2-3,3.1c0,10.6,0,21.1,0,31.7C34,102.3,34,103.3,34,104.4z M375.5,82.2c0.8-2.5,0.7-13.6-0.1-15.5
	c-0.6,0-1.2,0-1.8,0c-18.9,0-37.8,0-56.6,0c-0.4,0-0.8,0-1.2,0c-1.7,0.1-2.1,0.4-2.2,2.1c0,0.5,0,1,0,1.4c0,29.6,0,59.2,0,88.8
	c0,0.6,0,1.1,0,1.7c0,1,0.5,1.7,1.6,1.6c0.5,0,1,0,1.4,0c19.4,0,38.9,0,58.3,0c3.8,0,3.9,0.3,3.7-3.8c-0.1-2.7,0-5.4,0-8.2
	c0-0.9,0-1.7,0-2.9c-1.2-0.1-2.2-0.2-3.3-0.2c-14.2,0-28.3,0-42.5,0c-2.7,0-2.9-0.2-2.9-2.9c0-6.6,0-13.1,0-19.7
	c0-4.1,0-4.1,4.2-4.1c11.9,0,23.8,0,35.8,0c1.2,0,2.3-0.1,3.7-0.2c0-1.4,0.1-2.6,0-3.8c-0.3-3.4,0.8-7-0.6-10.4
	c-3.4-1.1-7-0.5-10.4-0.5c-9.9-0.1-19.8,0-29.8,0c-2.8,0-2.8-0.1-2.8-2.8c0-5.9,0-11.8,0-17.8c0-0.8,0.1-1.7,0.2-2.8
	C345.4,82.2,360.5,82.2,375.5,82.2z M93,82.3c1.2-0.1,2.3-0.2,3.4-0.2c13.3,0,26.6,0,39.8,0c2.5,0,2.6-0.1,2.6-2.5
	c0-3.6,0-7.2,0-10.8c0-1.8-0.3-2-2.1-2.1c-0.5,0-1,0-1.4,0c-18.5,0-36.9,0-55.4,0c-0.4,0-0.8,0-1.2,0c-1.5,0.1-1.8,0.3-1.9,1.8
	c0,0.6,0,1.3,0,1.9c0,13.3,0,26.6,0,39.8c0,16.3,0,32.6,0,48.9c0,1,0.2,2,0.3,3.1c0.9,0,1.5,0,2.2,0c19.8,0,39.5,0,59.3,0
	c0.4,0,0.8,0,1.2,0c1.6-0.1,1.9-0.3,2-2c0-2.6,0-5.3,0-7.9c0-1.6,0-3.1,0-4.9c-1.4-0.1-2.5-0.2-3.6-0.2c-14.1,0-28.1,0-42.2,0
	c-3,0-3,0-3-3.1c0-6.6,0-13.1,0-19.7c0-3.9,0-3.9,3.9-3.9c12.1,0,24.2,0,36.2,0c1,0,2-0.1,3.3-0.2c0-4.6,0-9,0-13.4
	c0-0.9-0.6-1.4-1.6-1.4c-0.6,0-1.1,0-1.7,0c-12.2,0-24.5,0-36.7,0c-1,0-2-0.1-3.2-0.2C93,97.6,93,90.1,93,82.3z M-115.2,150.9
	c2,2.9,4.6,4.8,7.2,6.6c5.5,3.7,11.7,5.2,18.2,5.9c1,0.1,1.9,0.2,2.9,0.3c1.4,0.1,2.9,0.4,4.3,0.2c4.2-0.6,8.5-1,12.6-2.3
	c6.7-2.2,12.2-6,16.1-11.9c4.6-7.1,4.5-14.9,3.7-22.9c-0.1-1.2-0.5-2.4-1-3.4c-2.7-5.8-7-10.1-12.8-13c-4.4-2.2-9.2-3.4-13.9-4.9
	c-4-1.3-7.9-2.9-11.5-5.1c-4-2.4-6-6.4-4.8-11.2c0.7-2.8,2.1-4.9,4.3-6.6c1.9-1.4,4-2.1,6.3-2.6c4.4-1,8.5-0.5,12.7,0.8
	c3,1,5.8,2.5,7.9,5c0.7,0.8,1.3,0.8,2,0c0.3-0.3,0.6-0.5,0.9-0.8c3-3.4,6.1-6.9,9.1-10.3c0.5-0.6,0.8-1.3,1.2-1.9
	c-0.5-0.5-0.8-0.7-1.1-1c-3.8-3-7.9-5.5-12.7-6.6c-4-0.9-8-1.9-12.2-1.9c-4.6,0-9,0.8-13.4,1.9c-6.1,1.5-11.3,4.4-15.6,9
	c-4.5,4.7-6.7,10.3-6.9,16.8c-0.1,2.2,0.1,4.4,0.7,6.6c0.5,1.9,0.8,3.9,1.7,5.7c2.6,5.6,6.9,9.7,12.5,12.1c5.3,2.2,10.8,4.1,16.2,6
	c2.9,1,5.7,2.4,8.3,4c6.9,4.4,7.1,12.8,1.8,18.2c-2.7,2.7-6,4.1-9.5,4.7c-3.5,0.6-7.1,0.7-10.6-0.6c-4.3-1.5-8.1-3.7-10.9-7.3
	c-1-1.3-1.3-1.3-2.4-0.2C-107.9,143.7-111.5,147.2-115.2,150.9z M267.1,161.3c0-1.1,0-2.1,0-3.2c0-24.1,0-48.3,0-72.4
	c0-0.7,0-1.4,0-2.2c0.1-1.4,0.7-1.9,2.1-2.1c0.6,0,1.1,0,1.7,0c7.4,0,14.7,0,22.1,0c0.9,0,1.8-0.1,2.7-0.2
	c0.5-3.1,0.4-12.7-0.2-14.8c-0.9,0-1.8,0-2.7,0c-22.7,0-45.4,0-68.1,0c-0.5,0-1,0-1.4,0c-1.4,0.1-1.9,0.4-1.9,1.9
	c-0.1,3.8,0,7.7,0,11.5c0,1,0.5,1.5,1.5,1.5c0.6,0,1.3,0,1.9,0c7.5,0,15,0,22.5,0c2.8,0,3.1,0.3,3.1,3.2c0,0.2,0,0.5,0,0.7
	c0,24.1,0,48.3,0,72.4c0,1.1,0,2.2,0,3.3C252.1,161.6,262.8,161.7,267.1,161.3z M224.6,147.1c-1.2-0.1-2.3-0.3-3.3-0.3
	c-11.8,0-23.7,0-35.5,0c-0.8,0-1.6,0-2.4-0.1c-0.9-0.1-1.5-0.6-1.5-1.6c0-0.6,0-1.1,0-1.7c0-12.7,0-25.4,0-38.1
	c0-11.8,0-23.7,0-35.5c0-1.1,0.3-2.2-0.7-3.2c-4.5,0-9.1,0-13.6,0c-1.2,0-1.8,0.6-1.8,1.7c0,0.4,0,0.8,0,1.2c0,29.8,0,59.6,0,89.5
	c0,0.8,0.1,1.5,0.2,2.6c1.1,0,2,0,2.8,0c17.6,0,35.2,0,52.8,0c1.1,0,2.1-0.2,3.1-0.3C224.6,156.4,224.6,151.9,224.6,147.1z"/>
<path class="st0" d="M109-40.8c-25.9,0-51.4,0-76.9,0c-0.9-1.9,0.5-3.1,1-4.4c2.5-6.1,5.1-12.1,7.7-18.2c3.6-8.3,7.1-16.6,10.7-24.9
	c2.5-5.8,4.8-11.7,7.3-17.5c2.2-5.2,4.6-10.3,6.8-15.5c1.1-2.6,2.2-5.3,3.2-7.9c0.3-0.7,0.5-1.3,1.7-1.2c0.6,1.2,1.2,2.4,1.8,3.7
	c3.1,7.1,6.2,14.2,9.3,21.3c3.7,8.5,7.4,17,11,25.5c2.8,6.6,5.6,13.3,8.5,19.9c2.4,5.6,4.9,11.2,7.3,16.7
	C108.7-42.4,108.8-41.7,109-40.8z"/>
<path class="st0" d="M558.1-40.7c-26,0-51.6,0-77.2,0c-0.7-1.9,0.6-3.3,1.2-4.8c1.8-4.5,3.8-8.9,5.7-13.3c2.2-5.2,4.5-10.3,6.8-15.5
	c1.7-3.9,3.3-7.9,5-11.8c2.4-5.5,4.8-11,7.2-16.6c1.7-4,3.3-8,5-12c2-4.8,4.1-9.6,6.2-14.4c0.2-0.5,0.7-0.9,1.4-1.7
	c1,2,1.8,3.6,2.5,5.2c3,6.8,6,13.6,8.9,20.5c2.8,6.5,5.4,13,8.2,19.5c2.4,5.6,4.9,11.1,7.4,16.7c2.3,5.2,4.5,10.5,6.8,15.7
	c1.5,3.3,3,6.7,4.4,10C557.8-42.6,557.9-41.8,558.1-40.7z"/>
<path class="st0" d="M417,94.8c0-3.5,0-7,0-10.6c0-2.3,0.6-2.8,2.8-2.8c4.8,0,9.6-0.2,14.4,0.1c3.3,0.2,6.8,0.6,9.8,1.9
	c3.9,1.6,7,4.5,7.1,9.3c0.1,2.4,0.2,4.7-0.9,7c-0.9,2-2.3,3.3-4,4.5c-2.9,1.9-6.1,2.7-9.5,2.9c-5.4,0.3-10.8,1.3-16.2,0.9
	c-0.4,0-0.8,0-1.2,0c-1.8-0.2-2.3-0.6-2.3-2.4C417,102,417,98.4,417,94.8L417,94.8z"/>
<g>
	<path class="st0" d="M-274.3,134.8c0-5.5,0-9.5,0-14.7c2.9,1.1,6.3,1.5,6.8,2.9c1,2.7,1,6.3,0,9
		C-268,133.4-271.5,133.7-274.3,134.8z"/>
	<path class="st0" d="M-635,134.9c0-5.6,0-9.5,0-14.7c2.9,1.1,6.5,1.4,7.2,3c1.1,2.4,1.1,6.1,0,8.6
		C-628.5,133.3-632,133.7-635,134.9z"/>
	<path class="st0" d="M141.2,153.4c0-10.5,0-21.1,0-31.6c5.9-1.5,8.3,0,8.6,5.8c0.2,6.5,0.2,13,0,19.4
		C149.6,153.1,147.8,154.4,141.2,153.4z"/>
	<path class="st0" d="M-589.2,137.5c0-3.8-0.5-7.7,0.2-11.4c0.3-2,2.6-3.6,4-5.3c1.5,1.6,4.2,3.2,4.3,4.9c0.5,7.9,0.5,15.9,0,23.8
		c-0.1,1.7-2.9,3.3-4.4,4.9c-1.3-1.6-3.6-3.1-3.9-4.9C-589.5,145.5-589.1,141.5-589.2,137.5C-589.1,137.5-589.2,137.5-589.2,137.5z"
		/>
	<path class="st0" d="M-397.4,145.7c-3,0-5.2,0-7.8,0c1.2-5.5,2.3-10.7,3.4-16c0.3,0,0.7-0.1,1-0.1
		C-399.8,134.8-398.6,140-397.4,145.7z"/>
	<path class="st0" d="M221.3,145.8c-2.8,0-4.9,0-7.7,0c1.1-5.6,2.2-10.9,3.3-16.2c0.3,0,0.6,0,1,0C219,134.8,220.1,140,221.3,145.8z
		"/>
	<path class="st0" d="M-1039.4-4.8c0,9-0.1,18,0.1,27c0.1,3.5-1.1,4.7-4.6,4.6c-14.1-0.4-11.7,1.9-11.8-11.3
		c-0.2-15.7,0.1-31.3-0.1-47c-0.1-4.3,1.4-5.4,5.4-5.3c11,0.2,11,0,11,11.1c0,3.5,0,7,0,10.5C-1039.5-11.8-1039.5-8.3-1039.4-4.8
		C-1039.5-4.8-1039.5-4.8-1039.4-4.8z"/>
</g>
<path class="st1" d="M26.3,176.9c1.6-1.6,3.1-3.1,4.7-4.6c5.9-5.9,11.8-11.8,17.7-17.7c0.7-0.7,1.5-1,2.5-1c35.7,0,71.4,0,107,0
	c1,0,1.8,0.3,2.5,1c7,7.1,14,14.2,21,21.4c0.3,0.3,0.6,0.6,0.9,1c-1.6,1.7-3.2,3.3-4.8,5c-5.7,5.8-11.4,11.6-17.1,17.3
	c-0.6,0.6-1.6,1-2.5,1c-35.7,0.1-71.4,0.1-107,0c-0.8,0-1.9-0.4-2.5-1c-7.4-7.2-14.6-14.5-21.9-21.8
	C26.7,177.4,26.6,177.2,26.3,176.9z"/>
<path class="st1" d="M252.7,14.8c3.5-3.6,6.9-7.1,10.3-10.6c0.1-0.2,0.4-0.3,0.5-0.4c2.2-3.3,5.4-3.8,9.2-3.8
	c40,0.1,80.1,0.1,120.1,0c1.3,0,2.1,0.4,3,1.3c4.4,4.3,8.8,8.5,13.4,12.9c-2.7,2.8-4.9,5.1-7.2,7.4c-7.8,8-15.6,16.1-23.4,24.2
	c-1,1.1-2.1,1.5-3.6,1.5c-29.5,0-59.1,0-88.6,0c-1.3,0-2.3-0.4-3.2-1.3c-10-10.2-20.1-20.4-30.1-30.6
	C253,15.2,252.8,14.9,252.7,14.8z"/>
<path class="st1" d="M26.4,15c4.7-4.8,9.3-9.4,14-14.1c0.3-0.3,0.8-0.4,1.3-0.5c0.2-0.1,0.5,0,0.8,0c21.3-0.1,42.5-0.1,63.8-0.2
	c20.2,0,40.5,0,60.7-0.1c1.1,0,1.9,0.3,2.7,1.1c4.3,4.5,8.6,8.9,13.1,13.4c-1.1,1.1-2.1,2.3-3.2,3.4c-9.1,9.4-18.3,18.8-27.4,28.3
	c-0.8,0.8-1.6,1.1-2.7,1.1c-29.8,0-59.5,0-89.3,0.1c-1.2,0-2.1-0.3-2.9-1.2C47.2,36,37.1,25.8,27,15.6C26.8,15.4,26.6,15.2,26.4,15z
	"/>
<path class="st1" d="M182.7,339.4c-4.6,4.7-9,9.2-13.5,13.7c-0.4,0.4-1.2,0.7-1.8,0.7c-4.7,0.1-9.4,0-14.1,0c-36.8,0-73.7,0-110.5,0
	c-1.3,0-2.2-0.3-3.1-1.2c-3.9-4-7.9-7.9-12-11.8c-0.5-0.4-1.1-0.7-1.7-1.1c4-4.1,7.5-7.7,11.1-11.3c6.7-6.9,13.5-13.7,20.2-20.6
	c0.8-0.8,1.6-1.1,2.7-1.1c29.9,0,59.8,0,89.7,0c1,0,1.8,0.3,2.5,1c9.8,10.2,19.7,20.3,29.5,30.5C182,338.6,182.3,338.9,182.7,339.4z
	"/>
<path class="st1" d="M252.8,339c4.4-4.5,9.1-9.3,13.7-14c5.7-5.7,11.3-11.5,17-17.2c0.6-0.6,1.6-1.1,2.5-1.1c30-0.1,59.9,0,89.9,0
	c0.7,0,1.6,0.2,2,0.6c10.3,10.6,20.6,21.2,31,31.9c-1.6,1.7-3.2,3.3-4.8,4.9c-2.9,3-5.8,6-8.8,8.9c-0.5,0.5-1.4,0.7-2.1,0.7
	c-14.5,0-29.1,0-43.6,0c-26.9,0-53.8,0-80.8,0c-1.2,0-2.1-0.3-2.9-1.2C261.6,348.1,257.3,343.6,252.8,339z"/>
<path class="st1" d="M418,185.7c2.9,3,5.6,5.9,8.5,8.8c1.7,1.7,3.5,3.3,5.1,5.1c0.5,0.5,0.9,1.4,0.9,2.1c0,37.5,0,75,0,112.5
	c0,0.6-0.2,1.4-0.6,1.9c-4.8,4.7-9.6,9.3-14.1,13.6c-2.7-2.5-5.7-5.2-8.6-8.1c-7.4-7.5-14.7-15.2-22-22.8c-0.6-0.6-1-1.6-1-2.5
	c-0.1-25.5-0.1-51.1,0-76.6c0-0.8,0.3-1.7,0.8-2.3c10.1-10.3,20.2-20.6,30.3-30.9C417.2,186.4,417.4,186.2,418,185.7z"/>
<path class="st1" d="M417.3,24.1c4.9,4.7,9.7,9.3,14.5,14c0.4,0.4,0.5,1.3,0.5,1.9c0,4.5,0,9,0,13.5c0,32.8,0,65.6,0,98.4
	c0,0.8-0.2,1.9-0.8,2.4c-4.3,4.4-8.7,8.7-13.1,13c-0.3,0.3-0.6,0.5-0.8,0.7c-1.8-1.8-3.7-3.4-5.4-5.2c-8.4-8.6-16.8-17.1-25.3-25.7
	c-0.8-0.8-1.1-1.5-1.1-2.7c0-25.5,0-51.1,0.1-76.6c0-0.8,0.3-1.7,0.8-2.3c9.9-10.4,20-20.7,29.9-31c0.3-0.3,0.6-0.6,0.9-0.8
	C417.6,23.8,417.5,23.9,417.3,24.1z"/>
<path class="st1" d="M192.4,167.9c-6.7-6.4-12.9-12.3-19-18.2c-4.2-4.1-8.4-8.4-12.5-12.7c-0.6-0.6-1.1-1.6-1.1-2.5
	c-0.1-25.6-0.1-51.3,0-76.9c0-0.8,0.3-1.7,0.8-2.3c10.2-10.6,20.4-21.1,31.1-32.1c0.5,0.8,1,1.6,1.6,2.2c3.9,4.1,7.9,8.1,11.8,12.2
	c0.5,0.6,0.9,1.6,0.9,2.3c0,37.4,0,74.8,0,112.1c0,0.6-0.1,1.5-0.5,1.9C201.2,158.8,196.6,163.5,192.4,167.9z"/>
<path class="st1" d="M17.5,330.4c-3-3.1-6-6.3-9-9.4c-1.4-1.5-2.9-3-4.3-4.5c-0.6-0.7-1-1.7-1-2.5c0-37.3,0-74.7-0.1-112
	c0-1.1,0.4-1.9,1.1-2.6c4.1-4.2,8.2-8.4,12.4-12.6c0.3-0.3,0.5-0.5,0.9-0.8c0.3,0.3,0.6,0.5,0.9,0.8c10.1,10.1,20.2,20.3,30.3,30.4
	c0.5,0.5,0.9,1.5,0.9,2.2c0,25.7,0,51.4,0,77.1c0,0.7-0.4,1.7-0.9,2.2c-10.2,10.4-20.4,20.8-30.6,31.2
	C17.9,330.1,17.8,330.2,17.5,330.4z"/>
<path class="st1" d="M243.7,23.7c2.8,2.8,5.6,5.5,8.3,8.3c7.5,7.6,15,15.3,22.6,22.9c0.9,0.9,1.3,1.8,1.3,3.1c0,25.4,0,50.7,0,76.1
	c0,1.3-0.4,2.2-1.3,3.1c-9.9,9.8-19.7,19.7-29.5,29.6c-0.4,0.4-0.7,0.9-1,1.4c-2.6-2.5-4.9-4.8-7.2-7c-2.2-2.2-4.4-4.4-6.5-6.7
	c-0.5-0.5-0.9-1.4-0.9-2c0-37.6,0-75.2,0-112.8c0-0.6,0.2-1.3,0.6-1.7c4.3-4.6,8.7-9.2,13.1-13.8C243.3,23.9,243.5,23.8,243.7,23.7z
	"/>
<path class="st1" d="M243.6,330.4c-4.6-4.9-9.2-9.6-13.7-14.4c-0.4-0.5-0.5-1.4-0.5-2c0-27.7,0-55.4,0-83.1c0-9.6,0-19.2,0-28.8
	c0-1.1,0.3-1.9,1.1-2.7c4-4,7.9-8.1,11.9-12.1c0.4-0.4,0.8-0.8,1.3-1.3c4.8,4.8,9.5,9.5,14.2,14.2c5.6,5.6,11.2,11.3,16.8,16.9
	c0.7,0.7,1.1,1.5,1.1,2.5c0,25.6,0,51.2-0.1,76.7c0,0.8-0.3,1.7-0.8,2.3c-10.2,10.4-20.4,20.8-30.7,31.2
	C244.2,329.9,244,330.1,243.6,330.4z"/>
<path class="st1" d="M64.9,441.6c0,1.5,0,3,0,4.7c-3.4,0.1-6.6,0.3-9.9,0.4c-3.7,0.2-7.5,0.3-11.2,0.5c-0.2,0-0.5,0.1-0.6,0
	c-3.5-1.8-7.1,0.1-10.6-0.1c-0.7,0-1.4,0.1-2.1,0.1c-3.1,0-3.1,0-4.4-2.9c1.7-1.2,3.5-2.4,5.3-3.6c1.8-1.2,2.8-2.5,2.1-4.9
	c-0.4-1.4-0.7-2.9,0.1-4.6c0.6-1.2-0.1-3-0.3-4.5c-0.1-1.2-0.1-2.2,0.3-3.4c0.4-1.4,0.1-3.2-0.2-4.7c-0.6-2.5-0.1-4.4,2-5.8
	c0.2-0.1,0.2-0.3,0.4-0.6c-0.8-1.2-1.7-2.3-2.6-3.5c-0.2-0.3-0.6-0.4-0.9-0.5c-0.5-0.1-1.1-0.1-1.6-0.3c-4.7-2-7.1,1.5-9.7,4.2
	c-0.6,0.6-0.7,1.6-1.1,2.5c-0.6,1.5-1.4,2.9-1.7,4.4c-0.3,1.2,0,2.5,0.1,3.8c0.5,5.2,1.1,10.4,1.6,15.6c0.1,0.5,0.4,0.9,0.7,1.3
	c0.2,0.2,0.5,0.4,0.8,0.6c2.6,1.3,2.9,3.4,2.3,6.1c-3,0.6-5.9,1.6-9,1.8c-2.5,0.2-5.1-0.5-7.6-0.9c-2.3-0.3-4.5-0.7-7-1
	c0.5-1.5,0.9-3.1,1.5-4.5c0.2-0.4,1-0.6,1.6-0.7c2.3-0.3,4.6-0.4,6.9-0.6c1.5-0.2,2.8-1.5,2.9-3c0.3-5,0.6-9.9,0.9-14.9
	c0-0.6,0.3-1.2,0.4-1.8c0.1-0.3,0.2-0.8,0-1c-2-2.5-0.9-5.2-0.7-7.8c0.2-1.7,0.8-3.6-1-4.8c-0.7-0.5-1.7-1-2.6-0.8
	c-2.6,0.4-4.2-1.3-5.8-2.8c-0.4-0.4-0.1-1.7-0.1-2.6c0-0.1,0.2-0.2,0.4-0.3c3-2.6,3-2.6,6.8-1.2c1.4,0.5,2.8,1,4.2,1.5
	c0.7,0.3,1.3,0.7,1.8,1.2c2.2,2.1,4.3,2.1,5.7-0.6c1.4-2.6,3.8-2.8,6.1-3.3c0.4-0.1,0.9,0.3,1.2,0.5c1.9,1.5,3.7,3,5.5,4.6
	c0.7,0.6,1.4,0.7,2.3,0.6c2.4-0.2,4.4-0.9,5.8-3.1c0.3-0.4,1-0.6,1.5-0.7c1.7-0.3,3.6,0.6,5.2-0.8c0.1-0.1,0.7,0.2,1,0.3
	c5.1,2.3,5,2.4,6.4,7.8c0.9,3.4,0.2,6.6-0.5,9.8c-1.1,5.4-0.5,10.7,0.3,16c0.3,2,0.6,4,0.8,6c0.1,0.9,0.4,1.2,1.2,1.4
	C61.5,441,63.1,441.3,64.9,441.6z M39.3,440.4c1.3,0.1,2.6-0.1,3.8,0.3c2,0.7,3.8,0.3,5.7-0.5c2.1-0.9,2.1-0.9,1.7-3.1
	c-0.1-0.6-0.1-1.2-0.3-1.7c-0.4-1.2-0.3-2.2,0.6-3.1c1.1-1.2,1.4-2.6,0.9-4.1c-0.2-0.6-0.2-1.3-0.3-1.9c-0.3-2-1.1-4,1.2-5.4
	c0-2.9,0.5-5.9-0.2-8.6c-0.5-1.8-2.7-3.2-4.4-4.6c-1.9-1.6-3.2-1.1-4.7,0.8c-2.7,3.4-3.7,7.5-5,11.5c-0.3,1-0.4,1.8,0.4,2.6
	c1,1.1,1.1,2.3,0.7,3.8c-1.1,4.1-2.2,8.1,0.1,12.2C39.7,438.9,39.4,439.7,39.3,440.4z"/>
<path class="st1" d="M161.4,440.6c-1.2,2.6-2.2,4.7-3.2,6.9c-0.4,0.8-1.1,0.8-1.9,0.5c-1.4-0.7-2.7-0.8-4.1,0
	c-0.2,0.1-0.8,0.2-0.9,0.1c-1-1.3-2.1-0.3-3.2-0.2c-1.1,0.1-2.3,0.4-3.3,0.1c-3-0.9-5.9-0.5-8.8,0.1c-1.4,0.3-2.3,0-3.2-1.1
	c-0.3-0.4-0.8-0.6-1.2-0.9c0.7-3.5,2.5-5.2,6-6c1.3-0.3,2.8-0.5,3.9-1.2c1.5-0.9,1.9-2.5,2.2-4.2c1.2-6.3,0.2-12.5-0.2-18.8
	c-0.1-1.4-0.2-2.8-0.1-4.2c0-1.1-0.3-1.7-1.2-2.2c-2-1.2-4-2.3-5.8-3.7c-1.8-1.3-2.9-3-2.8-5.4c0.1-1.6,2.2-3.2,3.8-2.8
	c1.4,0.4,2.8,0.7,4.1,1.2c1.2,0.5,2.2,0.3,3.2-0.5c0.8-0.7,1.7-1.2,2.6-1.8c0.4,0.4,0.8,0.7,1.2,1c2.2,1.8,4.3,3.6,6.5,5.3
	c0.3,0.2,1.1,0.2,1.5,0c3-1.5,5.9-3.1,9-4.5c1.1-0.5,2.5-0.7,3.8-0.8c1.2-0.1,2.3,0.3,3.5,0.3c1.9,0,3.3,0.7,4.5,2.3
	c0.7,0.9,1.5,1.9,2.4,2.6c2.2,1.7,2.6,4.1,3,6.7c1.2,8.5,0.2,17-0.3,25.6c-0.1,1.5-0.2,3-0.1,4.5c0,0.6,0.5,1.3,1,1.6
	c1.7,1.1,3.5,2.1,5.4,3.3c-1,0.9-1.8,1.7-2.7,2.5c-0.3,0.2-0.7,0.4-1,0.4c-5.2-1.5-10.4,0.1-15.6,0.1c-3.4,0.1-4.5-1.2-4.1-4.8
	c3.3-0.6,6.7-1.3,10.1-1.9c1.7-0.3,2-0.8,1.8-2.6c-0.3-2.4-1-5-0.6-7.3c1.2-6.4-0.9-12.5-1-18.8c0-1.1-0.5-1.8-1.5-2.2
	c-1.6-0.8-3.1-1.7-4.6-2.6c-0.9-0.5-1.5-0.5-2.5-0.1c-3.5,1.4-6.1,3.7-8.1,6.8c-2.6,3.9-5.6,7.5-7.1,12.1c-0.6,1.9-0.3,3.6-0.1,5.3
	c0.2,1.9,0.4,3.8-0.3,5.7c-0.6,1.7,1.8,4.6,3.6,4.5C156.9,441,158.9,440.8,161.4,440.6z"/>
<path class="st1" d="M221.8,401.2c1.8-0.8,3.6-1.7,5.3-2.4c0.4-0.2,1-0.1,1.5,0c1,0.3,2.1,0.6,3,1.1c1.3,0.6,2.5,0.6,3.8,0
	c2.6-1.3,5.4,1.5,5.3,4.1c0,1-0.2,1.9-0.4,2.8c-0.7,3.7-0.8,7.4,0.2,11.1c0.2,0.8,0.5,1.7-0.6,2.4c-0.3,0.2-0.3,1-0.2,1.5
	c0.6,4.3,1.2,8.6,1.8,12.8c0.1,0.6,0.4,1.1,0.6,1.7c0.1-0.2,0.2-0.4,0.4-0.5c1,0.3,2.1,0.4,3,0.8c2.2,1.1,4.3,2.3,6.5,3.5
	c1.3,0.7,1.7,1.5,1.5,3.1c-0.3,2.5-1.4,3.4-3.9,4.2c-4.4,1.5-8.4,0.3-12.5-0.6c-0.2,0-0.4-0.2-0.6-0.2c-3,0.2-5.6-1.1-8-2.7
	c-0.4-0.3-1.2-0.2-1.8,0c-3.6,1.3-7.2,2.7-10.8,4c-0.7,0.2-1.6,0.2-2.3,0c-1.8-0.5-3.6-1.2-5.4-1.9c-0.9-0.4-1.7-1.1-2.5-1.5
	c-0.6-0.3-1.3-0.5-2-0.5c-1.3-1.1-1.9-2.6-1.8-4.5c0.3-3.6,0.6-7.2,0.7-10.9c0.1-1.9-0.3-3.8-0.3-5.7c0-3.3,0.5-6.6,0.3-9.9
	c-0.1-2.2-0.8-4.3-1.5-6.4c-0.1-0.4-1.2-0.7-1.8-0.7c-0.9,0-1.9,0.3-2.8,0.4c-1.1,0.2-2-0.1-2.6-1.1c-0.2-0.4-0.9-0.6-1.2-1
	c-0.7-0.7-1.4-1.5-2.1-2.3c-0.2-0.2-0.1-0.8,0.1-1c1.2-0.9,2.2-2,3.9-2.2c4.2-0.6,8.2,0.3,12.1,1.3c2,0.5,3,1.9,2.6,4
	c-0.6,3.3-1.2,6.6-1.6,9.9c-0.1,0.6,0.3,1.3,0.5,2c0.1,0.4,0.4,0.8,0.3,1.2c-1.8,5.1,0.1,10.1,0.4,15.2c0.2,3.3,1.6,4.7,4.8,5.5
	c2.8,0.7,5.3-0.2,7.9-0.4c0.3,0,0.7-0.5,0.9-0.8c1.1-1.3,2.2-2.6,3.4-3.8c1.4-1.4,2.4-2.8,2.1-4.9c-0.1-0.4,0.1-0.9,0.4-1.1
	c3.3-3.1,3.9-7.3,4.4-11.5c0.2-1.5,0.4-3,0.7-4.4c0.2-0.8,0.6-1.5,1-2.2c0.6-1,0.8-1.8-0.4-2.6c-1.5-1-3-1.8-4.9-1.6
	c-1.6,0.2-3.2-0.1-4.8,0.1c-1.3,0.1-2.1-0.3-2.2-1.7C222.1,402.3,221.9,401.8,221.8,401.2z"/>
<path class="st1" d="M286.7,424.4c-0.8,0.9-1.6,1.9-2.6,3c1.6,1,3.1,1.9,4.5,2.9c-0.7,0.9-1.5,1.6-1.8,2.5c-0.6,1.9-0.1,2.7,1.8,3.6
	c2.2,1.1,2.2,1.1,3.1-1.1c0.2-0.4,0.4-0.9,0.6-1.3c0.9-2,1.2-2.1,2.9-0.6c2.3-2.3,4.6-4.7,7-7c1.6-1.6,2.6-1.4,3.7,0.5
	c1,1.6,1.4,3.2,0.4,4.9c-0.2,0.3-0.3,0.6-0.2,0.9c0.5,2.5-1.1,4-2.4,5.8c-0.8,0.9-0.9,2.4-1.8,3.2c-1.8,1.7-1.8,4.9-4.8,5.5
	c-1.3,0.3-2.8,0.7-3.3,2.4c-0.1,0.3-0.9,0.5-1.4,0.5c-2.8-0.2-5.6-0.5-8.4-0.8c-0.4,0-0.9-0.2-1.1-0.5c-2.4-2.8-5.3-5.4-6.2-9.2
	c-0.2-0.8-0.1-1.6-0.1-2.4c0-1.2,0.4-2.6,0.1-3.7c-1-3.7-0.1-7.3,0.1-11c0.4-5,0.8-10,1.3-15c-3.3-1-6.5-1.4-9.8-0.7
	c-1,0.2-2,0.3-3,0.4c-2,0.3-4.2-1.6-4.2-3.6c0-3,2.8-5.5,5.9-5.2c2.7,0.3,5.3,0.5,8,0.8c1,0.1,1.4-0.1,1.5-1.1
	c0.5-5,1.1-10.1,1.6-15.1c0.1-1.2,0.5-1.8,1.7-1.6c0.2,0,0.3,0,0.5,0c4.6,0,4.6,0,6.4,4.3c0.2,0.4,0,1.2-0.3,1.5
	c-0.9,0.9-1,1.8-0.8,3c0.3,1.8,0.5,3.7,0.7,5.6c0,0.3,0,0.7-0.2,0.9c-1.3,1.1-0.4,1.5,0.5,2.2c1.9,1.5,4,1.4,6.2,1.1
	c3.3-0.5,6.6-0.8,9.8,0c1.5,0.4,2.6,1.6,2.6,3.2c0,0.9-1.8,3.1-2.6,3.1c-1.7-0.1-3.5,0.5-5.1-0.7c-0.2-0.2-0.7-0.1-1.1,0
	c-2.7,0.5-5.3,1.1-8,1.6c-0.9,0.2-1.3,0.5-1.4,1.5c-0.1,0.7-0.6,1.5-1.2,2.1c-1.1,1.1-1.6,2-1.1,3.7c0.7,2.5,0.9,5.1,1.4,7.7
	C286,422.8,286.3,423.5,286.7,424.4z"/>
<path class="st1" d="M353.2,442.3c2.9-2.6,5.7-5.3,8.7-7.8c0.6-0.5,1.4-0.9,2.2-1c2.3-0.2,3.3,1.7,2.4,3.9c-1,2.4-2.8,4-4.7,5.7
	c-2.5,2.3-5.2,3.9-8.6,4.5c-0.9,0.1-1.8,0.4-2.6,0.7c-2.2,0.8-4.1,0.9-6.3-0.6c-1-0.7-2.7-0.5-4-0.4c-1.6,0.1-2.8-0.3-3.9-1.6
	c-1.1-1.2-2.4-2.3-3.6-3.5c-1-0.9-2.1-1.8-1.9-3.4c0-0.4-0.4-0.9-0.7-1.2c-2.7-2.1-3.6-5-4-8.2c-0.2-1.7-0.6-3.5-0.9-5.2
	c-0.1-0.3-0.1-0.8-0.3-0.9c-1.5-1.1-0.9-2.3-0.4-3.5c1.6-3.8,3.1-7.6,4.8-11.3c0.3-0.7,1-1.3,1.7-1.8c2.1-1.6,4.2-3.3,6.4-4.7
	c1.2-0.8,2.7-1.6,4.1-1.5c4.8,0.1,9.7,0.6,14.5,1c0.5,0,1.1,0.5,1.4,0.9c2.3,2.4,4.8,4.8,6.8,7.5c2,2.7,4.1,5.7,3.8,9.4
	c-0.1,0.7-0.4,1.4-0.4,2.1c-0.1,1.3-0.3,2.6-0.4,3.8c-0.4,0.1-0.5,0.2-0.6,0.2c-3.1-1.2-6-1-8.9,0.6c-0.4,0.2-1.3,0.1-1.7-0.2
	c-1.3-1-2.5-1.7-4.2-1.1c-1.4,0.5-3.1,0.5-4.1,1.9c-0.1,0.2-0.3,0.3-0.4,0.4c-0.4-0.2-0.8-0.6-1.1-0.7c-4.4-1.2-8.8-0.6-13.1,0.1
	c-0.8,0.1-1.4,0.8-1.1,1.9c0.6,1.8,1.1,3.7,1.7,5.5c0.1,0.3,0.2,0.7,0.4,0.8c2.4,1.8,4.8,3.6,7.4,5.3c1.1,0.7,2.5,1,3.7,1.6
	c1.8,0.9,3.5,1.1,5.3,0.3c0.7-0.3,1.6,0,2.4,0.1C353,442,353.1,442.2,353.2,442.3z M341.6,408.4c-0.1,0-0.2,0-0.3-0.1
	c-0.2,1-0.4,2-0.4,3.1c0,1.7,1.2,2.3,2.7,1.4c0.9-0.5,1.7-1.2,2.5-1.7c0.3-0.2,0.7-0.5,1-0.4c1.7,0.2,3,3.3,2.2,4.8
	c-0.7,1.2-1.4,2.4-2.3,3.9c2.4-0.3,4.4-0.4,6.3-0.8c0.3-0.1,0.7-0.7,0.8-1.1c0.1-2.1,0.1-4.2,0-6.2c0-1.1-2.5-3.7-3.6-3.9
	c-2.5-0.3-5-0.7-7.6-0.9c-0.5,0-1.1,0.2-1.5,0.6C341.2,407.2,341.5,407.9,341.6,408.4z M336.9,416.3c0.8,1.6,1.4,2.8,2.1,4.2
	c1-0.7,2-1.1,2.7-1.8c0.4-0.4,0.5-1.2,0.5-1.8c0-0.2-0.8-0.6-1.2-0.6C339.7,416.3,338.5,416.3,336.9,416.3z"/>
<path class="st1" d="M398,434.7c-0.2,0.7-0.3,1.2-0.5,1.8c1.4,1.6,3,2.4,5.2,1.2c0.5-0.3,1.6-0.2,1.8,0.1c0.3,0.5,0.1,1.3,0.1,2
	c0,0.3-0.2,0.9,0,0.9c0.3,0.2,0.8,0.3,1.1,0.2c0.6-0.2,1.1-0.5,1.6-0.8c1-0.5,1.8-0.9,3,0c0.9,0.6,2.4,0.8,3.6-0.5
	c0.8-0.9,2.2-1.3,3.2-2c0.5-0.3,1.1-1,1.1-1.4c-0.3-1.8,0.8-2.8,2-3.7c1.1-0.8,1.1-1.5,0.4-2.6c-3.5-5-8.1-7.5-14.2-6.3
	c-3.6,0.7-6.6-0.6-9.7-1.8c-1.5-0.6-2.9-1.5-4.5-2.1c-2.2-0.8-3.7-2.2-4.4-4.5c-0.2-0.7-0.4-1.5-0.3-2.3c0.2-2.2,0.4-4.4,0.7-6.5
	c0.1-0.8,0.6-1.6,1-2.2c2.9-3.8,6.9-5.3,11.6-5.1c1.3,0.1,2.6,0.1,3.8,0c3.9-0.4,7.5,0.4,10.6,2.9c1.4,1.1,2.6,1.1,3.8-0.2
	c0.9-0.9,2.1-1.7,3.4-2.8c0.7,0.8,1.6,1.6,2.2,2.6c0.9,1.5,1.9,3.1,0.7,5c-1.2,1.7-1.2,3.5-0.7,5.5c0.2,0.8,0.3,1.6,0.4,2.4
	c-1.2,0.5-1.9,0-2.6-0.8c-2.2-2.9-4.3-5.7-7.2-8.1c-2.3-1.9-4.5-3-7.4-3c-2.1,0-4.1-0.5-6.2-0.5c-0.8,0-1.8,0.2-2.5,0.7
	c-1.4,1-2.7,2.2-4.1,3.3c-1.7,1.3-2.4,3.2-2.8,5.2c-0.4,1.6,1.6,4.8,3.2,5.3c4.7,1.4,9.6,1.8,14.5,2.6c4.4,0.6,8.9,1,12.9,3.3
	c0.8,0.5,1.5,1.1,2.1,1.8c1,1.2,1.7,2.6,2.7,3.8c1.2,1.4,1.4,2.8,1,4.6c-0.3,1.6-0.3,3.2-0.6,4.7c-0.1,0.6-0.4,1.2-0.8,1.6
	c-2.4,2.2-4.8,4.4-7.3,6.5c-0.5,0.5-1.3,0.8-2,1c-2.1,0.6-4.3,1-6.3,1.7c-2.4,0.8-4.6,0.9-7-0.1c-0.9-0.4-2-0.5-2.9-0.9
	c-4.1-1.8-8.2-0.5-12.3-0.2c-1.4,0.1-2.8,0.2-3.7-1.2c-0.3-0.5-0.7-1.1-0.6-1.7c0.2-5.1,0.5-10.2,0.9-15.3c0-0.5,0.6-1.4,1.1-1.5
	c0.7-0.2,1.5,0.1,2.2,0.4c0.5,0.2,0.8,0.8,1.1,1.3C392.4,431.9,394.9,433.5,398,434.7z"/>
<path class="st1" d="M103.7,447.8c-0.8,0-1.7-0.1-2.5-0.1c-1.7,0.1-3.3,0.1-5,0.3c-1.2,0.1-2.4,0.4-3.6,0.8c-3,0.9-5.7,0.2-8.4-1.1
	c-0.2-0.1-0.5-0.2-0.6-0.1c-1.4,1.1-2.9,0-4.3,0c-0.5,0-1.1-0.3-1.6-0.2c-3,0.6-4.3-1.5-5.6-3.5c-0.9-1.3,0.5-4.5,2-4.8
	c3.5-0.5,7.1-1.1,10.6-1.6c0.4-0.1,1,0,1.3,0.2c1.9,1.5,5.2,1.2,6.3-0.9c0.8-1.5-0.1-2.9-0.8-4c0.3-0.6,0.6-1.1,0.7-1.6
	c0.6-2.7,1.2-5.4,1.6-8.2c0.2-1.2,0-2.5-0.3-3.6c-0.9-3.7-0.6-7.3,0.2-10.9c0.4-2-0.3-3-1.8-4c-0.1,0.1-0.3,0.1-0.4,0.2
	c-1.3,0.5-1.8,2.8-3.8,2c-1.4-0.6-2.7-1.3-3.9-1.9c-1.7,0.2-3.4,0.4-5,0.6c-0.4,0-1.1-0.4-1.1-0.7c-0.3-2.3-0.6-4.6-0.8-7.2
	c2.6,0.3,5,0.6,7.5,0.9c2.9,0.4,5.7,0.8,8.6,1.1c0.4,0,1-0.1,1.3-0.3c1.6-1.3,3-1,4.4,0.3c2.5,2.3,2.3,5.3,2.5,8.2
	c0.2,4.3,0.4,8.5,0.6,12.8c0,0.5,0,1.2-0.3,1.5c-2,2.5-1.6,5.2-1.1,8c0.3,1.8,0.4,3.7,0.6,5.6c0.1,1.6,1.7,3,3.3,2.8
	c4.1-0.4,8.3-0.8,12.4-1c1.8-0.1,3.3,1.3,3.6,3.1c0.1,0.3,0.1,0.6,0.2,0.9c1.3,5.2-2,6.7-6.1,6.8c-1.3,0-2.5-0.2-3.8-0.4
	c-1.2-0.2-2.4-0.5-3.6,0.4C106.1,448.5,104.8,448,103.7,447.8z"/>
<path class="st1" d="M88.1,385.2c0.5-0.7,1.4-1.9,2.3-3.1c0.1-0.2,0.4-0.2,0.5-0.3c1.3-0.7,2.8-2.2,4-2.1c1.9,0.2,3.7,1.6,5.5,2.4
	c0.2,0.1,0.3,0.3,0.4,0.4c1.7,3.1,0.5,6.8-2.5,8.6c-1.5,0.9-3,1.3-4.6,0.5c-0.4-0.2-0.8-0.2-1.2-0.3
	C88.3,390.3,88.3,390.3,88.1,385.2z"/>
</svg>
