<?xml version="1.0" encoding="utf-8"?>
<!-- Generator: Adobe Illustrator 20.1.0, SVG Export Plug-In . SVG Version: 6.00 Build 0)  -->
<svg version="1.1" id="Layer_1" xmlns="http://www.w3.org/2000/svg" xmlns:xlink="http://www.w3.org/1999/xlink" x="0px" y="0px"
	 viewBox="0 0 289 145" style="enable-background:new 0 0 289 145;" xml:space="preserve">
<style type="text/css">
	.st0{fill:#BABABA;}
</style>
<path class="st0" d="M145.1833801,107.1705704c-0.542923,0-1.0440063,0-1.5708923,0
	c-0.486969-1.6814117-0.8487701-3.3859329-1.4697571-4.9901199c-1.8985291-4.9043045-5.5467987-7.3278427-10.8307953-7.3286514
	c-29.3332443-0.0044632-58.6664886-0.0069427-87.9997253-0.0100861c-0.4166222-0.0000458-0.8332405,0-1.3277588,0
	c0-0.6272812,0-1.1536255,0-1.7932816c0.3149796-0.0230789,0.6449165-0.0683899,0.9748688-0.068428
	c29.8375969-0.0039978,59.6752052-0.0118408,89.5128021,0.0016022c5.2323151,0.0023575,9.673645,3.26194,11.3473816,8.2077637
	c0.1423645,0.4207306,0.3220825,0.8288269,0.4540253,1.1651764c0.7850647-1.4958344,1.4065552-3.0967941,2.3773651-4.4464798
	c2.312851-3.2155228,5.5655823-4.9081573,9.5263062-4.9123154c29.56604-0.0310364,59.1321106-0.0172119,88.6981659-0.0146179
	c0.3795013,0.0000381,0.7589874,0.0370636,1.2075195,0.0604172c0,0.5950546,0,1.1179199,0,1.8118439
	c-0.5812836,0-1.1503601,0-1.7194214,0c-29.1004639-0.0000153-58.2009125-0.0004349-87.3013763,0.0003128
	c-5.0588074,0.0001373-9.2299347,3.0499191-10.7145233,7.8800812
	C145.9074249,104.1657791,145.5831146,105.6333771,145.1833801,107.1705704z"/>
<path class="st0" d="M218.7098541,40.2333527c-1.6075592,0-3.1439362,0-4.7581482,0c0-0.5278435,0-0.9275551,0-1.3981361
	c0.3206482-0.0419846,0.6177673-0.1113663,0.9157715-0.1153488c4.647522-0.0621185,9.2976685-0.2365646,13.9421844-0.1411095
	c5.9315948,0.1219063,11.2263489,1.9403267,14.9428253,6.8671112c4.9789581,6.6004028,4.6639709,17.3936348-2.9465027,23.5864868
	c-3.0793152,2.5057449-6.6287537,3.5467758-10.4956818,3.6814728c-2.3623657,0.0822906-4.7308502,0.058876-7.0948792,0.0060349
	c-3.081192-0.0688782-6.160675-0.2139587-9.2948151-0.3282089c0-0.4305191,0-0.8449631,0-1.3990173
	c1.5656433,0,3.1334991,0,4.7892456,0C218.7098541,60.7174263,218.7098541,50.5809212,218.7098541,40.2333527z
	 M224.2570801,71.3503265c1.6753387,0,3.2586823,0.0969391,4.8265839-0.0175476
	c5.4591675-0.398613,8.509903-2.1988602,10.6792297-8.0040703c1.5860596-4.2443237,1.6024017-8.5971031,0.6231689-12.9852753
	c-1.957016-8.7695961-8.6385345-11.0355453-16.1289825-10.0368958
	C224.2570801,50.5542183,224.2570801,60.8031921,224.2570801,71.3503265z"/>
<path class="st0" d="M165.0952911,47.5702972c-0.5686035,0-0.9507904,0-1.414093,0
	c-0.3375397-0.9828339-0.6663666-2.0000343-1.0350952-3.0025558c-1.0305481-2.8018074-3.2006683-4.1275558-6.0350647-4.3108215
	c-2.356369-0.1523552-4.7311096-0.0572968-7.0959015,0.001442c-0.3119354,0.0077477-0.8770752,0.4462318-0.8800659,0.6907005
	c-0.0539246,4.3790436-0.0391998,8.7589302-0.0391998,13.2687149c2.2991028,0.1838799,4.5495911,0.4533577,6.5549469-0.8319664
	c1.4029388-0.8991966,1.7972565-2.4902077,2.0708923-4.0127945c0.1636963-0.9109459,0.4902802-1.2231522,1.431427-0.9414597
	c0,4.5349808,0,9.0914917,0,13.7516899c-0.5904388,0.0112953-1.1685028,0.3290405-1.3456573-0.6001892
	c-1.1159821-5.85429-3.1893616-6.0111465-8.2653656-5.8458023c-0.1065674,0.0034714-0.2109833,0.0727348-0.3782349,0.1339264
	c0,4.9790611,0,9.9583397,0,15.090519c2.7353668,0,5.4035797,0.0898895,8.0610657-0.0399017
	c1.2324982-0.0601883,2.572113-0.3108292,3.6405029-0.8875885c2.8708954-1.5498276,3.7165375-4.3850784,4.1659698-7.3788872
	c0.0333557-0.2222595,0.0522308-0.446701,0.0837097-0.721283c0.4745789,0,0.8887787,0,1.3929901,0
	c0,3.4695396,0,6.9371376,0,10.4910088c-9.2172699,0-18.4244385,0-27.7131042,0
	c-0.0216064-0.4454193-0.0415649-0.8569031-0.0688934-1.4203873c1.6669769,0,3.2694855,0,4.9890289,0
	c0.0301056-0.5527649,0.0718994-0.9645538,0.072113-1.3763657c0.0049133-9.3488235-0.0118866-18.6977272,0.0298462-28.0463676
	c0.0047913-1.0729523-0.2916107-1.472641-1.3696747-1.3757782c-0.8852081,0.0795403-1.7830505,0.0126343-2.6751556,0.0231934
	c-0.5802612,0.0068703-1.0876312,0.0044441-1.0539246-0.827713c0.032608-0.8053551,0.5794067-0.6884537,1.0667114-0.6887474
	c6.2066193-0.0037193,12.4132538-0.0013008,18.6198883-0.0001259c2.0171204,0.0003815,4.0350037,0.0337677,6.0510406-0.0129166
	c0.8278351-0.0191689,1.1781158,0.1824455,1.1584778,1.0927887
	C165.0594635,42.3444633,165.0952911,44.8982544,165.0952911,47.5702972z"/>
<path class="st0" d="M70.3408661,40.2229576c-1.268837,0-2.5363693-0.0071793-3.8037643,0.003212
	c-0.5812683,0.0047684-1.0872116,0.0062981-1.0607834-0.8224945c0.0262909-0.8246155,0.592598-0.666069,1.0693588-0.6681099
	c2.7935944-0.0119553,5.587532,0.0084991,8.3806763-0.0306244c0.7479095-0.010479,1.1712723,0.2497978,1.5771103,0.8907852
	c4.3683243,6.8993683,8.774231,13.7749329,13.1707382,20.6564522c0.4630585,0.724781,0.9316483,1.4460182,1.6267548,2.0771828
	c0-7.3005486,0-14.6010971,0-22.071022c-1.5789795,0-3.1490707,0-4.7993927,0c0-0.5752563,0-0.9825592,0-1.4771957
	c3.7430496,0,7.4782715,0,11.286911,0c0,0.4714088,0,0.8739243,0,1.4213524c-1.5753632,0-3.1074371,0-4.7801819,0
	c0,10.9407921,0,21.7388268,0,32.5479774c-1.0797195,0.3140945-1.7227783,0.1384201-2.3121796-0.7982712
	c-5.5034409-8.7462234-11.0567932-17.4610481-16.6010818-26.1815414c-0.5178604-0.8145294-1.072731-1.6055298-1.783638-2.6658134
	c0,9.415123,0,18.5505295,0,27.8256416c1.5500488,0,3.1196747,0,4.7495728,0c0,0.5504227,0,0.9628906,0,1.4774017
	c-3.7973328,0-7.6072311,0-11.4919128,0c0-0.456131,0-0.8936615,0-1.4413452c1.6082764,0,3.1461029,0,4.7718124,0
	C70.3408661,60.7132874,70.3408661,50.5696564,70.3408661,40.2229576z"/>
<path class="st0" d="M126.2136841,38.5520935c0,3.2185593,0,6.1517906,0,9.1004639
	c-1.0232925,0.4041977-1.4681625,0.0528755-1.7145081-0.9666023c-0.699501-2.8948669-2.0991135-5.3684769-4.8935928-6.7013931
	c-2.6829681-1.2797279-5.4282837-1.0704498-7.7990646,0.6644821c-3.3535309,2.4540939-2.9300842,6.8598633,0.8422394,8.8431206
	c2.0417175,1.07341,4.2985077,1.7327843,6.4402924,2.6222267c1.9608765,0.8143158,3.9837036,1.5325356,5.8289108,2.5624313
	c5.72155,3.19347,5.3775406,10.0706215,2.2931442,14.0927238c-3.9182663,5.1095047-10.7309265,5.7808151-16.1790695,3.4653091
	c-0.7815552-0.3321609-1.536911-0.7264557-2.3210983-1.0517349c-0.7152252-0.2966766-1.1997604-0.0169907-1.6463776,0.6100693
	c-0.274826,0.3858643-0.7978516,0.5949402-1.2094345,0.8833923c-0.0962601-0.095932-0.1925125-0.1918716-0.2887726-0.2878036
	c0-3.4663086,0-6.9326172,0-10.3764687c1.1109314-0.4198036,1.5807877,0.0001869,1.8054199,1.0613594
	c0.460701,2.1763916,1.2844391,4.2099533,2.7046661,5.9630737c3.067131,3.7859879,11.7340393,4.6873398,14.4211731-1.4509354
	c1.1313324-2.5843353,0.5770569-5.7667847-1.8484573-7.2223282c-2.3607483-1.4166756-5.0257797-2.3249397-7.5524597-3.466938
	c-1.6183624-0.7314568-3.2774887-1.3916321-4.8322754-2.2412529c-4.2585297-2.3270912-4.9402084-7.4389954-3.1731567-11.3173027
	c1.6470337-3.614872,4.6514893-5.276268,8.5901489-5.4909859c2.6209793-0.1428833,4.9643173,0.5972023,7.2165298,1.7948914
	c0.8065338,0.4288979,1.3918457,0.4887619,1.8962555-0.4811287
	C124.9618912,38.8383179,125.6405182,38.7815971,126.2136841,38.5520935z"/>
<path class="st0" d="M179.1536713,70.9446259c1.6475525,0,3.0351868,0,4.5170441,0c0,0.5154037,0,0.9537888,0,1.4797668
	c-3.4502563,0-6.9184723,0-10.4592438,0c0-0.4497299,0-0.8598862,0-1.4651871c1.0180054,0,2.04776-0.0350418,3.0737762,0.0119095
	c0.7241211,0.0331345,1.0983582-0.2025909,1.3601227-0.923317c2.3495636-6.469265,4.7358704-12.9252357,7.124054-19.3804131
	c1.4478302-3.9133873,2.9291077-7.8144188,4.3669128-11.7314491c0.2295532-0.6253357,0.5192108-0.9128914,1.2380371-0.9199257
	c0.7356873-0.0071945,1.0043945,0.3200111,1.2304382,0.9308281c3.0337067,8.1973228,6.0858612,16.3878174,9.1304626,24.5811157
	c0.8088684,2.1767731,1.6290741,4.349762,2.3985748,6.5404739c0.2441559,0.6950531,0.6134033,0.961235,1.3562012,0.908989
	c0.9575348-0.0673523,1.9233704-0.0164032,2.9511566-0.0164032c0,0.5390244,0,0.9776611,0,1.4825974
	c-4.8195038,0-9.5779572,0-14.4762573,0c-0.0198212-0.4337311-0.0399933-0.8749084-0.0665436-1.455513
	c1.5148315,0,2.9700165,0,4.6221924,0c-0.5659943-1.6189346-1.0565338-3.0643692-1.5768585-4.4990082
	c-0.5795288-1.5979385-1.214798-3.1762238-1.7661743-4.7835274c-0.2055511-0.5991783-0.4669495-0.8676872-1.1422272-0.860096
	c-3.1418457,0.0353127-6.2843933,0.0047569-9.4263153,0.0357056c-0.3258362,0.0032082-0.8565826,0.1794395-0.9424438,0.4072342
	C181.484848,64.4237061,180.364563,67.5821609,179.1536713,70.9446259z M188.4577789,46.2271309
	c-0.0943298-0.0072021-0.1886292-0.0144043-0.2829437-0.0216103c-1.5869141,4.3102531-3.1738434,8.6205063-4.7939606,13.0209122
	c3.4712067,0,6.5917053,0,9.8922882,0C191.6349792,54.8040848,190.0463715,50.5156097,188.4577789,46.2271309z"/>
<path class="st0" d="M52.5165787,70.9630051c1.6191826,0,3.1562538,0,4.7581863,0c0,0.5448685,0,0.984024,0,1.4853058
	c-5.0966797,0-10.1297684,0-15.2692604,0c0-0.4655457,0-0.9361496,0-1.5079575c1.6693954,0,3.2856216,0,5.000351,0
	c0.0323029-0.4685211,0.0806694-0.8445511,0.0808716-1.2206116c0.0050201-9.3509026-0.0179863-18.7019348,0.0338326-28.0525551
	c0.0067406-1.216156-0.3712997-1.5699921-1.5239906-1.4644966c-1.0004501,0.0915604-2.0191841,0.0637131-3.0223274-0.0114937
	c-0.2484589-0.0186272-0.687336-0.4693642-0.652298-0.6439171c0.0621719-0.3097458,0.4185028-0.798687,0.6543732-0.8001823
	c4.809227-0.0304527,9.6188316-0.002739,14.4283333,0.0185013c0.0667648,0.0002975,0.1332397,0.0663643,0.2665672,0.1371613
	c0,0.3687401,0,0.7703781,0,1.3114815c-1.5961914,0-3.1307526,0-4.7546387,0
	C52.5165787,50.4931679,52.5165787,60.6332359,52.5165787,70.9630051z"/>
</svg>
