<?xml version="1.0" encoding="utf-8"?>
<!-- Generator: Adobe Illustrator 20.1.0, SVG Export Plug-In . SVG Version: 6.00 Build 0)  -->
<svg version="1.1" id="Layer_1" xmlns="http://www.w3.org/2000/svg" xmlns:xlink="http://www.w3.org/1999/xlink" x="0px" y="0px"
	 viewBox="0 0 612 792" style="enable-background:new 0 0 612 792;" xml:space="preserve">
<style type="text/css">
	.st0{display:none;fill:#FFFFFF;}
	.st1{display:none;}
	.st2{fill:#EC2155;}
</style>
<path class="st0" d="M-298.7999878,235.3999939c0-166.6999969,0-333.3999939,0-500.2000122c300.2000122,0,600.2999878,0,900.5,0
	c0,166.6999969,0,333.3999939,0,500.2000122C301.5,235.3999939,1.3,235.3999939-298.7999878,235.3999939z M375.5,22.5
	c0-0.8999996,0-1.5,0-2.1000004c0-70.5-0.1000061-140.8999939-0.1000061-211.3999939
	c0-0.1000061-0.1000061-0.1000061-0.1000061-0.1999969c-0.1000061-0.1000061-0.1000061-0.1000061-0.2000122-0.1000061
	c-0.3999939,0.3999939-0.8999939,0.6999969-1.2000122,1.1000061c-3.3999939,4.1999969-6.7999878,8.3999939-10.2000122,12.5
	c-6.8999939,8.3000031-13.7000122,16.6000061-20.6000061,24.8999939c-3.7000122,4.5-7.5,9-11.2999878,13.5
	c-4.3999939,5.3000031-8.7999878,10.6000061-13.2000122,16c-5.3999939,6.5-10.7000122,12.9000015-16.1000061,19.4000015
	c-4.5,5.4000015-9,10.9000015-13.5,16.2999954c-4.6000061,5.5999985-9.2000122,11.0999985-13.7999878,16.5999985
	c-1.7000122,2-3.2000122,4.0999985-5,6.0999985s-1.8999939,1.7999992-3.6000061,0
	c-0.1000061-0.0999985-0.1000061-0.1999969-0.1000061-0.1999969c-3.7999878-4.5999985-7.6000061-9.1999969-11.3999939-13.8000031
	c-6.3000031-7.6999969-12.6000061-15.3000031-18.8999939-23c-3.6000061-4.3000031-7.1000061-8.6999969-10.6999969-13.0999985
	c-3.6999969-4.5-7.3999939-8.9000015-11-13.4000015c-2.6999969-3.3000031-5.3999939-6.6000061-8.1999969-9.8999939
	c-2.1000061-2.6000061-4.3000031-5.1000061-6.5-7.6000061c-3.6999969-4.5-7.3999939-9.1000061-11.1000061-13.6000061
	c-4.3000031-5.3000031-8.6999969-10.5-13-15.8000031c-4.1000061-5-8.1999969-9.8999939-12.3000031-14.8999939
	c-0.3999939-0.5-1-0.8999939-1.8000031-1.6000061c0,1,0,1.6000061,0,2.1000061c0,69.9000015,0,139.8000031,0,209.6999969
	c0,2.3999996,0.3000031,2.7000008,2.8000031,2.7000008c6,0,12,0,18,0c2.1999969,0,4.5,0.1000004,6.6999969,0.1000004
	c1.6000061,0,2-0.3999996,2-2c0-0.3999996,0-0.7999992,0-1.2000008c0-42.4000015,0-84.8000031,0-127.1999969
	c0-0.6999969,0-1.4000015,0.1000061-2.1999969c0.1000061-0.4000015,0.3999939-0.6999969,0.6999969-1.3000031
	c25.5,30.9000015,50.8000031,61.7000008,76.4000092,92.8000031c25.7000122-31,51.1000061-61.7999954,76.6000061-92.5999985
	c1.2999878,1,0.8999939,2.1999969,0.8999939,3.3000031c0,42.0999985,0,84.1999969,0,126.1999969
	c0,0.6000004,0,1.2999992,0,1.8999996c0,1.8999996,0.3999939,2.2000008,2.2000122,2.2000008
	c8.2000122,0,16.2999878,0,24.5-0.1000004C373.5,22.7999992,374.5,22.6000004,375.5,22.5z M-287.2000122,22.6000004
	C-286,22.7000008-285,22.8000011-284,22.8000011c8,0,16,0,24,0.1000004c2.1000061,0,2.2999878-0.2000008,2.2999878-2.6000004
	c0-42.5999985,0-85.0999985,0-127.6999969c0-0.6999969,0-1.4000015,0.1000061-2.1999969
	c0-0.4000015,0.2999878-0.6999969,0.5-1.3000031c25.3999939,30.9000015,50.6999969,61.5999985,76.1999969,92.4000015
	c0.6000061-0.5,1.1000061-0.7999992,1.5-1.2999992c5.3999939-6.6000004,10.6999969-13.1000023,16.1000061-19.7000008
	c4.8999939-5.9000015,9.8000031-11.7999992,14.6999969-17.7000008c4.3999939-5.2999992,8.8000031-10.7000008,13.1999969-16.0000038
	c5.3999939-6.5,10.8000031-12.9000015,16.0999985-19.4000015c4.5999985-5.5,9.0999985-11,13.5999985-16.5
	c0.5-0.6999969,1-1.3000031,2.3000031-1.5999985c0,1.1999969,0,2.3000031,0,3.3000031c0,42.5,0,84.9000015,0,127.4000015
	c0,0.5-0.1999969,1,0,1.3999996c0.1999969,0.5,0.6999969,1.1000004,1.1999969,1.2999992c0.5,0.2000008,1.0999985,0,1.6999969,0
	c8,0,16,0,24,0c2.6999969,0,2.9000015-0.1000004,2.9000015-2.7999992c0-69.9000015,0-139.8000031,0-209.6999969
	c0-0.5-0.0999985-1-0.1999969-2.1000061c-1.4000015,1.8000031-2.5,3.1000061-3.5999985,4.3999939
	c-3,3.6000061-6,7.1999969-9,10.8000031c-4.0999985,4.8999939-8.0999985,9.8000031-12.0999985,14.6000061
	c-5.1999969,6.3000031-10.5,12.5-15.6999969,18.6999969c-5.9000015,7.1000061-11.6999969,14.1999969-17.5000076,21.3000031
	c-4.6999969,5.6999969-9.5,11.3000031-14.1999969,17c-3.1999969,3.8000031-6.3000031,7.6999969-9.5,11.5
	c-4.5,5.4000015-9.1000061,10.6999969-13.6000061,16.1999969c-3.3999939,4.0999985-6.8000031,8.3000031-10.1999969,12.5
	c-1.3000031,1.5-1.8999939,1.5-3.1999969-0.0999985c-2.3000031-2.8000031-4.6000061-5.5999985-6.8999939-8.4000015
	c-1.8999939-2.3000031-3.8999939-4.5999985-5.8999939-6.9000015c-3.8999939-4.6999969-7.6999969-9.5-11.6000061-14.1999969
	c-4.3000031-5.1999969-8.6000061-10.4000015-12.8999939-15.5999985
	c-4.6999969-5.8000031-9.3999939-11.5999985-14.1000061-17.3000031C-238.1999969-132.6999969-242.6999969-138-247-143.2999878
	c-7.1000061-8.6000061-14.1000061-17.1999969-21.2000122-25.6999969
	c-4.3999939-5.3999939-8.7999878-10.8000031-13.2000122-16.1999969c-1.7000122-2.1000061-3.5-4.1000061-5.6000061-6.6000061
	C-287.2000122-119.9000015-287.2000122-48.9000015-287.2000122,22.6000004z M44.7999992-191.6999969
	c-0.5,0.8000031-1,1.3000031-1.2999992,1.8999939c-2.7999992,6.1000061-5.5999985,12.1999969-8.4000015,18.3000031
	c-2.4000015,5.3000031-4.8999996,10.6999969-7.2999992,16S22.8999996-144.8000031,20.5-139.5
	c-4,8.6000061-7.8999996,17.3000031-11.8999996,25.9000015c-4,8.8000031-8,17.5999985-12,26.4000015
	c-3,6.5-5.8999996,13.0999985-8.8999996,19.6999969c-4,8.9000015-8.1000004,17.7000008-12.1000004,26.5999985
	c-3,6.5999985-6,13.2999992-9.0000019,19.8999996C-36-15.4000015-38.6000023-9.8000021-41.1000023-4.2000027
	c-4,8.8000002-8,17.6000004-12,26.2999992c0.4000015,1.1000004,1.2999992,0.7999992,2.0999985,0.7999992
	c8.8999977,0,17.7999992-0.1000004,26.6000004,0c2.7999992,0,2.7000008,0.2000008,3.8999996-2.5
	c3.2000008-7,6.1000004-14.1000004,9.1000004-21.2000008c2.3999996-5.5999999,4.6999998-11.1999998,7-16.8999996
	c0.5-1.2000008,1.3-1.7999992,2.5-1.7999992c0.6,0,1.1,0,1.7,0c29.2000008,0,58.4000015,0,87.5999985,0c0.5,0,1,0,1.4000015,0
	c1.5-0.1000004,2.4000015,0.5,2.9000015,1.8999996C92-16.5000038,92.5999985-15.4000044,93-14.300004
	C95.0999985-9.1000004,97.4000015-4.0999999,99.5,1c2.6999969,6.4000001,5.4000015,12.8999996,8.0999985,19.2999992
	c0.6999969,1.7000008,1.6999969,2.6000004,3.8000031,2.5c7.0999985-0.1000004,14.1999969-0.1000004,21.4000015-0.1000004
	c2.3999939,0,4.8000031,0.1000004,7.1999969,0c1.3999939,0,1.8000031-0.6000004,1.3000031-1.7000008
	c-2.1999969-4.6999989-4.5-9.3999996-6.6000061-14.1999998c-3.6000061-7.9000001-7-15.8000002-10.5999985-23.7000008
	C121.5-22.6000023,118.9000015-28.3000011,116.2999954-34c-2.9000015-6.2999992-5.6999969-12.5-8.5999985-18.7999992
	C103.5999985-62,99.5-71.0999985,95.2999954-80.3000031C92.8999939-85.7000046,90.3999939-91.1000061,87.8999939-96.5
	c-2.5-5.5-5-10.9000015-7.5-16.4000015C77.5999908-119,74.9999924-125.2000046,72.1999969-131.3000031
	c-3.1999969-7.1000061-6.5-14.1000061-9.7000008-21.1000061c-2.2999992-5-4.5-10-6.7999992-15
	c-2.2000008-4.8000031-4.2999992-9.6999969-6.5-14.6000061C47.9000015-185,46.4000015-188.1999969,44.7999992-191.6999969z
	 M494.1000061-191.8000031c-0.3999939,0.6999969-0.5,1-0.7000122,1.3000031
	c-2.6000061,5.6000061-5.2999878,11.1999969-7.7999878,16.8000031c-3.5,7.6999969-7,15.3999939-10.5,23.1999969
	c-4.5,9.8999939-9,19.6999969-13.6000061,29.5999985c-3.8999939,8.5999985-7.8999939,17.0999985-11.7999878,25.5999985
	c-3,6.5999985-6,13.3000031-9.1000061,19.9000015c-3.1000061,6.8000031-6.1000061,13.5-9.2000122,20.2999992
	C428.7999878-49.4000015,426.1999817-43.7000046,423.6000061-38c-2.3999939,5.2999992-4.7999878,10.5-7.2000122,15.7999992
	c-3,6.5-5.8999939,12.8999996-8.8999939,19.3999996c-3.6000061,7.8000002-7.1000061,15.6000004-10.7000122,23.3999996
	C396,22.2999992,396.5,22.8999977,398.3999939,22.8999977c4.5,0,9,0,13.3999939,0c4.7000122,0,9.3999939,0,14.2000122,0.1000004
	c1.3999939,0,2.1000061-0.3999996,2.7000122-1.7999992c3.2000122-7.6000004,6.5-15.1000004,9.7999878-22.7000008
	c2.2999878-5.1999998,4.6000061-10.5,6.7000122-15.8000011c0.7000122-1.7000008,1.7000122-2.2000008,3.5-2.2000008
	c29.6000061,0,59.2000122,0,88.7999878,0c2.9000244,0,3,0.1000004,4.0999756,2.7000008
	C543.6999512-11.7000027,545.7999878-6.6000032,548-1.5000029c3.2000122,7.4000001,6.5,14.8000002,9.5,22.2999992
	c0.7000122,1.6000004,1.5,2,3,2c9.7000122,0,19.4000244,0,29,0c0.5999756,0,1.2000122-0.2000008,2-0.2999992
	c-0.5999756-1.1000004-1.2000122-1.8999996-1.5999756-2.7000008c-2.7999878-6.1000004-5.5-12.3000002-8.2999878-18.3999996
	c-3.7000122-8.3999996-7.4000244-16.7999992-11.2000122-25.2000008c-3.2999878-7.1999989-6.5999756-14.3999996-9.9000244-21.6000004
	c-4.0999756-9.1000023-8.2000122-18.2000008-12.2999878-27.2999992c-2.7999878-6.3000031-5.7000122-12.5-8.5999756-18.7000046
	c-3.0999756-6.8000031-6.0999756-13.5999985-9.0999756-20.4000015c-3.2000122-7.0999985-6.5-14.0999985-9.7000122-21.2000046
	c-2.7999878-6.1000061-5.5-12.1000061-8.2000122-18.1999969c-2.5-5.6000061-5-11.3000031-7.5-16.8999939
	c-2.5-5.6000061-5.1000061-11.3000031-7.6000061-16.8999939
	C496.2999878-187.1999969,495.2999878-189.3000031,494.1000061-191.8000031z M420.6000061,119.9000015
	c2.8999939-1,5.2999878-1.6999969,7.6000061-2.5999985c7.7000122-3.0999985,11.5-9.4000015,13.2999878-17.0999985
	c0.6000061-2.6999969,0.6000061-5.5999985,0.6000061-8.3000031c0-4.1999969-1-8.1999969-3.1000061-11.9000015
	c-3.1000061-5.3000031-8-8.5-13.6000061-10.5999985c-5.7000122-2-11.7000122-2.5-17.6000061-2.6999969
	c-10.2000122-0.4000015-20.5-0.0999985-30.7000122-0.0999985c-0.6000061,0-1.2999878,0-1.8999939,0.0999985
	c-0.8999939,0.1999969-1.3999939,0.6999969-1.3999939,1.6999969c0,0.5,0,1,0,1.4000015c0,29.8000031,0,59.6999969,0,89.5
	c0,0.6000061,0.1000061,1.1999969,0.1000061,1.8000031c2.5,0.5,14.6000061,0.3999939,16.5-0.1000061
	C390.5,147.8999939,390.2999878,134.8000031,390.5,121.4000015c1.1000061-0.0999985,1.7999878-0.1999969,2.6000061-0.1999969
	c2.2000122,0,4.5,0.0999985,6.7000122-0.0999985c2.2999878-0.1999969,3.6000061,0.6999969,4.7000122,2.6999969
	c2.7999878,5.5,5.8999939,10.8000031,8.8999939,16.3000031c2.6000061,4.6999969,5.1000061,9.5,7.7000122,14.1999969
	c1.2999878,2.3000031,2.6000061,4.6999969,3.7999878,6.8999939c4.7000122,0.5,18,0.3000031,19.7000122-0.3999939
	c-0.1000061-0.3999939-0.2000122-0.8000031-0.3999939-1.1000061C440.4000549,153.5,436.6000366,147.3000031,432.9000549,141
	c-3.8999939-6.3999939-7.7000122-12.8999939-11.6000061-19.3000031C421,121.1999969,420.7999878,120.5,420.6000061,119.9000015z
	 M7.5999999,104.4000015C6.7999997,104.5,6.3999996,104.5999985,6,104.5999985c-13.6000004,0-27.2000008,0-40.7999992,0
	c-1.7999992,0-1.9000015-0.1999969-2-1.9000015c0-0.6999969,0-1.4000015,0-2.1999969c0-10.4000015,0-20.8000031,0-31.1999969
	c0-2.3000031-0.2999992-2.5999985-2.5999985-2.6999969c-2.2000008,0-4.5,0-6.7000008,0c-2.2999992,0-4.5999985,0-6.7999992,0
	c-0.7000008,2-0.7999992,92.1999969-0.2000008,94.5c2.5999985,0.5,14.5,0.3999939,16.2999992-0.1999969
	c0-0.6999969,0-1.5,0-2.3000031c0-12.1000061,0-24.1999969,0-36.1999969c0-2.9000015,0.2000008-3.0999985,3.2000008-3.0999985
	c12.7000008,0,25.3999996,0,38.2000008,0c0.9000001,0,1.9000001,0.0999985,3.0999999,0.1999969
	c0,7.0999985,0,13.9000015,0,20.7999954s0,13.8999939,0,20.6999969c2.5999999,0.6000061,15.1000004,0.5,17-0.1000061
	c0-0.8999939,0-1.8000031,0-2.8000031c0-29.3000031,0-58.5,0-87.8000031c0-0.6999969,0-1.4000015,0-2.1999969
	c-0.1000004-0.5-0.2999992-1-0.5-1.5999985c-4.6000004,0-9.1000004,0-13.6000004,0c-2.8000002,0-3,0.1999969-3,3.0999985
	c0,10.5999985,0,21.0999985,0,31.6999969C7.5999999,102.3000031,7.5999999,103.3000031,7.5999999,104.4000015z
	 M349.1000061,82.1999969c0.7999878-2.5,0.7000122-13.5999985-0.1000061-15.5c-0.6000061,0-1.2000122,0-1.7999878,0
	c-18.8999939,0-37.7999878,0-56.6000061,0c-0.3999939,0-0.7999878,0-1.2000122,0
	c-1.7000122,0.0999985-2.1000061,0.4000015-2.2000122,2.0999985c0,0.5,0,1,0,1.4000015c0,29.5999985,0,59.1999969,0,88.8000031
	c0,0.6000061,0,1.1000061,0,1.6999969c0,1,0.5,1.6999969,1.6000061,1.6000061c0.5,0,1,0,1.3999939,0
	c19.3999939,0,38.8999939,0,58.2999878,0c3.7999878,0,3.8999939,0.3000031,3.7000122-3.8000031
	c-0.1000061-2.6999969,0-5.3999939,0-8.1999969c0-0.8999939,0-1.6999969,0-2.8999939
	c-1.2000122-0.1000061-2.2000122-0.1999969-3.2999878-0.1999969c-14.2000122,0-28.2999878,0-42.5,0
	c-2.7000122,0-2.8999939-0.1999969-2.8999939-2.8999939c0-6.6000061,0-13.1000061,0-19.6999969
	c0-4.0999985,0-4.0999985,4.2000122-4.0999985c11.8999939,0,23.7999878,0,35.7999878,0
	c1.2000122,0,2.2999878-0.0999985,3.7000122-0.1999969c0-1.4000015,0.1000061-2.5999985,0-3.8000031
	c-0.2999878-3.4000015,0.7999878-7-0.6000061-10.4000015c-3.3999939-1.0999985-7-0.5-10.3999939-0.5
	c-9.8999939-0.0999985-19.7999878,0-29.7999878,0c-2.7999878,0-2.7999878-0.0999985-2.7999878-2.8000031
	c0-5.9000015,0-11.8000031,0-17.8000031c0-0.8000031,0.1000061-1.6999969,0.2000122-2.8000031
	C319,82.1999969,334.1000061,82.1999969,349.1000061,82.1999969z M66.5999985,82.3000031
	C67.7999954,82.2000046,68.9000015,82.1000061,70,82.1000061c13.3000031,0,26.5999985,0,39.8000031,0
	c2.5,0,2.5999985-0.0999985,2.5999985-2.5c0-3.5999985,0-7.1999969,0-10.8000031c0-1.8000031-0.3000031-2-2.0999985-2.0999985
	c-0.5,0-1,0-1.4000015,0c-18.5,0-36.9000015,0-55.4000015,0c-0.4000015,0-0.7999992,0-1.2000008,0
	c-1.5,0.0999985-1.7999992,0.3000031-1.9000015,1.8000031c0,0.5999985,0,1.3000031,0,1.9000015
	c0,13.3000031,0,26.5999985,0,39.8000031c0,16.3000031,0,32.6000061,0,48.8999939c0,1,0.2000008,2,0.2999992,3.1000061
	c0.9000015,0,1.5,0,2.2000008,0c19.7999992,0,39.4999962,0,59.2999992,0c0.4000015,0,0.8000031,0,1.1999969,0
	c1.5999985-0.1000061,1.9000015-0.3000031,2-2c0-2.6000061,0-5.3000031,0-7.8999939c0-1.6000061,0-3.1000061,0-4.8999939
	c-1.4000015-0.1000061-2.5-0.1999969-3.5999985-0.1999969c-14.0999985,0-28.0999985,0-42.2000046,0c-3,0-3,0-3-3.1000061
	c0-6.6000061,0-13.1000061,0-19.6999969c0-3.9000015,0-3.9000015,3.9000015-3.9000015c12.0999985,0,24.2000046,0,36.2000046,0
	c1,0,2-0.0999985,3.3000031-0.1999969c0-4.5999985,0-9,0-13.4000015c0-0.9000015-0.5999985-1.4000015-1.5999985-1.4000015
	c-0.5999985,0-1.0999985,0-1.6999969,0c-12.1999969,0-24.5,0-36.7000046,0c-1,0-2-0.0999985-3.1999969-0.1999969
	C66.5999985,97.5999985,66.5999985,90.0999985,66.5999985,82.3000031z M-141.6000061,150.8999939
	c2,2.8999939,4.6000061,4.8000031,7.1999969,6.6000061c5.5,3.6999969,11.6999969,5.1999969,18.1999969,5.8999939
	c1,0.1000061,1.9000015,0.1999969,2.9000015,0.3000031c1.4000015,0.1000061,2.9000015,0.3999939,4.3000031,0.1999969
	c4.1999969-0.6000061,8.5-1,12.5999985-2.3000031c6.6999969-2.1999969,12.1999969-6,16.0999985-11.8999939
	c4.5999985-7.1000061,4.5-14.8999939,3.6999969-22.9000015c-0.0999985-1.1999969-0.5-2.4000015-1-3.4000015
	c-2.6999969-5.8000031-7-10.0999985-12.8000031-13c-4.4000015-2.1999969-9.1999969-3.4000015-13.9000015-4.9000015
	c-4-1.3000031-7.9000015-2.9000015-11.5-5.0999985c-4-2.4000015-6-6.4000015-4.8000031-11.1999969
	c0.6999969-2.8000031,2.0999985-4.9000015,4.3000031-6.5999985c1.9000015-1.4000015,4-2.0999985,6.3000031-2.5999985
	c4.4000015-1,8.5-0.5,12.6999969,0.8000031c3,1,5.8000031,2.5,7.9000015,5c0.6999969,0.8000031,1.3000031,0.8000031,2,0
	C-87.1000137,85.5-86.8000183,85.3000031-86.5000153,85c3-3.4000015,6.0999985-6.9000015,9.0999985-10.3000031
	c0.5-0.5999985,0.8000031-1.3000031,1.1999969-1.9000015c-0.5-0.5-0.8000031-0.6999969-1.0999985-1
	c-3.8000031-3-7.9000015-5.5-12.6999969-6.5999985c-4-0.9000015-8-1.9000015-12.1999969-1.9000015
	c-4.5999985,0-9,0.8000031-13.4000015,1.9000015c-6.0999985,1.5-11.3000031,4.4000015-15.5999985,9
	C-135.7000122,78.8999939-137.9000092,84.5-138.1000061,91c-0.1000061,2.1999969,0.1000061,4.4000015,0.6999969,6.5999985
	c0.5,1.9000015,0.8000031,3.9000015,1.6999969,5.6999969c2.6000061,5.5999985,6.8999939,9.6999969,12.5,12.0999985
	c5.3000031,2.1999969,10.8000031,4.0999985,16.1999969,6c2.9000015,1,5.6999969,2.4000015,8.3000031,4
	c6.9000015,4.3999939,7.0999985,12.8000031,1.8000031,18.1999969c-2.6999969,2.6999969-6,4.1000061-9.5,4.6999969
	c-3.5,0.6000061-7.0999985,0.6999969-10.5999985-0.6000061c-4.3000031-1.5-8.0999985-3.6999969-10.9000015-7.3000031
	c-1-1.3000031-1.3000031-1.3000031-2.3999939-0.1999969C-134.3000031,143.6999969-137.8999939,147.1999969-141.6000061,150.8999939z
	 M240.6999969,161.3000031c0-1.1000061,0-2.1000061,0-3.1999969c0-24.1000061,0-48.3000031,0-72.4000015
	c0-0.6999969,0-1.4000015,0-2.1999969c0.1000061-1.4000015,0.6999969-1.9000015,2.1000061-2.0999985
	c0.6000061,0,1.1000061,0,1.6999969,0c7.3999939,0,14.7000122,0,22.1000061,0c0.8999939,0,1.7999878-0.0999985,2.7000122-0.1999969
	c0.5-3.0999985,0.3999939-12.6999969-0.2000122-14.8000031c-0.8999939,0-1.7999878,0-2.7000122,0
	c-22.6999969,0-45.3999939,0-68.1000061,0c-0.5,0-1,0-1.3999939,0C195.5,66.5000076,195,66.8000107,195,68.3000107
	c-0.1000061,3.8000031,0,7.6999969,0,11.5c0,1,0.5,1.5,1.5,1.5c0.6000061,0,1.3000031,0,1.8999939,0c7.5,0,15,0,22.5,0
	c2.8000031,0,3.1000061,0.3000031,3.1000061,3.1999969c0,0.1999969,0,0.5,0,0.6999969c0,24.0999985,0,48.2999954,0,72.4000015
	c0,1.1000061,0,2.1999969,0,3.3000031C225.6999969,161.6000061,236.3999939,161.6999969,240.6999969,161.3000031z
	 M198.1999969,147.1000061C197,147,195.8999939,146.8000031,194.8999939,146.8000031c-11.8000031,0-23.6999969,0-35.5,0
	c-0.8000031,0-1.6000061,0-2.3999939-0.1000061c-0.8999939-0.1000061-1.5-0.6000061-1.5-1.6000061
	c0-0.6000061,0-1.1000061,0-1.6999969c0-12.6999969,0-25.4000015,0-38.0999985c0-11.8000031,0-23.7000046,0-35.5
	c0-1.0999985,0.3000031-2.1999969-0.6999969-3.1999969c-4.5,0-9.1000061,0-13.6000061,0
	c-1.1999969,0-1.8000031,0.5999985-1.8000031,1.6999969c0,0.4000015,0,0.8000031,0,1.1999969
	c0,29.7999954,0,59.5999985,0,89.5000076c0,0.8000031,0.1000061,1.5,0.1999969,2.6000061c1.1000061,0,2,0,2.8000031,0
	c17.6000061,0,35.1999969,0,52.8000031,0c1.1000061,0,2.1000061-0.1999969,3.1000061-0.3000031
	C198.1999969,156.3999939,198.1999969,151.8999939,198.1999969,147.1000061z"/>
<path class="st1" d="M-47-333.2999878C-48.0999985-333.1999817-49-333-49.9000015-333
	c-8.2000008,0-16.2999954,0.1000061-24.5,0.1000061c-1.8000031,0-2.1999969-0.3999939-2.1999969-2.2000122
	c0-0.6000061,0-1.2999878,0-1.8999939c0-42.1000061,0-84.2000122,0-126.2000122c0-1,0.4000015-2.2000122-0.9000015-3.2999878
	c-25.5,30.7999878-51,61.6000061-76.6000061,92.6000061c-25.6000061-31.1000061-51-61.7999878-76.3999939-92.8000183
	c-0.3000031,0.6000061-0.6000061,0.8999939-0.6999969,1.2999878c-0.1000061,0.7000122-0.1000061,1.3999939-0.1000061,2.2000122
	c0,42.3999939,0,84.7999878,0,127.2000122c0,0.3999939,0,0.7999878,0,1.2000122c-0.1000061,1.5-0.5,2-2,2
	c-2.1999969,0-4.5-0.1000061-6.6999969-0.1000061c-6,0-12,0-18,0c-2.3999939,0-2.7999878-0.2999878-2.7999878-2.7000122
	c0-69.8999939,0-139.8000183,0-209.6999817c0-0.5,0-1.0999756,0-2.0999756
	C-260-546.6999512-259.3999939-546.2999878-259-545.7999878c4.1000061,4.9000244,8.1999969,9.9000244,12.3000031,14.9000244
	c4.3000031,5.2999878,8.6999969,10.5,13,15.7999878c3.6999969,4.5,7.3999939,9.1000061,11.1000061,13.6000061
	c2.1000061,2.6000061,4.3000031,5.1000061,6.5,7.6000061c2.6999969,3.2999878,5.3999939,6.6000061,8.1999969,9.8999939
	c3.6999969,4.5,7.3999939,8.8999939,11,13.3999939c3.6000061,4.2999878,7.1000061,8.7000122,10.6999969,13.1000061
	c6.3000031,7.7000122,12.6000061,15.2999878,18.8999939,23c3.8000031,4.6000061,7.6000061,9.2000122,11.3999939,13.7999878
	c0,0.1000061,0.1000061,0.2000122,0.1000061,0.2000122c1.6999969,1.8999939,1.8999939,2.1000061,3.6000061,0
	c1.6999969-2,3.3000031-4.1000061,5-6.1000061c4.6000061-5.6000061,9.1999969-11.1000061,13.8000031-16.6000061
	c4.5-5.3999939,9-10.8999939,13.5-16.2999878c5.4000015-6.5,10.6999969-12.8999939,16.0999985-19.3999939
	c4.4000015-5.2999878,8.8000031-10.7000122,13.1999969-16c3.6999969-4.5,7.5-9,11.3000031-13.5
	c6.9000015-8.2999878,13.8000031-16.5999756,20.5999985-24.9000244c3.4000015-4.2000122,6.7999992-8.4000244,10.2000008-12.5
	c0.2999992-0.4000244,0.7999992-0.7000122,1.2000008-1.0999756c0.0999985,0,0.2000008,0.0999756,0.2000008,0.0999756
	c0.0999985,0,0.0999985,0.0999756,0.0999985,0.2000122c0,70.5,0.0999985,140.8999939,0.0999985,211.3999939
	C-47-334.7999878-47-334.2000122-47-333.2999878z"/>
<path class="st1" d="M-709.7999878-333.2000122c0-71.5,0-142.5,0-214.2000122c2.0999756,2.5,3.9000244,4.5,5.5999756,6.5999756
	c4.4000244,5.4000244,8.7999878,10.7999878,13.2000122,16.2000122c7,8.5999756,14.0999756,17.2000122,21.2000122,25.7000122
	c4.4000244,5.2999878,8.9000244,10.6000061,13.2000122,15.8999939c4.7000122,5.7000122,9.4000244,11.6000061,14.0999756,17.2999878
	c4.2999878,5.2000122,8.5999756,10.3999939,12.9000244,15.6000061c3.9000244,4.7000122,7.7000122,9.5,11.5999756,14.2000122
	c1.9000244,2.2999878,3.9000244,4.6000061,5.9000244,6.8999939c2.2999878,2.7999878,4.5999756,5.6000061,6.9000244,8.3999939
	c1.2999878,1.6000061,1.9000244,1.6000061,3.2000122,0.1000061c3.4000244-4.1000061,6.7999878-8.3999939,10.2000122-12.5
	c4.5-5.3999939,9.0999756-10.7999878,13.5999756-16.2000122c3.2000122-3.7999878,6.2999878-7.7000122,9.5-11.5
	c4.7000122-5.7000122,9.5-11.2999878,14.2000122-17c5.9000244-7.1000061,11.5999756-14.2000122,17.5-21.2999878
	c5.2000122-6.2999878,10.5-12.5,15.7000122-18.6999817c4.0999756-4.9000244,8.0999756-9.7999878,12.1000061-14.5999756
	c3-3.5999756,6-7.2000122,9-10.7999878c1.1000061-1.2999878,2.2000122-2.7000122,3.6000061-4.4000244
	c0.1000061,1.0999756,0.2000122,1.5999756,0.2000122,2.0999756c0,69.8999939,0,139.7999878,0,209.7000122
	c0,2.7000122-0.2000122,2.7999878-2.8999939,2.7999878c-8,0-16.0000305,0-24.0000305,0
	c-0.5999756,0-1.2000122,0.2000122-1.7000122,0s-0.9000244-0.7999878-1.2000122-1.2999878
	c-0.2000122-0.3999939,0-0.8999939,0-1.3999939c0-42.5,0-84.8999939,0-127.3999939c0-1,0-2,0-3.2999878
	c-1.2999878,0.2999878-1.7000122,1-2.2999878,1.6000061c-4.5,5.5-9.0999756,11-13.5999756,16.5
	c-5.4000244,6.5-10.7999878,12.8999939-16.0999756,19.3999939c-4.4000244,5.2999878-8.7999878,10.7000122-13.2000122,16
	c-4.9000244,5.8999939-9.7999878,11.7999878-14.7000122,17.7000122c-5.4000244,6.5-10.7000122,13.1000061-16.0999756,19.7000122
	c-0.4000244,0.5-0.9000244,0.7999878-1.5,1.2999878c-25.4000244-30.8999939-50.7000122-61.5-76.2000122-92.3999939
	c-0.2999878,0.6000061-0.5,0.8999939-0.5,1.2999878c-0.0999756,0.7000122-0.0999756,1.3999939-0.0999756,2.2000122
	c0,42.6000061,0,85.1000061,0,127.6999817c0,2.2999878-0.2000122,2.6000061-2.2999878,2.6000061c-8,0-16,0-24-0.1000061
	C-707.5999756-333-708.5999756-333.1000061-709.7999878-333.2000122z"/>
<path class="st1" d="M-377.7999878-547.5c1.6000061,3.5,3.1000061,6.7000122,4.5,9.7999878
	c2.2000122,4.7999878,4.2999878,9.7000122,6.5,14.5999756c2.2000122,5,4.5,10,6.7999878,15
	c3.2000122,7.1000061,6.5,14.1000061,9.7000122,21.1000061c2.7999878,6.1000061,5.3999939,12.2999878,8.2000122,18.3999939
	c2.5,5.5,5,11,7.5,16.3999939s4.8999939,10.7999878,7.3999939,16.2000122c4.1000061,9.2000122,8.2000122,18.2999878,12.3999939,27.5
	c2.7999878,6.2999878,5.7000122,12.5,8.6000061,18.7999878c2.6000061,5.7000122,5.2000122,11.3999939,7.7999878,17.1000061
	c3.5,7.8999939,7,15.7999878,10.6000061,23.7000122c2.2000122,4.7999878,4.3999939,9.5,6.6000061,14.2000122
	c0.5,1.1000061,0.2000122,1.7000122-1.2999878,1.7000122c-2.3999939,0-4.7999878,0-7.2000122,0
	c-7.1000061,0-14.2000122-0.1000061-21.3999939,0.1000061c-2.1000061,0-3.1000061-0.7999878-3.7999878-2.5
	c-2.7000122-6.3999939-5.3999939-12.8999939-8.1000061-19.2999878c-2.2000122-5.1000061-4.3999939-10.2000122-6.6000061-15.2999878
	c-0.5-1.1000061-1-2.2000122-1.2999878-3.2999878c-0.5-1.5-1.3999939-2-2.8999939-1.8999939c-0.5,0-1,0-1.3999939,0
	c-29.2000122,0-58.3999939,0-87.6000061,0c-0.6000061,0-1.1000061,0-1.7000122,0c-1.2999878,0-2.1000061,0.6000061-2.5,1.7999878
	c-2.2999878,5.6000061-4.6000061,11.2999878-7,16.8999939c-3,7.1000061-5.8999939,14.2000122-9.1000061,21.2000122
	c-1.2000122,2.7000122-1.1000061,2.6000061-3.8999939,2.5c-8.8999939-0.1000061-17.7999878,0-26.6000061,0
	c-0.7999878,0-1.6000061,0.2999878-2.1000061-0.7999878c4-8.7000122,8-17.5,12-26.2999878
	c2.6000061-5.6000061,5.2000122-11.2000122,7.7000122-16.7999878c3-6.6000061,6-13.2999878,9-19.8999939
	c4-8.8999939,8.1000061-17.7000122,12.1000061-26.6000061c3-6.5,5.8999939-13.1000061,8.8999939-19.7000122
	c4-8.7999878,8-17.6000061,12-26.3999939c4-8.6000061,7.8999939-17.2999878,11.8999939-25.8999939
	c2.3999939-5.2999878,4.8999939-10.7000122,7.2999878-16c2.3999939-5.3000183,4.8999939-10.6999817,7.2999878-16.0000305
	c2.7999878-6.0999756,5.6000061-12.2000122,8.3999939-18.2999878
	C-378.7999878-546.2000122-378.2999878-546.7000122-377.7999878-547.5z M-340-396.6000061
	c-0.2000122-0.8999939-0.2999878-1.6000061-0.6000061-2.2999878C-343-404.5-345.5-410.1000061-347.8999939-415.6000061
	c-2.7999878-6.6000061-5.6000061-13.2999878-8.5-19.8999939c-3.7000122-8.5-7.3999939-17-11-25.5
	c-3.1000061-7.1000061-6.2000122-14.2000122-9.2999878-21.2999878c-0.6000061-1.2999878-1.2000122-2.6000061-1.7999878-3.7000122
	c-1.1000061-0.1000061-1.3999939,0.5-1.7000122,1.2000122c-1,2.7000122-2.1000061,5.2999878-3.2000122,7.8999939
	c-2.2000122,5.2000122-4.6000061,10.2999878-6.7999878,15.5c-2.5,5.7999878-4.8999939,11.7000122-7.2999878,17.5
	c-3.5,8.2999878-7.1000061,16.6000061-10.7000122,24.8999939c-2.6000061,6-5.2999878,12.1000061-7.7000122,18.2000122
	c-0.5,1.2999878-1.8999939,2.5-1,4.3999939C-391.3999939-396.6000061-365.8999939-396.6000061-340-396.6000061z"/>
<path class="st1" d="M71.5-547.5999756c1.1999969,2.5,2.1999969,4.7000122,3.1999969,6.9000244
	c2.5999985,5.5999756,5.0999985,11.2999878,7.5999985,16.9000244c2.5,5.5999756,5,11.2999878,7.5,16.8999939
	c2.6999969,6.1000061,5.5,12.1000061,8.1999969,18.2000122c3.1999969,7.1000061,6.5,14.1000061,9.6999969,21.2000122
	c3.0999985,6.7999878,6.0999985,13.6000061,9.0999985,20.3999939c2.8000031,6.2999878,5.8000031,12.5,8.5999985,18.7000122
	c4.0999985,9.1000061,8.0999985,18.2000122,12.2999954,27.2999878c3.3000031,7.2000122,6.6999969,14.3999939,9.8999939,21.6000061
	c3.8000031,8.3999939,7.5,16.7999878,11.1999969,25.2000122c2.6999969,6.1000061,5.5,12.2999878,8.3000031,18.3999939
	c0.3999939,0.7999878,0.8999939,1.6000061,1.6000061,2.7000122c-0.8999939,0.1000061-1.3999939,0.2999878-2,0.2999878
	c-9.6999969,0-19.3999939,0-29,0c-1.5,0-2.3000031-0.3999939-3-2c-3.1000061-7.5-6.3999939-14.8999939-9.5-22.2999878
	c-2.1999969-5.1000061-4.1999969-10.2000122-6.4000015-15.2999878c-1.0999985-2.6000061-1.1999969-2.7000122-4.0999985-2.7000122
	c-29.5999985,0-59.2000008,0-88.8000031,0c-1.7000008,0-2.7999992,0.5-3.5,2.2000122
	c-2.1000004,5.2999878-4.3999996,10.5-6.6999998,15.7999878c-3.3000002,7.6000061-6.5999994,15.1000061-9.8000002,22.7000122
	c-0.5999999,1.3999939-1.3000002,1.7999878-2.7,1.7999878c-4.6999998-0.1000061-9.3999996-0.1000061-14.1999998-0.1000061
	c-4.5,0-9,0-13.3999996,0c-1.8999996,0-2.2999992-0.6000061-1.6000004-2.2999878
	c3.6000004-7.7999878,7.1000004-15.6000061,10.6999998-23.3999939c3-6.5,5.9000006-12.8999939,8.8999996-19.3999939
	c2.4000001-5.2999878,4.8000002-10.5,7.1999998-15.7999878c2.5999999-5.7000122,5.1999998-11.3999939,7.8000002-17.1000061
	c3.0999994-6.7999878,6.0999994-13.5,9.1999998-20.2999878c3-6.6000061,6-13.2999878,9.1000004-19.8999939
	c3.8999996-8.6000061,7.9000015-17.1000061,11.7999992-25.6000061c4.5-9.8999939,9.1000023-19.7000122,13.6000023-29.6000061
	c3.5-7.6999817,7-15.4999695,10.5-23.1999817c2.5999985-5.5999756,5.1999969-11.2000122,7.8000031-16.7999878
	C71-546.5999756,71.1999969-546.9000244,71.5-547.5999756z M109.1999969-396.5c-0.1999969-1-0.3000031-1.7999878-0.5999985-2.5
	c-1.4000015-3.2999878-3-6.7000122-4.4000015-10c-2.3000031-5.2000122-4.5-10.5-6.8000031-15.7000122
	c-2.4000015-5.6000061-5-11.1000061-7.4000015-16.7000122c-2.8000031-6.5-5.4000015-13-8.1999969-19.5
	c-2.9000015-6.7999878-5.9000015-13.7000122-8.9000015-20.5c-0.6999969-1.6000061-1.5-3.2000122-2.5-5.2000122
	c-0.6999969,0.7999878-1.1999969,1.2000122-1.4000015,1.7000122c-2.0999985,4.7999878-4.0999985,9.6000061-6.2000008,14.3999939
	c-1.7000008,4-3.2999992,8-5,12c-2.4000015,5.5-4.7999992,11-7.2000008,16.6000061
	c-1.7000008,3.8999939-3.2999992,7.8999939-5,11.7999878c-2.2000008,5.2000122-4.5,10.2999878-6.7999992,15.5
	c-1.9000015,4.3999939-3.9000015,8.7999878-5.7000008,13.2999878c-0.5999985,1.5-1.8999996,2.7999878-1.2000008,4.7999878
	C57.5999985-396.5,83.0999985-396.5,109.1999969-396.5z"/>
<path class="st1" d="M-2-235.8999939C-1.8-235.2999878-1.6-234.5999908-1.2-234c3.8,6.5,7.6999998,12.8999939,11.6000004,19.3000031
	C14.2000008-208.5,18-202.3000031,21.7000008-196c0.2000008,0.3000031,0.2999992,0.6999969,0.3999996,1.1000061
	C20.3999996-194.2999878,7.1000004-194,2.3999996-194.5c-1.2-2.3000031-2.5-4.6000061-3.8-6.8999939
	C-4-206.0999908-6.5-210.8999939-9.1000004-215.5999908c-3-5.3999939-6-10.8000031-8.8999996-16.3000031
	c-1.1000004-2.1000061-2.3999996-2.8999939-4.7000008-2.6999969c-2.2000008,0.1999969-4.5,0-6.7000008,0.1000061
	c-0.7999992,0-1.6000004,0.1000061-2.5999985,0.1999969c-0.2000008,13.3000031,0,26.5-0.0999985,39.6000061
	c-1.9000015,0.6000061-14,0.6000061-16.5,0.1000061c0-0.6000061-0.0999985-1.1999969-0.0999985-1.8000031
	c0-29.8000031,0-59.6999969,0-89.4999847c0-0.5,0-1,0-1.3999939c-0.0999985-1,0.5-1.5,1.4000015-1.7000122
	c0.5999985-0.1000061,1.2999992-0.1000061,1.9000015-0.1000061c10.2000008,0,20.5-0.2999878,30.7000008,0.1000061
	c5.8999996,0.2000122,11.8999996,0.7000122,17.6000004,2.7000122s10.5,5.2999878,13.6000004,10.6000061
	c2.2000008,3.6000061,3.1000004,7.7000122,3.1000004,11.8999939c0,2.7999878,0,5.6000061-0.6000004,8.3000031
	c-1.7000008,7.6999969-5.6000004,13.8999939-13.3000002,17.1000061C3.3-237.5,0.9-236.8000031-2-235.8999939z M-32-261L-32-261
	c0,3.6000061,0,7.1999969,0,10.8000031c0,1.8000031,0.5,2.1999969,2.2999992,2.3999939c0.3999996,0,0.7999992,0,1.2000008,0
	c5.3999996,0.3999939,10.7999992-0.6000061,16.2000008-0.8999939c3.3000002-0.1999969,6.5999999-0.8999939,9.5-2.8999939
	c1.7-1.1999969,3.0999999-2.6000061,4-4.4999847c1.0999999-2.2999878,0.9000001-4.7000122,0.9000001-7
	C2-267.8999939-1-270.7999878-5-272.3999939c-3-1.2000122-6.5-1.7000122-9.8000002-1.8999939
	c-4.8000002-0.2999878-9.6000013-0.1000061-14.4000006-0.1000061C-31.5-274.3999939-32-273.7999878-32-271.6000061
	C-32-268-32-264.5-32-261z"/>
<path class="st1" d="M-415-251.3999939c0-1.1000061,0-2,0-3C-415-265-415-275.5-415-286.1000061
	c0-2.7999878,0.2000122-3,3-3.1000061c4.5,0,8.8999939,0,13.6000061,0c0.2000122,0.5,0.3999939,1,0.5,1.6000061
	c0.1000061,0.7000122,0,1.3999939,0,2.2000122c0,29.2999878,0,58.5,0,87.8000031c0,0.8999939,0,1.8999939,0,2.8000031
	c-1.8999939,0.6000061-14.3999939,0.6999969-17,0.1000061c0-6.8999939,0-13.8000031,0-20.6999969s0-13.6999969,0-20.8000031
	c-1.2999878-0.1000061-2.2000122-0.1999969-3.1000061-0.1999969c-12.7000122,0-25.3999939,0-38.2000122,0
	c-3,0-3.2000122,0.1999969-3.2000122,3.1000061c0,12.1000061,0,24.1999969,0,36.1999969c0,0.8000031,0,1.6000061,0,2.3000031
	c-1.8999939,0.6000061-13.7000122,0.6999969-16.2999878,0.1999969c-0.6000061-2.3000031-0.5-92.5,0.2000122-94.5
	c2.2000122,0,4.5,0,6.7999878,0c2.2000122,0,4.5,0,6.7000122,0c2.2999878,0,2.6000061,0.2999878,2.6000061,2.7000122
	c0,10.3999939,0,20.7999878,0,31.1999969c0,0.6999969,0,1.3999939,0,2.1999969c0.1000061,1.6999969,0.2999878,1.8999939,2,1.8999939
	c13.6000061,0,27.2000122,0,40.7999878,0C-416.2000122-251.1999969-415.7999878-251.3000031-415-251.3999939z"/>
<path class="st1" d="M-73.5-273.6000061c-15,0-30.0999985,0-45.4000015,0
	C-119-272.5-119.0999985-271.7000122-119.0999985-270.8000183c0,5.8999939,0,11.7999878,0,17.8000031
	c0,2.8000031,0.0999985,2.8000031,2.8000031,2.8000031c9.9000015,0,19.7999954-0.1000061,29.7999954,0
	c3.5,0,7-0.6000061,10.4000015,0.5c1.3000031,3.3999939,0.3000031,6.8999939,0.5999985,10.3999939
	c0.0999985,1.1999969,0,2.3999939,0,3.8000031c-1.3000031,0.1000061-2.5,0.1999969-3.6999969,0.1999969
	c-11.9000015,0-23.8000031,0-35.8000031,0c-4.0999985,0-4.1999969,0-4.1999969,4.1000061c0,6.6000061,0,13.1000061,0,19.6999969
	c0,2.6999969,0.0999985,2.8999939,2.9000015,2.8999939c14.1999969,0,28.2999954,0,42.5,0
	c1.0999985,0,2.1999969,0.1000061,3.3000031,0.1999969c0,1.1000061,0,2,0,2.8999939c0,2.6999969-0.0999985,5.3999939,0,8.1999969
	c0.1999969,4.1000061,0.0999985,3.8000031-3.6999969,3.8000031c-19.4000015,0-38.9000015,0-58.2999954,0c-0.5,0-1,0-1.3999939,0
	c-1.1000061,0.1000061-1.6000061-0.6000061-1.6000061-1.6000061c0-0.6000061,0-1.1000061,0-1.6999969
	c0-29.6000061,0-59.1999969,0-88.8000031c0-0.5,0-1,0-1.3999939c0.1000061-1.7000122,0.5-2.1000061,2.1999969-2.1000061
	c0.3999939,0,0.8000031,0,1.1999969,0c18.9000015,0,37.8000031,0,56.5999985,0c0.5999985,0,1.3000031,0,1.8000031,0
	C-72.8000031-287.2000122-72.6999969-276.1000061-73.5-273.6000061z"/>
<path class="st1" d="M-355.8999939-273.5c0,7.7999878,0,15.2999878,0,23.1000061
	c1.2000122,0.1000061,2.2000122,0.1999969,3.2000122,0.1999969c12.2000122,0,24.5,0,36.7000122,0
	c0.6000061,0,1.1000061,0,1.7000122,0c1,0,1.6000061,0.5,1.6000061,1.3999939c0,4.3999939,0,8.8000031,0,13.3999939
	c-1.2000122,0.1000061-2.2999878,0.1999969-3.2999878,0.1999969c-12.1000061,0-24.2000122,0-36.2000122,0
	c-3.8999939,0-3.8999939,0-3.8999939,3.8999939c0,6.6000061,0,13.1000061,0,19.6999969c0,3.1000061,0,3.1000061,3,3.1000061
	c14.1000061,0,28.1000061,0,42.2000122,0c1.1000061,0,2.2000122,0.1000061,3.6000061,0.1999969c0,1.8000031,0,3.3999939,0,4.8999939
	c0,2.6000061,0,5.3000031,0,7.8999939c0,1.6999969-0.2999878,1.8999939-2,2c-0.3999939,0-0.7999878,0-1.2000122,0
	c-19.7999878,0-39.5,0-59.2999878,0c-0.6000061,0-1.2999878,0-2.2000122,0
	c-0.1000061-1.1000061-0.2999878-2.1000061-0.2999878-3.1000061c0-16.3000031,0-32.6000061,0-48.8999939
	c0-13.2999878,0-26.6000061,0-39.7999878c0-0.6000061,0-1.2999878,0-1.8999939
	c0.1000061-1.5,0.2999878-1.7999878,1.8999939-1.7999878c0.3999939,0,0.7999878,0,1.2000122,0c18.5,0,36.8999939,0,55.3999939,0
	c0.5,0,1,0,1.3999939,0c1.7999878,0.1000061,2.1000061,0.3999939,2.1000061,2.1000061c0,3.6000061,0,7.2000122,0,10.7999878
	c0,2.3999939-0.1000061,2.5-2.6000061,2.5c-13.2999878,0-26.6000061,0-39.7999878,0
	C-353.6000061-273.7000122-354.7000122-273.6000061-355.8999939-273.5z"/>
<path class="st1" d="M-564.2000122-204.8999939c3.7999878-3.6999969,7.4000244-7.1999969,11-10.6999969
	c1.0999756-1.1000061,1.4000244-1.1000061,2.4000244,0.1999969c2.7999878,3.6999969,6.5999756,5.8000031,10.9000244,7.3000031
	c3.5,1.3000031,7.2000122,1.1999969,10.5999756,0.6000061c3.5-0.6000061,6.7999878-2,9.5-4.6999969
	c5.2999878-5.3000031,5.0999756-13.8000031-1.7999878-18.1999969c-2.5999756-1.6999969-5.4000244-3-8.2999878-4
	c-5.4000244-1.8999939-10.9000244-3.8000031-16.2000122-6c-5.7000122-2.3999939-9.9000244-6.3999939-12.5-12.1000061
	c-0.7999878-1.8000031-1.2000122-3.8000031-1.7000122-5.6999969c-0.5999756-2.2000122-0.7999878-4.3999939-0.7000122-6.6000061
	c0.2999878-6.3999939,2.5-12,6.9000244-16.7999878c4.2999878-4.6000061,9.5-7.5,15.5999756-9
	c4.4000244-1.1000061,8.7999878-2,13.4000244-1.8999939c4.2000122,0,8.2000122,0.8999939,12.2000122,1.8999939
	c4.7999878,1.1000061,8.8999939,3.6000061,12.7000122,6.6000061c0.2999878,0.2000122,0.6000061,0.5,1.1000061,1
	c-0.3999939,0.7000122-0.7000122,1.3999939-1.2000122,1.8999939c-3,3.5-6.1000061,6.8999939-9.1000061,10.2999878
	c-0.2999878,0.2999878-0.6000061,0.5-0.8999939,0.7999878c-0.7000122,0.7000122-1.2999878,0.7999878-1.9999695,0
	c-2.0999756-2.5-4.7999878-4.1000061-7.9000244-5c-4.0999756-1.2999878-8.2999878-1.7999878-12.7000122-0.7999878
	c-2.2999878,0.5-4.4000244,1.2000122-6.2999878,2.6000061c-2.2000122,1.7000122-3.7000122,3.7999878-4.2999878,6.6000061
	c-1.0999756,4.7000122,0.7999878,8.7999878,4.7999878,11.1999969c3.5999756,2.1999969,7.4000244,3.8000031,11.5,5.1000061
	c4.7000122,1.5,9.4000244,2.6999969,13.9000244,4.8999939c5.7999878,2.8999939,10,7.1999969,12.7999878,13
	c0.5,1.1000061,0.7999878,2.3000031,1,3.3999939c0.8999939,7.8999939,1,15.8000031-3.7000122,22.8999939
	c-3.8999939,5.8999939-9.2999878,9.6999969-16.0999756,11.8999939c-4.0999756,1.3999939-8.4000244,1.8000031-12.5999756,2.3000031
	c-1.4000244,0.1999969-2.9000244-0.1000061-4.2999878-0.1999969c-1-0.1000061-1.9000244-0.1999969-2.9000244-0.3000031
	c-6.5-0.6999969-12.7000122-2.1999969-18.2000122-5.8999939C-559.5999756-200.1000061-562.2000122-202-564.2000122-204.8999939z"/>
<path class="st1" d="M-181.8000031-194.5c-4.3000031,0.5-15,0.3000031-16.8000031-0.1999969c0-1.1000061,0-2.1999969,0-3.3000031
	c0-24.1000061,0-48.3000031,0-72.3999939c0-0.2000122,0-0.5,0-0.7000122
	c-0.1000061-2.8999939-0.3000031-3.2000122-3.1000061-3.2000122c-7.5,0-15,0-22.5,0c-0.6000061,0-1.3000031,0-1.8999939,0
	c-0.8999939-0.1000061-1.5-0.6000061-1.5-1.5c0-3.7999878,0-7.7000122,0-11.5c0-1.5,0.5-1.7999878,1.8999939-1.8999939
	c0.5,0,1,0,1.3999939,0c22.6999969,0,45.3999939,0,68.1000061,0c0.8999939,0,1.8999939,0,2.6999969,0
	c0.6000061,2,0.6999969,11.7000122,0.1999969,14.7999878c-0.8999939,0.1000061-1.8000031,0.2000122-2.6999969,0.2000122
	c-7.3999939,0-14.6999969,0-22.1000061,0c-0.6000061,0-1.1000061,0-1.6999969,0
	c-1.3999939,0.1000061-2,0.7000122-2.1000061,2.1000061c-0.1000061,0.7000122,0,1.3999939,0,2.2000122
	c0,24.1000061,0,48.3000031,0,72.3999939C-181.8000031-196.6000061-181.8000031-195.6000061-181.8000031-194.5z"/>
<path class="st1" d="M-224.3000031-208.6999969c0,4.8000031,0,9.3999939,0,14.1999969
	c-1,0.1000061-2.1000061,0.3000031-3.1000061,0.3000031c-17.6000061,0-35.1999969,0-52.8000031,0
	c-0.8999939,0-1.7000122,0-2.7999878,0c-0.1000061-1-0.2000122-1.8000031-0.2000122-2.6000061
	c0-29.8000031,0-59.5999908,0-89.4999847c0-0.3999939,0-0.7999878,0-1.2000122c0-1.2000122,0.5-1.7000122,1.7999878-1.7000122
	c4.6000061,0,9.1000061,0,13.6000061,0c1,0.8999939,0.7000122,2.1000061,0.7000122,3.2000122c0,11.7999878,0,23.7000122,0,35.5
	c0,12.6999969,0,25.3999939,0,38.1000061c0,0.6000061,0,1.1000061,0,1.6999969c0,1,0.6000061,1.5,1.5,1.6000061
	c0.7999878,0.1000061,1.6000061,0.1000061,2.3999939,0.1000061c11.8000031,0,23.6999969,0,35.5,0
	C-226.6000061-209-225.5-208.8000031-224.3000031-208.6999969z"/>
<path class="st0" d="M82.5999985-40.7999992c-25.9000015,0-51.4000015,0-76.9000015,0
	c-0.9000001-1.9000015,0.5-3.0999985,1-4.4000015c2.5-6.0999985,5.1000004-12.1000023,7.6999998-18.2000008
	C17.9999962-71.7000046,21.4999962-80,25.0999966-88.3000031c2.5-5.8000031,4.8000011-11.6999969,7.3000011-17.5
	c2.2000008-5.1999969,4.5999985-10.3000031,6.7999992-15.5c1.0999985-2.5999985,2.2000008-5.3000031,3.2000008-7.8999939
	c0.2999992-0.6999969,0.5-1.3000031,1.7000008-1.1999969c0.5999985,1.1999969,1.2000008,2.4000015,1.7999992,3.6999969
	c3.0999985,7.0999985,6.2000008,14.1999969,9.2999992,21.3000031c3.7000008,8.5,7.4000015,17,11,25.5
	c2.8000031,6.5999985,5.5999985,13.3000031,8.5,19.9000015C77.0999985-54.3999939,79.5999985-48.7999916,82-43.2999916
	C82.3000031-42.4000015,82.4000015-41.7000008,82.5999985-40.7999992z"/>
<path class="st0" d="M531.7000122-40.7000008c-26,0-51.6000061,0-77.2000122,0
	C453.7999878-42.6000023,455.1000061-44,455.7000122-45.5C457.5-50,459.5-54.4000015,461.4000244-58.7999992
	c2.2000122-5.2000008,4.5-10.2999992,6.7999878-15.5000038c1.7000122-3.9000015,3.2999878-7.9000015,5-11.8000031
	c2.3999939-5.5,4.7999878-11,7.2000122-16.5999985c1.7000122-4,3.2999878-8,5-12
	c2-4.8000031,4.1000061-9.5999985,6.2000122-14.4000015c0.2000122-0.5,0.7000122-0.8999939,1.3999939-1.6999969
	c1,2,1.7999878,3.5999985,2.5,5.1999969c3,6.8000031,6,13.5999985,8.8999939,20.5c2.7999878,6.5,5.3999939,13,8.2000122,19.5
	c2.4000244,5.5999985,4.9000244,11.0999985,7.4000244,16.6999969c2.2999878,5.2000008,4.5,10.5,6.7999878,15.7000008
	c1.5,3.2999992,3,6.7000008,4.4000244,10C531.4000244-42.5999985,531.5-41.7999992,531.7000122-40.7000008z"/>
<path class="st0" d="M390.6000061,94.8000031c0-3.5,0-7,0-10.5999985c0-2.3000031,0.6000061-2.8000031,2.7999878-2.8000031
	c4.7999878,0,9.6000061-0.1999969,14.3999939,0.0999985c3.2999878,0.1999969,6.7999878,0.5999985,9.7999878,1.9000015
	c3.8999939,1.5999985,7,4.5,7.1000061,9.3000031c0.1000061,2.4000015,0.2000122,4.6999969-0.8999939,7
	c-0.8999939,2-2.2999878,3.3000031-4,4.5c-2.8999939,1.9000015-6.1000061,2.6999969-9.5,2.9000015
	c-5.3999939,0.3000031-10.7999878,1.3000031-16.2000122,0.9000015c-0.3999939,0-0.7999878,0-1.2000122,0
	c-1.7999878-0.1999969-2.2999878-0.5999985-2.2999878-2.4000015C390.6000061,102,390.6000061,98.4000015,390.6000061,94.8000031
	L390.6000061,94.8000031z"/>
<polygon class="st2" points="349.9710999,293.4491272 324.6711121,317.6491089 299.2710876,293.4491272 273.9710999,317.6491089 
	248.5710754,293.4491272 215.0710754,325.4491272 223.2710876,333.9491272 248.5710754,309.6491089 273.9710999,333.9491272 
	299.2710876,309.6491089 324.6711121,333.9491272 358.071106,301.9491272 "/>
<polygon class="st2" points="349.9710999,254.9491425 324.6711121,279.1491089 299.2710876,254.9491425 273.9710999,279.1491089 
	248.5710754,254.9491425 215.0710754,286.8491211 223.2710876,295.3491211 248.5710754,271.1491089 273.9710999,295.3491211 
	299.2710876,271.1491089 324.6711121,295.3491211 358.071106,263.4491272 "/>
</svg>
