<?xml version="1.0" encoding="utf-8"?>
<!-- Generator: Adobe Illustrator 20.1.0, SVG Export Plug-In . SVG Version: 6.00 Build 0)  -->
<svg version="1.1" id="Layer_1" xmlns="http://www.w3.org/2000/svg" xmlns:xlink="http://www.w3.org/1999/xlink" x="0px" y="0px"
	 viewBox="0 0 138 112" style="enable-background:new 0 0 138 112;" xml:space="preserve">
<style type="text/css">
	.st0{clip-path:url(#SVGID_2_);}
	.st1{clip-path:url(#SVGID_4_);}
	.st2{clip-path:url(#SVGID_6_);}
	.st3{clip-path:url(#SVGID_8_);}
	.st4{clip-path:url(#SVGID_10_);}
	.st5{clip-path:url(#SVGID_12_);}
	.st6{clip-path:url(#SVGID_14_);}
	.st7{clip-path:url(#SVGID_16_);}
	.st8{clip-path:url(#SVGID_18_);}
	.st9{display:none;}
	.st10{display:inline;}
	.st11{display:inline;clip-path:url(#SVGID_20_);}
	.st12{enable-background:new    ;}
	.st13{clip-path:url(#SVGID_22_);}
	.st14{clip-path:url(#SVGID_25_);}
	.st15{clip-path:url(#SVGID_26_);}
	.st16{font-family:'Georgia';}
	.st17{font-size:11px;}
	.st18{clip-path:url(#SVGID_28_);}
</style>
<g>
	<defs>
		<rect id="SVGID_1_" width="138.3" height="111.6"/>
	</defs>
	<clipPath id="SVGID_2_">
		<use xlink:href="#SVGID_1_"  style="overflow:visible;"/>
	</clipPath>
	<path class="st0" d="M9.8,22.6c0,3.8,2.4,4.5,3.4,4.5c2,0,3.2-1.6,3.2-3.2c0-1.7-1.4-2.3-6.4-4.4c-2.3-0.9-8-3.2-8-9.4
		C1.9,3.5,7.9,0,13.4,0c4.5,0,10.9,2.3,11.1,10.2h-8.3C16,9.1,15.7,7,13.1,7c-1.5,0-2.9,1-2.9,2.6c0,1.5,0.9,1.9,6.8,4.6
		c6.1,2.8,7.7,5.6,7.7,9.4c0,5.2-2.8,10.5-11.5,10.5c-8.6,0-12.1-5.1-11.9-11.5H9.8z"/>
</g>
<g>
	<defs>
		<rect id="SVGID_3_" width="138.3" height="111.6"/>
	</defs>
	<clipPath id="SVGID_4_">
		<use xlink:href="#SVGID_3_"  style="overflow:visible;"/>
	</clipPath>
	<polygon class="st1" points="44.1,20.7 44,0.6 52,0.6 52,33.5 44.7,33.5 32.1,13.7 32.3,33.5 24.3,33.5 24.3,0.6 31.5,0.6 	"/>
</g>
<g>
	<defs>
		<rect id="SVGID_5_" width="138.3" height="111.6"/>
	</defs>
	<clipPath id="SVGID_6_">
		<use xlink:href="#SVGID_5_"  style="overflow:visible;"/>
	</clipPath>
	<path class="st2" d="M52.1,17.4C52.1,6.7,60.4,0,69.5,0c10.1,0,17.4,7.9,17.4,17.1s-7.2,17.1-17.4,17.1
		C59.1,34.1,52.1,25.9,52.1,17.4C52.1,17.5,52.1,17.4,52.1,17.4z M60.5,17c0,5,3.4,9.7,9.1,9.7c6,0,8.8-5.4,8.8-9.6
		c0-4.3-2.9-9.7-8.9-9.7C63.7,7.4,60.5,12.4,60.5,17L60.5,17L60.5,17z"/>
</g>
<g>
	<defs>
		<rect id="SVGID_7_" width="138.3" height="111.6"/>
	</defs>
	<clipPath id="SVGID_8_">
		<use xlink:href="#SVGID_7_"  style="overflow:visible;"/>
	</clipPath>
	<polygon class="st3" points="83.8,0.6 92.3,0.6 96.8,22 101.6,0.6 108.1,0.6 112.9,22.1 117.4,0.6 125.9,0.6 117.2,33.5 
		109.8,33.5 104.8,12.2 99.9,33.5 92.3,33.5 	"/>
</g>
<g>
	<defs>
		<rect id="SVGID_9_" width="138.3" height="111.6"/>
	</defs>
	<clipPath id="SVGID_10_">
		<use xlink:href="#SVGID_9_"  style="overflow:visible;"/>
	</clipPath>
	<path class="st4" d="M24.6,45.5c-0.4-0.8-1-1.6-1.7-2.2c-1.4-1.2-3.2-2-5.5-2c-4.1,0-9,3.1-9,9.6c0,6.9,4.9,9.9,9,9.9
		c2.1,0,3.8-0.5,5.2-1.5c1.3-0.9,2.3-2.2,2.7-3.8h-9.8v-6.7H35c0.2,2.4-0.1,6.2-1.5,9.4c-3.2,7.2-10.6,10-16,10
		C7.5,68,0,60.3,0,50.8C0,41,7.9,33.9,17.6,33.9c7.9,0,14.6,5.3,16.4,11.6C34,45.5,24.6,45.5,24.6,45.5z"/>
</g>
<g>
	<defs>
		<rect id="SVGID_11_" width="138.3" height="111.6"/>
	</defs>
	<clipPath id="SVGID_12_">
		<use xlink:href="#SVGID_11_"  style="overflow:visible;"/>
	</clipPath>
	<polygon class="st5" points="35.1,34.5 43.5,34.5 43.5,60 53.3,60 53.3,67.4 35.1,67.4 	"/>
</g>
<g>
	<defs>
		<rect id="SVGID_13_" width="138.3" height="111.6"/>
	</defs>
	<clipPath id="SVGID_14_">
		<use xlink:href="#SVGID_13_"  style="overflow:visible;"/>
	</clipPath>
	<path class="st6" d="M48.9,51.3c0-10.8,8.3-17.4,17.3-17.4c10.1,0,17.4,7.9,17.4,17.1S76.4,68,66.2,68C55.8,68,48.9,59.8,48.9,51.3
		C48.9,51.3,48.9,51.3,48.9,51.3z M57.3,50.9c0,5,3.4,9.7,9.1,9.7c6,0,8.8-5.4,8.8-9.6c0-4.3-2.9-9.7-8.9-9.7
		C60.5,41.2,57.3,46.2,57.3,50.9L57.3,50.9L57.3,50.9z"/>
</g>
<g>
	<defs>
		<rect id="SVGID_15_" width="138.3" height="111.6"/>
	</defs>
	<clipPath id="SVGID_16_">
		<use xlink:href="#SVGID_15_"  style="overflow:visible;"/>
	</clipPath>
	<path class="st7" d="M83.7,34.5h12.1c3.4,0,6.1,0.8,8,2.2c1.9,1.4,2.9,3.6,2.9,6.4c0,2.5-1.2,5.1-3.8,6.6c5.3,1.9,5.4,6.3,5.4,7.6
		c0,2.6-1,5.5-3,7.2c-3,2.5-5.2,2.8-10.8,2.8H83.7V34.5z M92.1,47h3c0.6,0,1.5,0,2.2-0.3c0.8-0.4,1.3-1,1.3-2.3
		c0-1.2-0.6-1.9-1.3-2.2c-0.7-0.3-1.6-0.3-2.3-0.3h-3C92.1,41.9,92.1,47,92.1,47z M92.1,60h4c0.5,0,1.6,0,2.5-0.4
		c0.9-0.4,1.7-1.2,1.7-2.8c0-1.4-0.7-2.1-1.6-2.5C97.8,54,96.7,54,96.1,54h-4L92.1,60L92.1,60z"/>
</g>
<g>
	<defs>
		<rect id="SVGID_17_" width="138.3" height="111.6"/>
	</defs>
	<clipPath id="SVGID_18_">
		<use xlink:href="#SVGID_17_"  style="overflow:visible;"/>
	</clipPath>
	<polygon class="st8" points="108,34.5 126.6,34.5 126.6,41.9 116.4,41.9 116.4,47 126.3,47 126.3,54.3 116.4,54.3 116.4,60 
		126.6,60 126.6,67.4 108,67.4 	"/>
</g>
<g class="st9">
	<defs>
		<rect id="SVGID_19_" width="138.3" height="111.6"/>
	</defs>
	<clipPath id="SVGID_20_" class="st10">
		<use xlink:href="#SVGID_19_"  style="overflow:visible;"/>
	</clipPath>
	<g class="st11">
		<g>
			<g class="st12">
				<defs>
					<rect id="SVGID_21_" x="10.5" y="72.6" class="st12" width="127.8" height="39"/>
				</defs>
				<clipPath id="SVGID_22_">
					<use xlink:href="#SVGID_21_"  style="overflow:visible;"/>
				</clipPath>
				<g class="st13">
					<g class="st12">
						<g>
							<defs>
								<rect id="SVGID_23_" x="10.5" y="72.6" width="127.8" height="39"/>
							</defs>
							<defs>
								<rect id="SVGID_24_" x="10.5" y="72.6" width="127.8" height="39"/>
							</defs>
							<clipPath id="SVGID_25_">
								<use xlink:href="#SVGID_23_"  style="overflow:visible;"/>
							</clipPath>
							<clipPath id="SVGID_26_" class="st14">
								<use xlink:href="#SVGID_24_"  style="overflow:visible;"/>
							</clipPath>
							<g class="st15">
								<text transform="matrix(1 0 0 1 10.5488 81.8809)" class="st16 st17">Webmarketing Consulting</text>
							</g>
							<g class="st15">
								<text transform="matrix(1 0 0 1 10.5488 95.0811)" class="st16 st17">Search, Social, Display</text>
							</g>
						</g>
					</g>
				</g>
			</g>
			<g>
				<defs>
					<rect id="SVGID_27_" width="138.3" height="111.6"/>
				</defs>
				<clipPath id="SVGID_28_">
					<use xlink:href="#SVGID_27_"  style="overflow:visible;"/>
				</clipPath>
				<polygon class="st18" points="5.8,79.1 0.2,74.9 0.2,74.9 0.2,83.3 0.2,83.3 				"/>
			</g>
		</g>
	</g>
</g>
</svg>
