<?xml version="1.0" encoding="utf-8"?>
<!-- Generator: Adobe Illustrator 20.1.0, SVG Export Plug-In . SVG Version: 6.00 Build 0)  -->
<svg version="1.1" id="Layer_1" xmlns="http://www.w3.org/2000/svg" xmlns:xlink="http://www.w3.org/1999/xlink" x="0px" y="0px"
	 viewBox="0 0 406 176" style="enable-background:new 0 0 406 176;" xml:space="preserve">
<style type="text/css">
	.st0{display:none;fill:#FFFFFF;}
	.st1{fill:#C4C4C4;}
</style>
<path class="st0" d="M-298.7999878,235.3999939c0-166.6999969,0-333.3999939,0-500.2000122c300.2000122,0,600.2999878,0,900.5,0
	c0,166.6999969,0,333.3999939,0,500.2000122C301.5,235.3999939,1.3,235.3999939-298.7999878,235.3999939z M375.5,22.5
	c0-0.8999996,0-1.5,0-2.1000004c0-70.5-0.1000061-140.8999939-0.1000061-211.3999939
	c0-0.1000061-0.1000061-0.1000061-0.1000061-0.1999969c-0.1000061-0.1000061-0.1000061-0.1000061-0.2000122-0.1000061
	c-0.3999939,0.3999939-0.8999939,0.6999969-1.2000122,1.1000061c-3.3999939,4.1999969-6.7999878,8.3999939-10.2000122,12.5
	c-6.8999939,8.3000031-13.7000122,16.6000061-20.6000061,24.8999939c-3.7000122,4.5-7.5,9-11.2999878,13.5
	c-4.3999939,5.3000031-8.7999878,10.6000061-13.2000122,16c-5.3999939,6.5-10.7000122,12.9000015-16.1000061,19.4000015
	c-4.5,5.4000015-9,10.9000015-13.5,16.2999954c-4.6000061,5.5999985-9.2000122,11.0999985-13.7999878,16.5999985
	c-1.7000122,2-3.2000122,4.0999985-5,6.0999985s-1.8999939,1.7999992-3.6000061,0
	c-0.1000061-0.0999985-0.1000061-0.1999969-0.1000061-0.1999969c-3.7999878-4.5999985-7.6000061-9.1999969-11.3999939-13.8000031
	c-6.3000031-7.6999969-12.6000061-15.3000031-18.8999939-23c-3.6000061-4.3000031-7.1000061-8.6999969-10.6999969-13.0999985
	c-3.6999969-4.5-7.3999939-8.9000015-11-13.4000015c-2.6999969-3.3000031-5.3999939-6.6000061-8.1999969-9.8999939
	c-2.1000061-2.6000061-4.3000031-5.1000061-6.5-7.6000061c-3.6999969-4.5-7.3999939-9.1000061-11.1000061-13.6000061
	c-4.3000031-5.3000031-8.6999969-10.5-13-15.8000031c-4.1000061-5-8.1999969-9.8999939-12.3000031-14.8999939
	c-0.3999939-0.5-1-0.8999939-1.8000031-1.6000061c0,1,0,1.6000061,0,2.1000061c0,69.9000015,0,139.8000031,0,209.6999969
	c0,2.3999996,0.3000031,2.7000008,2.8000031,2.7000008c6,0,12,0,18,0c2.1999969,0,4.5,0.1000004,6.6999969,0.1000004
	c1.6000061,0,2-0.3999996,2-2c0-0.3999996,0-0.7999992,0-1.2000008c0-42.4000015,0-84.8000031,0-127.1999969
	c0-0.6999969,0-1.4000015,0.1000061-2.1999969c0.1000061-0.4000015,0.3999939-0.6999969,0.6999969-1.3000031
	c25.5,30.9000015,50.8000031,61.7000008,76.4000092,92.8000031c25.7000122-31,51.1000061-61.7999954,76.6000061-92.5999985
	c1.2999878,1,0.8999939,2.1999969,0.8999939,3.3000031c0,42.0999985,0,84.1999969,0,126.1999969
	c0,0.6000004,0,1.2999992,0,1.8999996c0,1.8999996,0.3999939,2.2000008,2.2000122,2.2000008
	c8.2000122,0,16.2999878,0,24.5-0.1000004C373.5,22.7999992,374.5,22.6000004,375.5,22.5z M-287.2000122,22.6000004
	C-286,22.7000008-285,22.8000011-284,22.8000011c8,0,16,0,24,0.1000004c2.1000061,0,2.2999878-0.2000008,2.2999878-2.6000004
	c0-42.5999985,0-85.0999985,0-127.6999969c0-0.6999969,0-1.4000015,0.1000061-2.1999969
	c0-0.4000015,0.2999878-0.6999969,0.5-1.3000031c25.3999939,30.9000015,50.6999969,61.5999985,76.1999969,92.4000015
	c0.6000061-0.5,1.1000061-0.7999992,1.5-1.2999992c5.3999939-6.6000004,10.6999969-13.1000023,16.1000061-19.7000008
	c4.8999939-5.9000015,9.8000031-11.7999992,14.6999969-17.7000008c4.3999939-5.2999992,8.8000031-10.7000008,13.1999969-16.0000038
	c5.3999939-6.5,10.8000031-12.9000015,16.0999985-19.4000015c4.5999985-5.5,9.0999985-11,13.5999985-16.5
	c0.5-0.6999969,1-1.3000031,2.3000031-1.5999985c0,1.1999969,0,2.3000031,0,3.3000031c0,42.5,0,84.9000015,0,127.4000015
	c0,0.5-0.1999969,1,0,1.3999996c0.1999969,0.5,0.6999969,1.1000004,1.1999969,1.2999992c0.5,0.2000008,1.0999985,0,1.6999969,0
	c8,0,16,0,24,0c2.6999969,0,2.9000015-0.1000004,2.9000015-2.7999992c0-69.9000015,0-139.8000031,0-209.6999969
	c0-0.5-0.0999985-1-0.1999969-2.1000061c-1.4000015,1.8000031-2.5,3.1000061-3.5999985,4.3999939
	c-3,3.6000061-6,7.1999969-9,10.8000031c-4.0999985,4.8999939-8.0999985,9.8000031-12.0999985,14.6000061
	c-5.1999969,6.3000031-10.5,12.5-15.6999969,18.6999969c-5.9000015,7.1000061-11.6999969,14.1999969-17.5000076,21.3000031
	c-4.6999969,5.6999969-9.5,11.3000031-14.1999969,17c-3.1999969,3.8000031-6.3000031,7.6999969-9.5,11.5
	c-4.5,5.4000015-9.1000061,10.6999969-13.6000061,16.1999969c-3.3999939,4.0999985-6.8000031,8.3000031-10.1999969,12.5
	c-1.3000031,1.5-1.8999939,1.5-3.1999969-0.0999985c-2.3000031-2.8000031-4.6000061-5.5999985-6.8999939-8.4000015
	c-1.8999939-2.3000031-3.8999939-4.5999985-5.8999939-6.9000015c-3.8999939-4.6999969-7.6999969-9.5-11.6000061-14.1999969
	c-4.3000031-5.1999969-8.6000061-10.4000015-12.8999939-15.5999985
	c-4.6999969-5.8000031-9.3999939-11.5999985-14.1000061-17.3000031C-238.1999969-132.6999969-242.6999969-138-247-143.2999878
	c-7.1000061-8.6000061-14.1000061-17.1999969-21.2000122-25.6999969
	c-4.3999939-5.3999939-8.7999878-10.8000031-13.2000122-16.1999969c-1.7000122-2.1000061-3.5-4.1000061-5.6000061-6.6000061
	C-287.2000122-119.9000015-287.2000122-48.9000015-287.2000122,22.6000004z M44.7999992-191.6999969
	c-0.5,0.8000031-1,1.3000031-1.2999992,1.8999939c-2.7999992,6.1000061-5.5999985,12.1999969-8.4000015,18.3000031
	c-2.4000015,5.3000031-4.8999996,10.6999969-7.2999992,16S22.8999996-144.8000031,20.5-139.5
	c-4,8.6000061-7.8999996,17.3000031-11.8999996,25.9000015c-4,8.8000031-8,17.5999985-12,26.4000015
	c-3,6.5-5.8999996,13.0999985-8.8999996,19.6999969c-4,8.9000015-8.1000004,17.7000008-12.1000004,26.5999985
	c-3,6.5999985-6,13.2999992-9.0000019,19.8999996C-36-15.4000015-38.6000023-9.8000021-41.1000023-4.2000027
	c-4,8.8000002-8,17.6000004-12,26.2999992c0.4000015,1.1000004,1.2999992,0.7999992,2.0999985,0.7999992
	c8.8999977,0,17.7999992-0.1000004,26.6000004,0c2.7999992,0,2.7000008,0.2000008,3.8999996-2.5
	c3.2000008-7,6.1000004-14.1000004,9.1000004-21.2000008c2.3999996-5.5999999,4.6999998-11.1999998,7-16.8999996
	c0.5-1.2000008,1.3-1.7999992,2.5-1.7999992c0.6,0,1.1,0,1.7,0c29.2000008,0,58.4000015,0,87.5999985,0c0.5,0,1,0,1.4000015,0
	c1.5-0.1000004,2.4000015,0.5,2.9000015,1.8999996C92-16.5000038,92.5999985-15.4000044,93-14.300004
	C95.0999985-9.1000004,97.4000015-4.0999999,99.5,1c2.6999969,6.4000001,5.4000015,12.8999996,8.0999985,19.2999992
	c0.6999969,1.7000008,1.6999969,2.6000004,3.8000031,2.5c7.0999985-0.1000004,14.1999969-0.1000004,21.4000015-0.1000004
	c2.3999939,0,4.8000031,0.1000004,7.1999969,0c1.3999939,0,1.8000031-0.6000004,1.3000031-1.7000008
	c-2.1999969-4.6999989-4.5-9.3999996-6.6000061-14.1999998c-3.6000061-7.9000001-7-15.8000002-10.5999985-23.7000008
	C121.5-22.6000023,118.9000015-28.3000011,116.2999954-34c-2.9000015-6.2999992-5.6999969-12.5-8.5999985-18.7999992
	C103.5999985-62,99.5-71.0999985,95.2999954-80.3000031C92.8999939-85.7000046,90.3999939-91.1000061,87.8999939-96.5
	c-2.5-5.5-5-10.9000015-7.5-16.4000015C77.5999908-119,74.9999924-125.2000046,72.1999969-131.3000031
	c-3.1999969-7.1000061-6.5-14.1000061-9.7000008-21.1000061c-2.2999992-5-4.5-10-6.7999992-15
	c-2.2000008-4.8000031-4.2999992-9.6999969-6.5-14.6000061C47.9000015-185,46.4000015-188.1999969,44.7999992-191.6999969z
	 M494.1000061-191.8000031c-0.3999939,0.6999969-0.5,1-0.7000122,1.3000031
	c-2.6000061,5.6000061-5.2999878,11.1999969-7.7999878,16.8000031c-3.5,7.6999969-7,15.3999939-10.5,23.1999969
	c-4.5,9.8999939-9,19.6999969-13.6000061,29.5999985c-3.8999939,8.5999985-7.8999939,17.0999985-11.7999878,25.5999985
	c-3,6.5999985-6,13.3000031-9.1000061,19.9000015c-3.1000061,6.8000031-6.1000061,13.5-9.2000122,20.2999992
	C428.7999878-49.4000015,426.1999817-43.7000046,423.6000061-38c-2.3999939,5.2999992-4.7999878,10.5-7.2000122,15.7999992
	c-3,6.5-5.8999939,12.8999996-8.8999939,19.3999996c-3.6000061,7.8000002-7.1000061,15.6000004-10.7000122,23.3999996
	C396,22.2999992,396.5,22.8999977,398.3999939,22.8999977c4.5,0,9,0,13.3999939,0c4.7000122,0,9.3999939,0,14.2000122,0.1000004
	c1.3999939,0,2.1000061-0.3999996,2.7000122-1.7999992c3.2000122-7.6000004,6.5-15.1000004,9.7999878-22.7000008
	c2.2999878-5.1999998,4.6000061-10.5,6.7000122-15.8000011c0.7000122-1.7000008,1.7000122-2.2000008,3.5-2.2000008
	c29.6000061,0,59.2000122,0,88.7999878,0c2.9000244,0,3,0.1000004,4.0999756,2.7000008
	C543.6999512-11.7000027,545.7999878-6.6000032,548-1.5000029c3.2000122,7.4000001,6.5,14.8000002,9.5,22.2999992
	c0.7000122,1.6000004,1.5,2,3,2c9.7000122,0,19.4000244,0,29,0c0.5999756,0,1.2000122-0.2000008,2-0.2999992
	c-0.5999756-1.1000004-1.2000122-1.8999996-1.5999756-2.7000008c-2.7999878-6.1000004-5.5-12.3000002-8.2999878-18.3999996
	c-3.7000122-8.3999996-7.4000244-16.7999992-11.2000122-25.2000008c-3.2999878-7.1999989-6.5999756-14.3999996-9.9000244-21.6000004
	c-4.0999756-9.1000023-8.2000122-18.2000008-12.2999878-27.2999992c-2.7999878-6.3000031-5.7000122-12.5-8.5999756-18.7000046
	c-3.0999756-6.8000031-6.0999756-13.5999985-9.0999756-20.4000015c-3.2000122-7.0999985-6.5-14.0999985-9.7000122-21.2000046
	c-2.7999878-6.1000061-5.5-12.1000061-8.2000122-18.1999969c-2.5-5.6000061-5-11.3000031-7.5-16.8999939
	c-2.5-5.6000061-5.1000061-11.3000031-7.6000061-16.8999939
	C496.2999878-187.1999969,495.2999878-189.3000031,494.1000061-191.8000031z M420.6000061,119.9000015
	c2.8999939-1,5.2999878-1.6999969,7.6000061-2.5999985c7.7000122-3.0999985,11.5-9.4000015,13.2999878-17.0999985
	c0.6000061-2.6999969,0.6000061-5.5999985,0.6000061-8.3000031c0-4.1999969-1-8.1999969-3.1000061-11.9000015
	c-3.1000061-5.3000031-8-8.5-13.6000061-10.5999985c-5.7000122-2-11.7000122-2.5-17.6000061-2.6999969
	c-10.2000122-0.4000015-20.5-0.0999985-30.7000122-0.0999985c-0.6000061,0-1.2999878,0-1.8999939,0.0999985
	c-0.8999939,0.1999969-1.3999939,0.6999969-1.3999939,1.6999969c0,0.5,0,1,0,1.4000015c0,29.8000031,0,59.6999969,0,89.5
	c0,0.6000061,0.1000061,1.1999969,0.1000061,1.8000031c2.5,0.5,14.6000061,0.3999939,16.5-0.1000061
	C390.5,147.8999939,390.2999878,134.8000031,390.5,121.4000015c1.1000061-0.0999985,1.7999878-0.1999969,2.6000061-0.1999969
	c2.2000122,0,4.5,0.0999985,6.7000122-0.0999985c2.2999878-0.1999969,3.6000061,0.6999969,4.7000122,2.6999969
	c2.7999878,5.5,5.8999939,10.8000031,8.8999939,16.3000031c2.6000061,4.6999969,5.1000061,9.5,7.7000122,14.1999969
	c1.2999878,2.3000031,2.6000061,4.6999969,3.7999878,6.8999939c4.7000122,0.5,18,0.3000031,19.7000122-0.3999939
	c-0.1000061-0.3999939-0.2000122-0.8000031-0.3999939-1.1000061C440.4000549,153.5,436.6000366,147.3000031,432.9000549,141
	c-3.8999939-6.3999939-7.7000122-12.8999939-11.6000061-19.3000031C421,121.1999969,420.7999878,120.5,420.6000061,119.9000015z
	 M7.5999999,104.4000015C6.7999997,104.5,6.3999996,104.5999985,6,104.5999985c-13.6000004,0-27.2000008,0-40.7999992,0
	c-1.7999992,0-1.9000015-0.1999969-2-1.9000015c0-0.6999969,0-1.4000015,0-2.1999969c0-10.4000015,0-20.8000031,0-31.1999969
	c0-2.3000031-0.2999992-2.5999985-2.5999985-2.6999969c-2.2000008,0-4.5,0-6.7000008,0c-2.2999992,0-4.5999985,0-6.7999992,0
	c-0.7000008,2-0.7999992,92.1999969-0.2000008,94.5c2.5999985,0.5,14.5,0.3999939,16.2999992-0.1999969
	c0-0.6999969,0-1.5,0-2.3000031c0-12.1000061,0-24.1999969,0-36.1999969c0-2.9000015,0.2000008-3.0999985,3.2000008-3.0999985
	c12.7000008,0,25.3999996,0,38.2000008,0c0.9000001,0,1.9000001,0.0999985,3.0999999,0.1999969
	c0,7.0999985,0,13.9000015,0,20.7999954s0,13.8999939,0,20.6999969c2.5999999,0.6000061,15.1000004,0.5,17-0.1000061
	c0-0.8999939,0-1.8000031,0-2.8000031c0-29.3000031,0-58.5,0-87.8000031c0-0.6999969,0-1.4000015,0-2.1999969
	c-0.1000004-0.5-0.2999992-1-0.5-1.5999985c-4.6000004,0-9.1000004,0-13.6000004,0c-2.8000002,0-3,0.1999969-3,3.0999985
	c0,10.5999985,0,21.0999985,0,31.6999969C7.5999999,102.3000031,7.5999999,103.3000031,7.5999999,104.4000015z
	 M349.1000061,82.1999969c0.7999878-2.5,0.7000122-13.5999985-0.1000061-15.5c-0.6000061,0-1.2000122,0-1.7999878,0
	c-18.8999939,0-37.7999878,0-56.6000061,0c-0.3999939,0-0.7999878,0-1.2000122,0
	c-1.7000122,0.0999985-2.1000061,0.4000015-2.2000122,2.0999985c0,0.5,0,1,0,1.4000015c0,29.5999985,0,59.1999969,0,88.8000031
	c0,0.6000061,0,1.1000061,0,1.6999969c0,1,0.5,1.6999969,1.6000061,1.6000061c0.5,0,1,0,1.3999939,0
	c19.3999939,0,38.8999939,0,58.2999878,0c3.7999878,0,3.8999939,0.3000031,3.7000122-3.8000031
	c-0.1000061-2.6999969,0-5.3999939,0-8.1999969c0-0.8999939,0-1.6999969,0-2.8999939
	c-1.2000122-0.1000061-2.2000122-0.1999969-3.2999878-0.1999969c-14.2000122,0-28.2999878,0-42.5,0
	c-2.7000122,0-2.8999939-0.1999969-2.8999939-2.8999939c0-6.6000061,0-13.1000061,0-19.6999969
	c0-4.0999985,0-4.0999985,4.2000122-4.0999985c11.8999939,0,23.7999878,0,35.7999878,0
	c1.2000122,0,2.2999878-0.0999985,3.7000122-0.1999969c0-1.4000015,0.1000061-2.5999985,0-3.8000031
	c-0.2999878-3.4000015,0.7999878-7-0.6000061-10.4000015c-3.3999939-1.0999985-7-0.5-10.3999939-0.5
	c-9.8999939-0.0999985-19.7999878,0-29.7999878,0c-2.7999878,0-2.7999878-0.0999985-2.7999878-2.8000031
	c0-5.9000015,0-11.8000031,0-17.8000031c0-0.8000031,0.1000061-1.6999969,0.2000122-2.8000031
	C319,82.1999969,334.1000061,82.1999969,349.1000061,82.1999969z M66.5999985,82.3000031
	C67.7999954,82.2000046,68.9000015,82.1000061,70,82.1000061c13.3000031,0,26.5999985,0,39.8000031,0
	c2.5,0,2.5999985-0.0999985,2.5999985-2.5c0-3.5999985,0-7.1999969,0-10.8000031c0-1.8000031-0.3000031-2-2.0999985-2.0999985
	c-0.5,0-1,0-1.4000015,0c-18.5,0-36.9000015,0-55.4000015,0c-0.4000015,0-0.7999992,0-1.2000008,0
	c-1.5,0.0999985-1.7999992,0.3000031-1.9000015,1.8000031c0,0.5999985,0,1.3000031,0,1.9000015
	c0,13.3000031,0,26.5999985,0,39.8000031c0,16.3000031,0,32.6000061,0,48.8999939c0,1,0.2000008,2,0.2999992,3.1000061
	c0.9000015,0,1.5,0,2.2000008,0c19.7999992,0,39.4999962,0,59.2999992,0c0.4000015,0,0.8000031,0,1.1999969,0
	c1.5999985-0.1000061,1.9000015-0.3000031,2-2c0-2.6000061,0-5.3000031,0-7.8999939c0-1.6000061,0-3.1000061,0-4.8999939
	c-1.4000015-0.1000061-2.5-0.1999969-3.5999985-0.1999969c-14.0999985,0-28.0999985,0-42.2000046,0c-3,0-3,0-3-3.1000061
	c0-6.6000061,0-13.1000061,0-19.6999969c0-3.9000015,0-3.9000015,3.9000015-3.9000015c12.0999985,0,24.2000046,0,36.2000046,0
	c1,0,2-0.0999985,3.3000031-0.1999969c0-4.5999985,0-9,0-13.4000015c0-0.9000015-0.5999985-1.4000015-1.5999985-1.4000015
	c-0.5999985,0-1.0999985,0-1.6999969,0c-12.1999969,0-24.5,0-36.7000046,0c-1,0-2-0.0999985-3.1999969-0.1999969
	C66.5999985,97.5999985,66.5999985,90.0999985,66.5999985,82.3000031z M-141.6000061,150.8999939
	c2,2.8999939,4.6000061,4.8000031,7.1999969,6.6000061c5.5,3.6999969,11.6999969,5.1999969,18.1999969,5.8999939
	c1,0.1000061,1.9000015,0.1999969,2.9000015,0.3000031c1.4000015,0.1000061,2.9000015,0.3999939,4.3000031,0.1999969
	c4.1999969-0.6000061,8.5-1,12.5999985-2.3000031c6.6999969-2.1999969,12.1999969-6,16.0999985-11.8999939
	c4.5999985-7.1000061,4.5-14.8999939,3.6999969-22.9000015c-0.0999985-1.1999969-0.5-2.4000015-1-3.4000015
	c-2.6999969-5.8000031-7-10.0999985-12.8000031-13c-4.4000015-2.1999969-9.1999969-3.4000015-13.9000015-4.9000015
	c-4-1.3000031-7.9000015-2.9000015-11.5-5.0999985c-4-2.4000015-6-6.4000015-4.8000031-11.1999969
	c0.6999969-2.8000031,2.0999985-4.9000015,4.3000031-6.5999985c1.9000015-1.4000015,4-2.0999985,6.3000031-2.5999985
	c4.4000015-1,8.5-0.5,12.6999969,0.8000031c3,1,5.8000031,2.5,7.9000015,5c0.6999969,0.8000031,1.3000031,0.8000031,2,0
	C-87.1000137,85.5-86.8000183,85.3000031-86.5000153,85c3-3.4000015,6.0999985-6.9000015,9.0999985-10.3000031
	c0.5-0.5999985,0.8000031-1.3000031,1.1999969-1.9000015c-0.5-0.5-0.8000031-0.6999969-1.0999985-1
	c-3.8000031-3-7.9000015-5.5-12.6999969-6.5999985c-4-0.9000015-8-1.9000015-12.1999969-1.9000015
	c-4.5999985,0-9,0.8000031-13.4000015,1.9000015c-6.0999985,1.5-11.3000031,4.4000015-15.5999985,9
	C-135.7000122,78.8999939-137.9000092,84.5-138.1000061,91c-0.1000061,2.1999969,0.1000061,4.4000015,0.6999969,6.5999985
	c0.5,1.9000015,0.8000031,3.9000015,1.6999969,5.6999969c2.6000061,5.5999985,6.8999939,9.6999969,12.5,12.0999985
	c5.3000031,2.1999969,10.8000031,4.0999985,16.1999969,6c2.9000015,1,5.6999969,2.4000015,8.3000031,4
	c6.9000015,4.3999939,7.0999985,12.8000031,1.8000031,18.1999969c-2.6999969,2.6999969-6,4.1000061-9.5,4.6999969
	c-3.5,0.6000061-7.0999985,0.6999969-10.5999985-0.6000061c-4.3000031-1.5-8.0999985-3.6999969-10.9000015-7.3000031
	c-1-1.3000031-1.3000031-1.3000031-2.3999939-0.1999969C-134.3000031,143.6999969-137.8999939,147.1999969-141.6000061,150.8999939z
	 M240.6999969,161.3000031c0-1.1000061,0-2.1000061,0-3.1999969c0-24.1000061,0-48.3000031,0-72.4000015
	c0-0.6999969,0-1.4000015,0-2.1999969c0.1000061-1.4000015,0.6999969-1.9000015,2.1000061-2.0999985
	c0.6000061,0,1.1000061,0,1.6999969,0c7.3999939,0,14.7000122,0,22.1000061,0c0.8999939,0,1.7999878-0.0999985,2.7000122-0.1999969
	c0.5-3.0999985,0.3999939-12.6999969-0.2000122-14.8000031c-0.8999939,0-1.7999878,0-2.7000122,0
	c-22.6999969,0-45.3999939,0-68.1000061,0c-0.5,0-1,0-1.3999939,0C195.5,66.5000076,195,66.8000107,195,68.3000107
	c-0.1000061,3.8000031,0,7.6999969,0,11.5c0,1,0.5,1.5,1.5,1.5c0.6000061,0,1.3000031,0,1.8999939,0c7.5,0,15,0,22.5,0
	c2.8000031,0,3.1000061,0.3000031,3.1000061,3.1999969c0,0.1999969,0,0.5,0,0.6999969c0,24.0999985,0,48.2999954,0,72.4000015
	c0,1.1000061,0,2.1999969,0,3.3000031C225.6999969,161.6000061,236.3999939,161.6999969,240.6999969,161.3000031z
	 M198.1999969,147.1000061C197,147,195.8999939,146.8000031,194.8999939,146.8000031c-11.8000031,0-23.6999969,0-35.5,0
	c-0.8000031,0-1.6000061,0-2.3999939-0.1000061c-0.8999939-0.1000061-1.5-0.6000061-1.5-1.6000061
	c0-0.6000061,0-1.1000061,0-1.6999969c0-12.6999969,0-25.4000015,0-38.0999985c0-11.8000031,0-23.7000046,0-35.5
	c0-1.0999985,0.3000031-2.1999969-0.6999969-3.1999969c-4.5,0-9.1000061,0-13.6000061,0
	c-1.1999969,0-1.8000031,0.5999985-1.8000031,1.6999969c0,0.4000015,0,0.8000031,0,1.1999969
	c0,29.7999954,0,59.5999985,0,89.5000076c0,0.8000031,0.1000061,1.5,0.1999969,2.6000061c1.1000061,0,2,0,2.8000031,0
	c17.6000061,0,35.1999969,0,52.8000031,0c1.1000061,0,2.1000061-0.1999969,3.1000061-0.3000031
	C198.1999969,156.3999939,198.1999969,151.8999939,198.1999969,147.1000061z"/>
<path class="st1" d="M303.8999939,106.2999878C303.3999939,106.3999939,303,106.5,302.6000061,106.5c-3.7000122,0-7.2999878,0-11,0
	c-0.7999878,0-1-0.2000122-1-1c0-0.2999878,0-0.6000061,0-0.8999939c0-18.7999878,0-37.7000122,0-56.5
	c0-0.5,0.2000122-1-0.3999939-1.5c-11.3999939,13.7999878-22.7999878,27.6000061-34.2999878,41.5
	c-11.5-13.8999939-22.7999878-27.7000122-34.2000122-41.5c-0.1000061,0.3000031-0.2999878,0.3999939-0.2999878,0.6000061
	c0,0.3000031,0,0.6000061,0,1c0,19,0,38,0,57c0,0.2000122,0,0.3999939,0,0.5c0,0.7000122-0.2000122,0.8999939-0.8999939,0.8999939
	c-1,0-2,0-3,0c-2.7000122,0-5.3999939,0-8.1000061,0c-1.1000061,0-1.2000122-0.1000061-1.2000122-1.2000122
	c0-31.2999878,0-62.6000061,0-93.8999939c0-0.1999969,0-0.5,0-1C208.6000061,10.8000031,208.8000183,11,209,11.1999969
	c1.7999878,2.1999969,3.7000122,4.3999939,5.5,6.6999969c1.8999939,2.3999939,3.8999939,4.6999969,5.7999878,7.1000061
	c1.7000122,2,3.2999878,4.1000061,5,6.1000061c0.8999939,1.1999969,1.8999939,2.3000031,2.8999939,3.3999939
	c1.2000122,1.5,2.3999939,3,3.6000061,4.3999939c1.6000061,2,3.2999878,4,4.8999939,6
	c1.6000061,1.8999939,3.2000122,3.8999939,4.7999878,5.8000031c2.7999878,3.3999939,5.6000061,6.9000092,8.5,10.3000031
	c1.7000122,2.1000061,3.3999939,4.1000061,5.1000061,6.2000122c0,0,0,0.1000061,0.1000061,0.1000061
	c0.7999878,0.7999878,0.7999878,0.8999939,1.6000061,0c0.7999878-0.8999939,1.5-1.7999878,2.2000122-2.7000122
	c2.1000061-2.5,4.1000061-5,6.2000122-7.5c2-2.3999939,4-4.8999939,6-7.3000031
	C273.6000061,46.9000092,276,44,278.4000244,41.1000061c2-2.3999939,3.8999939-4.8000031,5.8999939-7.1000061
	c1.7000122-2,3.3999939-4,5-6c3.1000061-3.6999969,6.2000122-7.3999939,9.2000122-11.1000061
	c1.5-1.8999939,3.1000061-3.6999969,4.6000061-5.6000061c0.2000122-0.1999969,0.3999939-0.3000031,0.5-0.5
	c0,0,0.1000061,0,0.1000061,0.1000061L303.8000488,11c0,31.6000061,0,63.1000061,0.1000061,94.7000122
	C303.8999939,105.7000122,303.8999939,105.8999939,303.8999939,106.2999878z"/>
<path class="st1" d="M7.0999832,106.3999939c0-32,0-63.8000031,0-95.8999939c0.9000015,1.1000061,1.6999969,2,2.5,3
	c2,2.3999939,3.9000015,4.8000031,5.9000015,7.1999969c3.1999969,3.8000031,6.3000031,7.6999969,9.5,11.5
	c2.0000076,2.3999939,4.0000076,4.6999969,5.9000015,7.1000061c2.1000061,2.6000061,4.1999969,5.1999969,6.3000031,7.8000031
	c1.8999939,2.3000031,3.8000031,4.6000061,5.8000031,7c1.6999969,2.1000061,3.3999939,4.2000122,5.1999969,6.3999939
	c0.8999939,1,1.8000031,2,2.6000061,3.1000061c1,1.2999878,2.1000061,2.5,3.1000061,3.7999878
	c0.6000061,0.7000122,0.8999939,0.7000122,1.3999939,0c1.5-1.8999939,3-3.7000122,4.6000061-5.6000061
	c2-2.3999939,4.1000061-4.7999878,6.1000061-7.1999969c1.3999939-1.6999969,2.8000031-3.5,4.3000031-5.1999969
	c2.1000061-2.5,4.3000031-5.1000061,6.3999939-7.6000061c2.6000061-3.1999969,5.1999969-6.3999939,7.8000031-9.5
	c2.3000031-2.8000031,4.6999969-5.6000061,7-8.3999939c1.8000031-2.1999969,3.6000061-4.3999939,5.3999939-6.6000061
	c1.3000031-1.6000061,2.6999969-3.1999969,4-4.8000031c0.5-0.6000061,1-1.1999969,1.6000061-2
	c0.1000061,0.5,0.1000061,0.6999969,0.1000061,0.8999939c0,31.3000031,0,62.5999908,0,93.9000092
	c0,1.2000122-0.1000061,1.2000122-1.3000031,1.2000122c-3.6000061,0-7.1999969,0-10.6999969,0
	c-0.1999969,0-0.5,0.1000061-0.6999969,0s-0.3999939-0.2999878-0.5-0.6000061c-0.1000061-0.2000122,0-0.3999939,0-0.6000061
	c0-19,0-38,0-57.1000061c0-0.5,0-0.8999939,0-1.5c-0.6000061,0.1000061-0.8000031,0.3999939-1,0.6999969
	c-2,2.5-4.1000061,4.8999939-6.1000061,7.3999939c-2.3999939,2.9000092-4.8000031,5.8000031-7.1999969,8.6999969
	c-2,2.3999939-3.8999939,4.7999878-5.8999939,7.1000061c-2.1999969,2.6000061-4.3999939,5.2999878-6.6000061,7.8999939
	c-2.3999939,2.8999939-4.8000031,5.8999939-7.1999969,8.7999878c-0.1999969,0.2000122-0.3999939,0.3999939-0.6999969,0.6000061
	C43.3000259,74.0999756,32.0000229,60.2999573,20.6000214,46.4999695c-0.0999985,0.3000031-0.1999969,0.3999939-0.1999969,0.6000061
	c0,0.3000031,0,0.6000061,0,1c0,19.1000061,0,38.1000061,0,57.2000122c0,1-0.0999985,1.1000061-1,1.1000061
	c-3.5999985,0-7.1999969,0-10.6999969,0C8.0999832,106.5,7.5999832,106.3999939,7.0999832,106.3999939z"/>
<path class="st1" d="M155.7999878,10.3999939c0.7000122,1.6000061,1.3999939,3,2,4.3999939
	c1,2.1999969,1.8999939,4.3000031,2.8999939,6.5s2,4.5,3,6.6999969c1.3999939,3.1999969,2.8999939,6.3000031,4.2999878,9.5
	c1.2000122,2.6999969,2.3999939,5.5,3.7000122,8.3000031c1.1000061,2.5,2.2000122,4.8999939,3.3999939,7.3999939
	c1.1000061,2.3999939,2.2000122,4.7999878,3.2999878,7.2999878c1.7999878,4.1000061,3.7000122,8.2000122,5.5,12.2999878
	c1.2999878,2.7999878,2.6000061,5.6000061,3.7999878,8.3999939c1.2000122,2.6000061,2.2999878,5.1000061,3.5,7.7000122
	c1.6000061,3.5,3.1000061,7.1000061,4.7000122,10.6000061c1,2.1000061,2,4.2000122,3,6.2999878
	c0.2000122,0.5,0.1000061,0.7999878-0.6000061,0.7999878c-1.1000061,0-2.1000061,0-3.2000122,0
	c-3.2000122,0-6.3999939,0-9.6000061,0c-0.8999939,0-1.3999939-0.3999939-1.7000122-1.1000061
	c-1.2000122-2.8999939-2.3999939-5.7999878-3.6000061-8.6000061c-1-2.2999878-2-4.6000061-3-6.7999878
	c-0.2000122-0.5-0.3999939-1-0.6000061-1.5c-0.2000122-0.7000122-0.6000061-0.8999939-1.2999878-0.8999939
	c-0.2000122,0-0.3999939,0-0.6000061,0c-13.1000061,0-26.1000061,0-39.2000122,0c-0.2999878,0-0.5,0-0.7999878,0
	c-0.6000061,0-0.8999939,0.2999878-1.1000061,0.7999878c-1,2.5-2.1000061,5-3.1000061,7.6000061
	c-1.3000183,3.2000122-2.7000046,6.2999878-4.1000137,9.5c-0.5,1.2000122-0.5,1.1000061-1.6999969,1.1000061
	c-4,0-7.8999939,0-11.8999939,0c-0.3999939,0-0.6999969,0.1000061-0.8999939-0.3999939
	c1.8000031-3.8999939,3.6000061-7.8999939,5.3999939-11.7999878c1.1000061-2.5,2.3000031-5,3.5-7.5
	c1.3999939-3,2.6999969-5.8999939,4-8.8999939c1.8000031-4,3.5999985-7.8999939,5.3999863-11.8999939
	c1.3000183-2.8999939,2.7000122-5.8999939,4-8.7999878C135.9999084,53.5,137.7998962,49.5,139.599884,45.5999908
	c1.8000183-3.8999939,3.5-7.6999969,5.3000183-11.6000061c1.1000061-2.3999939,2.1999817-4.8000031,3.2999878-7.1999969
	s2.2000122-4.8000031,3.3000183-7.1999969c1.1999817-2.6999969,2.5-5.5,3.7000122-8.1999969
	C155.2999878,11,155.5,10.8000031,155.7999878,10.3999939z M172.6999817,78c-0.1000061-0.3999939-0.1000061-0.7000122-0.2999878-1
	c-1.1000061-2.5-2.2000122-5-3.2999878-7.5c-1.2999878-3-2.5-6-3.7999878-8.8999939
	C163.7000122,56.8000183,162.0000305,53,160.4000244,49.2000122c-1.3999939-3.1999969-2.7999878-6.3999939-4.2000122-9.6000061
	c-0.2999878-0.6000061-0.5-1.1000061-0.7999878-1.6999969c-0.5-0.1000061-0.6000061,0.1999969-0.7000122,0.5
	c-0.5,1.1999969-0.8999939,2.3999939-1.3999939,3.5c-1,2.3000031-2.1000061,4.6000061-3,6.8999939
	C149.2000122,51.4000092,148.1000061,54,147,56.6000061C145.3999939,60.3000183,143.8000183,64,142.2000122,67.7000122
	c-1.2000122,2.7000122-2.3999939,5.3999939-3.5,8.1000061c-0.2000122,0.6000061-0.8999939,1.1000061-0.5,1.8999939
	C149.6999817,78,161.0999756,78,172.6999817,78z"/>
<path class="st1" d="M357,10.3999939C357.5,11.5,358,12.5,358.5,13.5c1.1000061,2.5,2.2999878,5,3.3999939,7.6000061
	c1.1000061,2.5,2.2000122,5,3.3999939,7.6000061c1.2000122,2.6999969,2.5,5.3999939,3.7000122,8.1000061
	c1.3999939,3.1999969,2.8999939,6.3000031,4.2999878,9.5c1.3999939,3,2.7000122,6.1000061,4.1000061,9.1000061
	c1.2999878,2.7999878,2.6000061,5.6000061,3.7999878,8.3999939c1.7999878,4.1000061,3.6000061,8.2000122,5.5,12.2000122
	c1.5,3.2000122,3,6.3999939,4.3999939,9.7000122c1.7000122,3.7999878,3.2999878,7.5,5,11.2999878
	c1.2000122,2.7999878,2.5,5.5,3.7000122,8.2000122C400,105.6000366,400.1999817,105.9000549,400.5,106.4000549
	c-0.3999939,0.1000061-0.6000061,0.1000061-0.8999939,0.1000061c-4.2999878,0-8.7000122,0-13,0
	c-0.7000122,0-1-0.2000122-1.2999878-0.8999939c-1.3999939-3.2999878-2.8999939-6.7000122-4.2999878-10
	c-1-2.2999878-1.8999939-4.6000061-2.7999878-6.8999939c-0.5-1.2000122-0.5-1.2000122-1.7999878-1.2000122
	c-13.2999878,0-26.5,0-39.7999878,0c-0.7999878,0-1.2000122,0.2000122-1.5,1c-1,2.3999939-2,4.7000122-3,7.1000061
	c-1.5,3.3999939-3,6.7999878-4.3999939,10.2000122c-0.2999878,0.6000061-0.6000061,0.7999878-1.2000122,0.7999878
	c-2.1000061,0-4.2000122,0-6.2999878,0c-2,0-4,0-6,0c-0.7999878,0-1-0.2999878-0.7000122-1
	c1.6000061-3.5,3.2000122-7,4.7999878-10.5c1.2999878-2.8999939,2.7000122-5.7999878,4-8.7000122
	c1.1000061-2.3999939,2.2000122-4.7000122,3.2000122-7.1000061c1.2000122-2.5,2.2999878-5.1000061,3.5-7.7000122
	c1.3999939-3,2.7000122-6.1000061,4.1000061-9.1000061c1.2999878-3,2.7000122-6,4.1000061-8.8999939
	c1.7999878-3.8000031,3.5-7.6999969,5.2999878-11.5c2-4.3999939,4.1000061-8.8000031,6.1000061-13.3000031
	c1.6000061-3.5,3.1000061-6.8999939,4.7000122-10.3999939c1.2000122-2.5,2.2999878-5,3.5-7.5
	C356.6999817,10.8000031,356.7999878,10.6999969,357,10.3999939z M373.7999878,78
	c-0.1000061-0.5-0.1000061-0.7999878-0.2999878-1.1000061c-0.6000061-1.5-1.2999878-3-2-4.5c-1-2.2999878-2-4.7000122-3-7
	c-1.1000061-2.5-2.2000122-5-3.2999878-7.5C364,55,362.8000183,52.0999908,361.5,49.1999969
	c-1.2999878-3.1000061-2.6000061-6.1000061-4-9.1999969c-0.2999878-0.6999969-0.7000122-1.3999939-1.1000061-2.3000031
	c-0.2999878,0.3999939-0.5,0.5-0.6000061,0.8000031C354.8999939,40.6000061,354,42.8000031,353,45
	c-0.7999878,1.8000031-1.5,3.6000061-2.2999878,5.3999939c-1.1000061,2.5-2.2000122,4.8999939-3.2000122,7.3999939
	c-0.7999878,1.7999878-1.5,3.5-2.2000122,5.2999878c-1,2.2999878-2,4.6000061-3,6.8999939
	c-0.8999939,2-1.7999878,3.8999939-2.6000061,6c-0.2999878,0.7000122-0.7999878,1.2999878-0.5,2.1000061
	C350.6999817,78,362.0999756,78,373.7999878,78z"/>
<path class="st1" d="M324,150c0.1000061,0.2999878,0.2000122,0.6000061,0.3999939,0.8999939
	c1.7000122,2.8999939,3.5,5.7999878,5.2000122,8.7000122C331.3000183,162.3999939,333,165.2000122,334.7000122,168
	c0.1000061,0.1000061,0.1000061,0.2999878,0.2000122,0.5c-0.7999878,0.2999878-6.7000122,0.3999939-8.7999878,0.2000122
	c-0.6000061-1-1.1000061-2.1000061-1.7000122-3.1000061c-1.2000122-2.1000061-2.2999878-4.2000122-3.5-6.3999939
	c-1.2999878-2.3999939-2.7000122-4.7999878-4-7.2999878c-0.5-0.8999939-1.1000061-1.2999878-2.1000061-1.2000122
	c-1,0.1000061-2,0-3,0c-0.2999878,0-0.7000122,0.1000061-1.2000122,0.1000061c-0.1000061,6,0,11.8999939,0,17.7000122
	c-0.8999939,0.2000122-6.2999878,0.2999878-7.3999939,0.1000061c0-0.2999878-0.1000061-0.5-0.1000061-0.7999878
	c0-13.3999939,0-26.7000122,0-40.1000061c0-0.2000122,0-0.3999939,0-0.6000061c0-0.3999939,0.2000122-0.7000122,0.6000061-0.7000122
	c0.2999878-0.1000061,0.6000061,0,0.8999939,0c4.6000061,0,9.2000122-0.1000061,13.7999878,0
	c2.7000122,0.1000061,5.2999878,0.2999878,7.8999939,1.2000122c2.5,0.8999939,4.7000122,2.3999939,6.1000061,4.7000122
	c1,1.6000061,1.3999939,3.3999939,1.3999939,5.2999878c0,1.2000122,0,2.5-0.2999878,3.7000122
	c-0.7999878,3.3999939-2.5,6.2000122-5.8999939,7.6000061C326.3999939,149.2000122,325.2999878,149.5,324,150z
	 M310.5999756,138.7000122L310.5999756,138.7000122c0,1.6000061,0,3.2000122,0,4.7999878c0,0.7999878,0.2000122,1,1,1.1000061
	c0.2000122,0,0.3999939,0,0.5,0c2.3999939,0.2000122,4.7999878-0.2999878,7.2000122-0.3999939
	c1.5-0.1000061,3-0.3999939,4.2000122-1.2999878c0.7999878-0.5,1.3999939-1.1000061,1.7999878-2
	c0.5-1,0.3999939-2.1000061,0.3999939-3.1000061c0-2.1000061-1.3999939-3.3999939-3.2000122-4.2000122
	c-1.2999878-0.6000061-2.8999939-0.7000122-4.3999939-0.7999878c-2.1000061-0.1000061-4.2999878,0-6.3999939,0
	c-1,0-1.2999878,0.2999878-1.2999878,1.2999878C310.5999756,135.6000061,310.5999756,137.2000122,310.5999756,138.7000122z"/>
<path class="st1" d="M139.0999756,143c0-0.5,0-0.8999939,0-1.2999878c0-4.7000122,0-9.5,0-14.2000122
	c0-1.2999878,0.1000061-1.3999939,1.3000183-1.3999939c2,0,4,0,6.1000061,0c0.1000061,0.2000122,0.1999817,0.5,0.1999817,0.7000122
	c0,0.2999878,0,0.6000061,0,1c0,13.1000061,0,26.2000122,0,39.2999878c0,0.3999939,0,0.8999939,0,1.2000122
	c-0.7999878,0.2999878-6.5,0.2999878-7.6000061,0c0-3.1000061,0-6.2000122,0-9.2999878c0-3.1000061,0-6.1000061,0-9.2999878
	c-0.6000061,0-1-0.1000061-1.3999939-0.1000061c-5.6999817,0-11.3999863,0-17.0999985,0
	c-1.3000031,0-1.3999939,0.1000061-1.3999939,1.3999939c0,5.3999939,0,10.7999878,0,16.2000122c0,0.3999939,0,0.7000122,0,1
	c-0.8000031,0.2999878-6.1000061,0.2999878-7.3000031,0.1000061c-0.3000031-1-0.1999969-41.3999939,0.1000061-42.2999878
	c1,0,2,0,3,0s2,0,3,0s1.1999969,0.2000122,1.1999969,1.2000122c0,4.7000122,0,9.2999878,0,14c0,0.2999878,0,0.6000061,0,1
	c0,0.7999878,0.1000061,0.7999878,0.8999939,0.7999878c6.1000061,0,12.2000046,0,18.3000107,0
	C138.5999756,143.1000061,138.6999817,143,139.0999756,143z"/>
<path class="st1" d="M292,133.1000061c-6.7000122,0-13.5,0-20.2999878,0c0,0.5-0.1000061,0.8999939-0.1000061,1.2000122
	c0,2.7000122,0,5.2999878,0,8c0,1.2000122,0,1.2999878,1.2999878,1.2999878c4.3999939,0,8.8999939,0,13.2999878,0
	c1.6000061,0,3.1000061-0.2999878,4.7000122,0.2000122c0.6000061,1.5,0.1000061,3.1000061,0.2999878,4.6000061
	c0,0.5,0,1.1000061,0,1.7000122c-0.6000061,0-1.1000061,0.1000061-1.6000061,0.1000061c-5.2999878,0-10.7000122,0-16,0
	c-1.8999939,0-1.8999939,0-1.8999939,1.7999878c0,2.8999939,0,5.8999939,0,8.7999878
	c0,1.2000122,0.1000061,1.2999878,1.2999878,1.2999878c6.2999878,0,12.7000122,0,19,0c0.5,0,1,0.1000061,1.5,0.1000061
	c0,0.5,0,0.8999939,0,1.2999878c0,1.2000122,0,2.3999939,0,3.7000122c0.1000061,1.7999878,0,1.7000122-1.6000061,1.7000122
	c-8.7000122,0-17.3999939,0-26.1000061,0c-0.2000122,0-0.3999939,0-0.6000061,0c-0.5,0-0.7000122-0.2999878-0.7000122-0.7000122
	c0-0.2999878,0-0.5,0-0.7999878c0-13.2999878,0-26.5,0-39.7999878c0-0.2000122,0-0.3999939,0-0.6000061
	c0.1000061-0.7999878,0.2000122-0.8999939,1-0.8999939c0.2000122,0,0.3999939,0,0.5,0c8.5,0,16.8999939,0,25.3999939,0
	c0.2999878,0,0.6000061,0,0.7999878,0C292.2999878,127,292.3999939,132,292,133.1000061z"/>
<path class="st1" d="M165.5999756,133.1000061c0,3.5,0,6.8999939,0,10.2999878c0.5,0,1,0.1000061,1.3999939,0.1000061
	c5.5,0,11,0,16.3999939,0c0.2999878,0,0.5,0,0.7999878,0c0.3999939,0,0.7000122,0.2000122,0.7000122,0.6000061c0,2,0,3.8999939,0,6
	c-0.6000061,0-1,0.1000061-1.5,0.1000061c-5.3999939,0-10.7999878,0-16.2000122,0c-1.7000122,0-1.7000122,0-1.7000122,1.7000122
	c0,2.8999939,0,5.8999939,0,8.7999878c0,1.3999939,0,1.3999939,1.3999939,1.3999939c6.2999878,0,12.6000061,0,18.8999939,0
	c0.5,0,1,0.1000061,1.6000061,0.1000061c0,0.7999878,0,1.5,0,2.2000122c0,1.2000122,0,2.3999939,0,3.5
	c0,0.7999878-0.1000061,0.8999939-0.8999939,0.8999939c-0.2000122,0-0.3999939,0-0.5,0c-8.7999878,0-17.7000122,0-26.5,0
	c-0.2999878,0-0.6000061,0-1,0c0-0.5-0.1000061-0.8999939-0.1000061-1.3999939c0-7.2999878,0-14.6000061,0-21.8999939
	c0-5.8999939,0-11.8999939,0-17.7999878c0-0.2999878,0-0.6000061,0-0.8999939c0-0.7000122,0.2000122-0.7999878,0.7999878-0.7999878
	c0.2000122,0,0.3999939,0,0.5,0c8.2999878,0,16.5,0,24.7999878,0c0.2000122,0,0.3999939,0,0.6000061,0
	c0.7999878,0,0.8999939,0.2000122,1,1c0,1.6000061,0,3.2000122,0,4.7999878c0,1.1000061,0,1.1000061-1.2000122,1.1000061
	c-5.8999939,0-11.8999939,0-17.7999878,0C166.5999756,133,166.0999756,133.1000061,165.5999756,133.1000061z"/>
<path class="st1" d="M72.2999802,163.7999878c1.6999969-1.6000061,3.3000031-3.2000122,4.8999939-4.7999878
	c0.5-0.5,0.6000061-0.5,1.1000061,0.1000061c1.3000031,1.6000061,3,2.6000061,4.8999939,3.2999878
	c1.6000061,0.6000061,3.1999969,0.5,4.8000031,0.2999878c1.6000061-0.2999878,3.1000061-0.8999939,4.3000031-2.1000061
	c2.3999939-2.3999939,2.3000031-6.2000122-0.8000031-8.1000061c-1.1999969-0.7000122-2.3999939-1.2999878-3.6999969-1.7999878
	c-2.3999939-0.8999939-4.8999939-1.7000122-7.3000031-2.7000122c-2.5-1.1000061-4.3999939-2.8999939-5.6000061-5.3999939
	c-0.3999939-0.7999878-0.5-1.7000122-0.8000031-2.5c-0.3000031-1-0.3000031-2-0.3000031-3
	c0.1000061-2.8999939,1.1000061-5.3999939,3.1000061-7.5c1.8999939-2,4.3000031-3.2999878,7-4c2-0.5,4-0.8999939,6-0.8999939
	c1.8999939,0,3.6999969,0.3999939,5.5,0.7999878c2.1999969,0.5,4,1.6000061,5.6999969,3
	c0.1000061,0.1000061,0.3000031,0.2000122,0.5,0.3999939c-0.1999969,0.2999878-0.3000031,0.6000061-0.6000061,0.8999939
	c-1.3000031,1.5-2.6999969,3.1000061-4.1000061,4.6000061c-0.1000061,0.1000061-0.3000031,0.2000122-0.3999939,0.3999939
	c-0.3000031,0.2999878-0.6000061,0.3999939-0.8999939,0c-0.8999939-1.1000061-2.1999969-1.7999878-3.5-2.2999878
	c-1.8999939-0.6000061-3.6999969-0.7999878-5.6999969-0.3999939c-1,0.2000122-2,0.5-2.8000031,1.2000122
	c-1,0.7000122-1.6000061,1.7000122-1.8999939,3c-0.5,2.1000061,0.3999939,3.8999939,2.1999969,5
	c1.6000061,1,3.3000031,1.7000122,5.1000061,2.2999878c2.1000061,0.7000122,4.1999969,1.2000122,6.1999969,2.2000122
	c2.6000061,1.2999878,4.5,3.2000122,5.6999969,5.7999878c0.1999969,0.5,0.3999939,1,0.3999939,1.5
	c0.3999939,3.6000061,0.3999939,7.1000061-1.6000061,10.2000122c-1.6999969,2.7000122-4.1999969,4.2999878-7.1999969,5.2999878
	c-1.8000031,0.6000061-3.6999969,0.7999878-5.6000061,1c-0.6000061,0.1000061-1.3000031,0-1.8999939-0.1000061
	c-0.3999939,0-0.8999939-0.1000061-1.3000031-0.1000061c-2.8999939-0.2999878-5.6999969-1-8.1000061-2.7000122
	C74.2999802,166,73.1999741,165.2000122,72.2999802,163.7999878z"/>
<path class="st1" d="M243.5,168.5c-1.8999939,0.2000122-6.7000122,0.1000061-7.5-0.1000061c0-0.5,0-1,0-1.5
	c0-10.7999878,0-21.6000061,0-32.3999939c0-0.1000061,0-0.2000122,0-0.2999878c0-1.2999878-0.1000061-1.3999939-1.3999939-1.3999939
	c-3.3999939,0-6.7000122,0-10.1000061,0c-0.2999878,0-0.6000061,0-0.8999939,0
	c-0.3999939,0-0.7000122-0.2000122-0.7000122-0.7000122c0-1.7000122,0-3.3999939,0-5.2000122
	c0-0.6000061,0.2000122-0.7999878,0.8999939-0.7999878c0.2000122,0,0.3999939,0,0.6000061,0c10.2000122,0,20.2999878,0,30.5,0
	c0.3999939,0,0.7999878,0,1.2000122,0c0.2999878,0.8999939,0.2999878,5.2000122,0.1000061,6.6000061
	c-0.3999939,0-0.7999878,0.1000061-1.2000122,0.1000061c-3.2999878,0-6.6000061,0-9.8999939,0c-0.2999878,0-0.5,0-0.7999878,0
	c-0.6000061,0.1000061-0.8999939,0.2999878-0.8999939,0.8999939c0,0.2999878,0,0.6000061,0,1
	c0,10.7999878,0,21.6000061,0,32.3999939C243.5,167.5,243.5,168,243.5,168.5z"/>
<path class="st1" d="M224.5,162.1000061c0,2.2000122,0,4.2000122,0,6.3999939c-0.5,0-0.8999939,0.1000061-1.3999939,0.1000061
	c-7.8999939,0-15.7000122,0-23.6000061,0c-0.3999939,0-0.7999878,0-1.2999878,0c0-0.5-0.1000061-0.7999878-0.1000061-1.1000061
	c0-13.3999939,0-26.7000122,0-40.1000061c0-0.2000122,0-0.3999939,0-0.5c0-0.5,0.2000122-0.7999878,0.7999878-0.7999878
	c2,0,4.1000061,0,6.1000061,0C205.5,126.5,205.2999878,127,205.2999878,127.5c0,5.2999878,0,10.6000061,0,15.8999939
	c0,5.7000122,0,11.3999939,0,17.1000061c0,0.2999878,0,0.5,0,0.7999878C205.2999878,161.6999817,205.5999756,162,206,162
	c0.3999939,0,0.7000122,0,1.1000061,0c5.2999878,0,10.6000061,0,15.8999939,0C223.5,162,224,162.1000061,224.5,162.1000061z"/>
<path class="st0" d="M82.5999985-40.7999992c-25.9000015,0-51.4000015,0-76.9000015,0
	c-0.9000001-1.9000015,0.5-3.0999985,1-4.4000015c2.5-6.0999985,5.1000004-12.1000023,7.6999998-18.2000008
	C17.9999962-71.7000046,21.4999962-80,25.0999966-88.3000031c2.5-5.8000031,4.8000011-11.6999969,7.3000011-17.5
	c2.2000008-5.1999969,4.5999985-10.3000031,6.7999992-15.5c1.0999985-2.5999985,2.2000008-5.3000031,3.2000008-7.8999939
	c0.2999992-0.6999969,0.5-1.3000031,1.7000008-1.1999969c0.5999985,1.1999969,1.2000008,2.4000015,1.7999992,3.6999969
	c3.0999985,7.0999985,6.2000008,14.1999969,9.2999992,21.3000031c3.7000008,8.5,7.4000015,17,11,25.5
	c2.8000031,6.5999985,5.5999985,13.3000031,8.5,19.9000015C77.0999985-54.3999939,79.5999985-48.7999916,82-43.2999916
	C82.3000031-42.4000015,82.4000015-41.7000008,82.5999985-40.7999992z"/>
<path class="st0" d="M531.7000122-40.7000008c-26,0-51.6000061,0-77.2000122,0
	C453.7999878-42.6000023,455.1000061-44,455.7000122-45.5C457.5-50,459.5-54.4000015,461.4000244-58.7999992
	c2.2000122-5.2000008,4.5-10.2999992,6.7999878-15.5000038c1.7000122-3.9000015,3.2999878-7.9000015,5-11.8000031
	c2.3999939-5.5,4.7999878-11,7.2000122-16.5999985c1.7000122-4,3.2999878-8,5-12
	c2-4.8000031,4.1000061-9.5999985,6.2000122-14.4000015c0.2000122-0.5,0.7000122-0.8999939,1.3999939-1.6999969
	c1,2,1.7999878,3.5999985,2.5,5.1999969c3,6.8000031,6,13.5999985,8.8999939,20.5c2.7999878,6.5,5.3999939,13,8.2000122,19.5
	c2.4000244,5.5999985,4.9000244,11.0999985,7.4000244,16.6999969c2.2999878,5.2000008,4.5,10.5,6.7999878,15.7000008
	c1.5,3.2999992,3,6.7000008,4.4000244,10C531.4000244-42.5999985,531.5-41.7999992,531.7000122-40.7000008z"/>
<path class="st0" d="M390.6000061,94.8000031c0-3.5,0-7,0-10.5999985c0-2.3000031,0.6000061-2.8000031,2.7999878-2.8000031
	c4.7999878,0,9.6000061-0.1999969,14.3999939,0.0999985c3.2999878,0.1999969,6.7999878,0.5999985,9.7999878,1.9000015
	c3.8999939,1.5999985,7,4.5,7.1000061,9.3000031c0.1000061,2.4000015,0.2000122,4.6999969-0.8999939,7
	c-0.8999939,2-2.2999878,3.3000031-4,4.5c-2.8999939,1.9000015-6.1000061,2.6999969-9.5,2.9000015
	c-5.3999939,0.3000031-10.7999878,1.3000031-16.2000122,0.9000015c-0.3999939,0-0.7999878,0-1.2000122,0
	c-1.7999878-0.1999969-2.2999878-0.5999985-2.2999878-2.4000015C390.6000061,102,390.6000061,98.4000015,390.6000061,94.8000031
	L390.6000061,94.8000031z"/>
<g>
	<path class="st0" d="M-300.7000122,134.8000031c0-5.5,0-9.5,0-14.6999969c2.8999939,1.0999985,6.2999878,1.5,6.7999878,2.9000015
		c1,2.6999969,1,6.2999954,0,8.9999924C-294.3999939,133.3999939-297.8999939,133.6999969-300.7000122,134.8000031z"/>
	<path class="st0" d="M-661.4000244,134.8999939c0-5.6000061,0-9.5,0-14.6999969c2.9000244,1.0999985,6.5,1.4000015,7.2000122,3
		c1.0999756,2.4000015,1.0999756,6.1000061,0,8.6000061C-654.9000244,133.3000031-658.4000244,133.6999969-661.4000244,134.8999939z
		"/>
	<path class="st0" d="M114.8000031,153.3999939c0-10.5,0-21.1000061,0-31.5999985c5.9000015-1.5,8.3000031,0,8.5999985,5.8000031
		c0.1999969,6.5000076,0.1999969,13.0000076,0,19.4000015C123.1999969,153.1000061,121.4000015,154.3999939,114.8000031,153.3999939
		z"/>
	<path class="st0" d="M-615.5999756,137.5c0-3.8000031-0.5-7.6999969,0.2000122-11.4000015
		c0.2999878-2,2.5999756-3.5999985,4-5.3000031c1.5,1.5999985,4.2000122,3.1999969,4.2999878,4.9000015
		c0.5,7.8999939,0.5,15.8999939,0,23.8000031C-607.1999512,151.1999969-610,152.8000031-611.5,154.3999939
		c-1.2999878-1.6000061-3.5999756-3.1000061-3.9000244-4.8999939C-615.9000244,145.5-615.5,141.5-615.5999756,137.5
		C-615.5,137.5-615.5999756,137.5-615.5999756,137.5z"/>
	<path class="st0" d="M-423.7999878,145.6999969c-3,0-5.2000122,0-7.7999878,0c1.2000122-5.5,2.2999878-10.6999969,3.3999939-16
		c0.2999878,0,0.7000122-0.1000061,1-0.1000061C-426.2000122,134.8000031-425,140-423.7999878,145.6999969z"/>
	<path class="st0" d="M194.8999939,145.8000031c-2.8000031,0-4.8999939,0-7.6999969,0
		c1.1000061-5.6000061,2.1999969-10.8999939,3.3000031-16.1999969c0.3000031,0,0.6000061,0,1,0
		C192.6000061,134.8000031,193.6999969,140,194.8999939,145.8000031z"/>
	<path class="st0" d="M-1065.8000488-4.8000002c0,9-0.0999756,18,0.0999756,27
		c0.0999756,3.5-1.0999756,4.7000008-4.5999756,4.6000004C-1084.4000244,26.4000015-1082,28.7000008-1082.1000977,15.500001
		c-0.1999512-15.6999998,0.0999756-31.2999992-0.0999756-47c-0.0999756-4.2999992,1.4000244-5.4000015,5.4000244-5.2999992
		c11,0.2000008,11,0,11,11.1000004c0,3.5,0,7,0,10.5C-1065.9000244-11.8000002-1065.9000244-8.3000002-1065.8000488-4.8000002
		C-1065.9000244-4.8000002-1065.9000244-4.8000002-1065.8000488-4.8000002z"/>
</g>
</svg>
