<?xml version="1.0" encoding="utf-8"?>
<!-- Generator: Adobe Illustrator 20.1.0, SVG Export Plug-In . SVG Version: 6.00 Build 0)  -->
<svg version="1.1" id="Layer_1" xmlns="http://www.w3.org/2000/svg" xmlns:xlink="http://www.w3.org/1999/xlink" x="0px" y="0px"
	 viewBox="0 0 289 145" style="enable-background:new 0 0 289 145;" xml:space="preserve">
<style type="text/css">
	.st0{fill:#BABABA;}
</style>
<path class="st0" d="M16.4404602,63.0658379c1.0113049-4.0461884,3.8780842-5.9331932,7.7943039-6.5897179
	c-0.1079998,0.0748901-0.2081032,0.1662941-0.3251495,0.222271c-3.4848633,1.6666756-4.7144184,4.6602173-3.4373474,8.3217583
	c0.5902977,1.6924591,1.8514118,2.7321701,3.4703922,3.1845093c2.3037338,0.6436691,4.6635342,1.0971527,7.0127373,1.5647964
	c2.5843792,0.5144577,5.0904255,1.210228,7.2909603,2.727684c3.3513107,2.3110199,4.7984695,6.416008,3.7512131,10.598114
	c-0.8882599,3.5471573-4.0683441,6.3375473-7.846283,6.8035583c0.1043243-0.1251602,0.1458778-0.2195892,0.2164116-0.2532043
	c2.7271385-1.2996368,4.099926-3.4432983,3.9675827-6.4759674c-0.1405983-3.221756-1.7198067-5.5064163-4.8088455-6.4386902
	c-2.7796249-0.8388977-5.6589451-1.3426514-8.4786015-2.0562363c-1.0322418-0.2612305-2.0436878-0.6446152-3.0226288-1.0691147
	c-3.1608658-1.3706665-4.910244-3.8660736-5.5847454-7.1837234C16.4404602,65.3031921,16.4404602,64.1845169,16.4404602,63.0658379z
	"/>
<path class="st0" d="M253.1700439,90.4304352c1.5530548-0.8046265,2.0762329-2.1096115,2.0422974-3.8131409
	c-0.0633392-3.1780319,0.0101929-6.3586884-0.0417786-9.5371323c-0.0106049-0.6483154-0.1902771-1.3699722-0.5172119-1.9252243
	c-3.2201843-5.4689865-6.4678192-10.9221878-9.7609558-16.3475189c-0.5856781-0.9648666-1.4165039-1.7809219-2.2103882-2.7597275
	c2.1116791,0,4.2681274-0.0259666,6.4223633,0.0316772c0.2806702,0.0075111,0.6293335,0.3959084,0.812561,0.6910362
	c3.4611664,5.5750198,6.9119568,11.1565971,10.3283691,16.7590675c0.2680664,0.4395599,0.3704834,1.0422745,0.3747559,1.5705719
	c0.0308228,3.8235016,0.0942993,7.6496277-0.0175171,11.4701004c-0.0527954,1.8037186,0.4940491,3.0764465,2.1192932,3.8602905
	C259.5379028,90.4304352,256.3539734,90.4304352,253.1700439,90.4304352z"/>
<path class="st0" d="M77.1072617,90.4304352c-0.7205124-1.7354126-1.446991-3.4683685-2.1602173-5.2067719
	c-1.2385178-3.0187531-3.4878616-4.5770187-7.0110931-4.5892181c3.1887054-1.2367172,3.8749847-2.7428513,2.6731339-5.7163925
	c-1.6364746-4.048851-3.3771439-8.0556335-5.0053635-12.1076889c-0.2285919-0.5688744-0.2421799-1.343029-0.0643616-1.9347343
	c0.6104279-2.0313263,1.3502045-4.023777,2.1352768-6.3060646c1.5026093,3.4357262,2.8919601,6.6056633,4.2757797,9.7780151
	c3.2018356,7.3400955,6.424881,14.6711044,9.5845566,22.0293121c0.7973175,1.8567657,1.886673,3.3338547,3.8332977,4.0535431
	C82.6146011,90.4304352,79.8609314,90.4304352,77.1072617,90.4304352z"/>
<path class="st0" d="M135.4506531,90.4304352c1.5872345-0.8535843,2.0322113-2.2265549,2.0240326-3.9574509
	c-0.042038-8.896431-0.0273438-17.79319-0.0119171-26.6897964c0.0025787-1.4893723-0.2193298-2.8357315-2.0119476-3.7762451
	c3.269928,0,6.1556854,0,9.4610291,0c-2.4350128,1.0709-2.073761,3.0151215-2.0751495,4.8232155
	c-0.0066528,8.5957756,0.027771,17.191761-0.0280151,25.7871819c-0.0115967,1.7881088,0.5071564,3.0902481,2.1937561,3.8130951
	C141.818512,90.4304352,138.6345825,90.4304352,135.4506531,90.4304352z"/>
<path class="st0" d="M204.3784485,90.4304352c1.5509949-0.7754211,2.1235046-1.9844818,2.1095886-3.752449
	c-0.0704346-8.9461975-0.0502777-17.8933258-0.0142975-26.8399315c0.0057831-1.4382248-0.1504364-2.7228622-1.7258911-3.7207184
	c2.5286102,0,4.730011,0,7.0971832,0c0,0.5344772,0,1.035614,0,1.5367508c0,9.6349678,0.0382843,19.2702217-0.0341339,28.904644
	c-0.0135498,1.8024979,0.5000153,3.0790405,2.1193542,3.8717041
	C210.7463226,90.4304352,207.5623779,90.4304352,204.3784485,90.4304352z"/>
<path class="st0" d="M101.1158218,90.4304352c1.6831512-0.7883835,2.2660904-2.1320801,2.2580643-3.9558792
	c-0.0422211-9.5829468-0.0198364-19.1661835-0.0198898-28.7493172c0-0.5059357,0-1.0118752,0-1.6044922
	c1.7789001,0,3.4330444,0,5.2829208,0c0,0.4949417,0,0.9916306,0,1.4883194c0,9.5831337,0.028862,19.1664314-0.0257874,28.7492561
	c-0.0102081,1.7909088,0.4200668,3.193306,2.0564804,4.072113
	C107.4836807,90.4304352,104.2997513,90.4304352,101.1158218,90.4304352z"/>
<path class="st0" d="M16.6986179,90.4304352c0-3.5676727,0-7.1353531,0-10.2234268
	c0.9190655,1.602623,1.8379345,3.6837845,3.1835556,5.4374924c1.9483986,2.539299,4.7555828,3.8750534,7.8686562,4.5494843
	c0.1961479,0.0424881,0.3769131,0.155983,0.5648346,0.2364502C24.4433155,90.4304352,20.5709667,90.4304352,16.6986179,90.4304352z"
	/>
<path class="st0" d="M162.5570831,90.4304352c0-3.5462265,0-7.0924454,0-10.6386719
	c1.0980225,3.9608459,3.3394623,7.0234528,6.9815521,8.9120407c1.4529266,0.753418,3.0849762,1.1613998,4.635498,1.7266312
	C170.3017883,90.4304352,166.4294434,90.4304352,162.5570831,90.4304352z"/>
<path class="st0" d="M51.8079147,90.4304352c2.570034-0.9068604,3.9410324-2.8226776,4.6494446-5.3689117
	c0.3488617-1.2539215,0.8857994-2.4555283,1.4147606-3.8899689c0.1646805,1.3040085,0.1727371,2.3814468,0.4520416,3.3832626
	c0.7422409,2.6623459,2.4984779,4.4332047,5.0998039,5.3683014c0.4351463,0.1564255,0.8614044,0.3375854,1.2917786,0.5073166
	C60.4131317,90.4304352,56.1105232,90.4304352,51.8079147,90.4304352z"/>
<path class="st0" d="M179.8726501,89.8267288c2.311615-1.1258011,3.8656158-2.6826401,4.2329102-5.2408981
	c0.479538-3.3399963-0.9153595-6.3305969-4.0484619-7.5431671c-2.2552185-0.8728104-4.7310486-1.1567688-7.0552368-1.8755035
	c-2.2754364-0.7036591-4.6374817-1.3527451-6.6871185-2.5112686c-3.5995789-2.0346146-4.3616333-5.6126785-3.9420013-9.3928146
	c0.3840179-3.459259,2.735672-5.3966751,5.8970947-6.4565926c0.5614319-0.1882286,1.1360474-0.3372078,1.7869415-0.3331223
	c-0.1685638,0.1095238-0.3273468,0.2395134-0.5071716,0.3254967c-2.7417145,1.3109512-3.7786865,3.0691185-3.6340332,6.1753769
	c0.1291962,2.7737961,1.3223114,4.5073242,4.1973724,5.3498001c2.5817871,0.7565308,5.2738647,1.1312485,7.9083099,1.7148743
	c2.9329224,0.6497498,5.726059,1.647377,7.7690125,3.9881439c2.5144653,2.881012,2.9371948,6.2521667,1.7925415,9.7820816
	c-1.1252747,3.4701462-3.8246918,5.2490005-7.2320404,6.1002808
	C180.2511902,89.934288,180.1304016,89.8742523,179.8726501,89.8267288z"/>
<path class="st0" d="M265.8548279,64.8663864c0.611908-5.3955269-0.1750183-6.9479637-4.5469666-8.7331085
	c3.8723755,0,7.5003052,0,11.2516785,0C269.1728821,58.1896172,268.2365112,62.014122,265.8548279,64.8663864z"/>
<path class="st0" d="M31.2341366,56.0799141c2.9532108,0,5.9064198,0,8.9742985,0c0,2.9807587,0,5.918232,0,9.0970421
	C38.8799019,60.3574371,35.7259789,57.5486298,31.2341366,56.0799141z"/>
<path class="st0" d="M222.2512665,56.0334435c2.6611176,0,5.3222351-0.0018578,7.9833527,0.0026398
	c0.2917938,0.0004959,0.5835266,0.0374832,0.9508362,0.0627365c0,2.8607407,0,5.661171,0,8.4615974
	C229.6481476,60.2312279,226.6294708,57.5254707,222.2512665,56.0334435z"/>
<path class="st0" d="M177.455368,56.0887222c2.572525,0,5.5259247,0,8.5748444,0c0,2.8674393,0,5.6811447,0,8.0999603
	c-1.0054016-1.4516983-1.964325-3.4147606-3.4504547-4.8203926C181.076355,57.9463425,179.0510406,57.0762024,177.455368,56.0887222
	z"/>
<path class="st0" d="M91.6067276,65.5043869c0-3.0871353,0-6.1742668,0-9.3664398c2.7385788,0,5.4413452,0,8.5239487,0
	C95.3019943,57.7670479,92.8259506,61.0779037,91.6067276,65.5043869z"/>
<path class="st0" d="M120.2836761,56.1164818c0,2.9653625,0,5.7826118,0,8.5998573
	c-1.418129-4.1324997-3.9623871-7.136013-8.2034149-8.5998573
	C114.7754059,56.1164818,117.4705505,56.1164818,120.2836761,56.1164818z"/>
<path class="st0" d="M217.7525635,72.1921539c3.3239899-0.8284454,5.367157-2.7054291,6.4687805-5.6465759
	c0,3.71521,0,7.4304123,0,11.5227432C223.0541687,74.8830261,221.1374054,72.9129028,217.7525635,72.1921539z"/>
</svg>
