<?xml version="1.0" encoding="utf-8"?>
<!-- Generator: Adobe Illustrator 20.1.0, SVG Export Plug-In . SVG Version: 6.00 Build 0)  -->
<svg version="1.1" id="Layer_1" xmlns="http://www.w3.org/2000/svg" xmlns:xlink="http://www.w3.org/1999/xlink" x="0px" y="0px"
	 viewBox="0 0 289 145" style="enable-background:new 0 0 289 145;" xml:space="preserve">
<style type="text/css">
	.st0{fill:#BABABA;}
</style>
<path class="st0" d="M194.6369934,123.1373672c1.3777313-0.3290329,2.7562866-0.6548157,4.1331024-0.9876404
	c6.4295349-1.5543137,12.8340302-3.1972427,19.0969696-5.3479309c4.677536-1.6062775,9.2357788-3.4909515,13.6469879-5.7331467
	c2.9401703-1.4944839,5.2874298-3.6786423,7.2877655-6.2460785c3.5766449-4.5905762,5.7330017-9.7921448,6.5927277-15.5497818
	c0.4370728-2.9268875,0.384903-5.8451309,0.214386-8.788002c-0.1622162-2.7993011-0.4580688-5.5677032-1.1222839-8.2893677
	c-1.822876-7.4701309-5.6113892-13.6696358-11.8854065-18.2396355c-1.1536407-0.8403282-2.3387451-1.6401482-3.7226868-2.2474861
	c-0.219574,0.2678757-0.4405823,0.4941139-0.6120911,0.7531395c-4.1899414,6.3282776-7.0287323,13.1983986-8.15065,20.7241249
	c-0.3107758,2.0845032-0.418457,4.2039948-0.5327148,6.3121262c-0.2666473,4.9190598,0.1915741,9.8009262,0.8592529,14.6682663
	c0.0238495,0.1737671,0.0030518,0.3536606,0.0030518,0.6396942c-1.2250366,0.2492218-2.4456024,0.4621429-3.6485138,0.7493286
	c-2.8989716,0.6920929-5.7724762,1.5118179-8.2194366,3.2849655c-2.9948578,2.1701508-5.1542969,4.9682388-5.8274078,8.7077179
	c-0.4961853,2.756485,0.135376,5.3351135,1.3929291,7.7896576c0.130188,0.2541351,0.2748108,0.5008469,0.4099274,0.7525406
	c0.0161285,0.0300064,0.014267,0.0697021,0.051239,0.2716141c-0.2748718-0.2394791-0.4845123-0.3812256-0.6431885-0.5665894
	c-1.8867645-2.2038193-2.9878693-4.7814102-3.5727386-7.5969925c-0.3532867-1.700798-0.4082489-3.4215164-0.1172485-5.1298676
	c0.6500244-3.8163528,2.9234772-6.4522018,6.2070465-8.308403c2.5209198-1.4250946,5.2626343-2.2144928,8.0926361-2.7345581
	c0.5895844-0.1083374,1.1778717-0.2235641,1.9177246-0.3643341C213.0144806,78.4504166,213.7551117,65.5646973,219,53
	c2.0372162-4.8802986,4.6322021-9.4390488,8.0550385-13.6670837c6.9296112,4.4364395,13.0636902,9.6122894,17.723587,16.640564
	c0.3389893-0.4841995,0.6136169-0.8337975,0.8429718-1.2109528c1.9328308-3.1781921,4.304245-5.9910049,7.0564117-8.4862213
	c0.4230957-0.3836327,0.8794861-0.7305794,1.3809967-1.1444702c0.1761932,0.2196617,0.3513794,0.3873138,0.4665833,0.5891876
	c2.7644196,4.8448296,4.5645599,10.021656,5.3394012,15.5504303c1.275238,9.0984421-0.2909241,17.7587357-4.0375671,26.0772247
	c-1.9093018,4.2392044-4.3360901,8.155838-7.3840027,11.6779633c-0.2050934,0.2369919-0.3811646,0.4990463-0.6203003,0.8149338
	c0.5245819,0.1309967,0.7366028-0.2064972,0.9924774-0.4168167c1.9195404-1.577858,3.5529022-3.4351273,5.172226-5.306427
	c0.7736359-0.8939819,1.5332947-1.8024826,2.3511353-2.6546249c0.3641052-0.3793259,0.8238525-0.7011337,1.2966309-0.9350815
	c1.253418-0.6202393,2.2923584-0.0020142,2.4301147,1.3981476c0.1092529,1.1104279-0.1909485,2.1339111-0.7033081,3.0992737
	c-0.9524231,1.7945786-2.3179932,3.2693558-3.7250824,4.7038193c-4.6410828,4.7314529-10.0853729,8.3581009-15.9027405,11.4516296
	c-9.2597504,4.9241486-19.0822601,8.2444-29.3728638,10.2172012c-3.618103,0.6936264-7.253479,1.2431641-10.9302673,1.5052719
	c-1.5905914,0.1133728-3.1795654,0.2497177-4.7692566,0.3756256
	C194.6537781,123.2321854,194.645401,123.1847763,194.6369934,123.1373672z M244.7342834,101.9454803
	c0.0653992,0.0670013,0.1308136,0.1339874,0.1961517,0.2009888c0.234024-0.2411194,0.4963684-0.4609756,0.6965637-0.7274628
	c0.5378723-0.7158508,1.0722656-1.4363022,1.5671692-2.1820374c2.9111328-4.3865204,5.0085907-9.1637955,6.7499542-14.1112289
	c1.5220947-4.3246384,2.3955994-8.7707901,2.4007874-13.3611679c0.0022583-2.0389175-0.0841064-4.0825119-0.2362976-6.1160431
	c-0.2735748-3.6555405-1.0506744-7.2195816-2.1628571-10.7102127c-0.1026459-0.3223457-0.2710114-0.6237297-0.4762573-1.086956
	c-0.4350586,0.3916168-0.7659454,0.64888-1.0490417,0.9509087c-1.6294098,1.7384109-2.8882751,3.729393-4.0263214,5.8148117
	c-0.4382629,0.8031197-0.4512329,1.4839325-0.1084747,2.3212624c1.6575165,4.049427,2.463089,8.3029823,2.708313,12.6482353
	c0.22435,3.9754868,0.1057434,7.9469833-0.5976563,11.8892059c-0.8839874,4.9542313-2.4589844,9.6334229-5.2673035,13.8500214
	C244.9932709,101.5295944,244.8656616,101.7387924,244.7342834,101.9454803z"/>
<path class="st0" d="M40.8661118,114.0938263c0,2.7390442,0,5.4953613,0,8.2390366
	c-0.6269646,0.1979065-4.190773,0.2428284-5.3365784,0.069603c-0.0124054-0.2696915-0.0366211-0.5519943-0.0367279-0.8343124
	c-0.0021706-6.2151184-0.014534-12.430275,0.0067444-18.6453247c0.0058746-1.7135773,0.1890907-3.4132156,0.6633301-5.0757904
	c0.9570961-3.3554459,3.1610069-5.3786316,6.5195122-6.1996613c1.5862732-0.3877792,3.1985893-0.5485229,4.8276329-0.5497894
	c1.4809151-0.0011597,2.9623833-0.0061111,4.4426193,0.0302963c1.5122375,0.0371857,3.0007935,0.264534,4.4543419,0.697258
	c3.0976601,0.9221649,5.037365,2.9742737,5.9087677,6.0634079c0.5979156,2.1197281,0.7364655,4.2914429,0.5899773,6.4718628
	c-0.0832024,1.238327-0.2467384,2.487854-0.5386734,3.6924515c-0.8909378,3.6760559-3.2910271,5.8407135-6.9629402,6.5778503
	c-1.2734795,0.2556686-2.5797958,0.4491501-3.8748131,0.4734268c-2.172802,0.0406952-4.3559875,0.0142746-6.5204468-0.1611252
	C43.6414261,114.8322067,42.3000832,114.399437,40.8661118,114.0938263z M48.8299789,110.5907211
	c1.6602631-0.1096725,2.9616394-0.1878204,4.2614441-0.2867432c0.3445625-0.0262222,0.686718-0.1050491,1.0257874-0.1789017
	c2.0228882-0.4405975,3.0612488-1.5096512,3.3108368-3.512558c0.29179-2.3415146,0.2833633-4.6917496,0-7.0343857
	c-0.2182655-1.8044739-1.1969795-3.0074005-2.9963455-3.401886c-0.984993-0.2159424-2.0003738-0.3082428-3.0068359-0.4080429
	c-2.2614975-0.2242355-4.5211411-0.1363525-6.7574005,0.2423325c-2.3713417,0.4015656-3.3761444,1.453064-3.6545029,3.8591385
	c-0.2572517,2.2235336-0.2625923,4.460968,0.0216408,6.6865005c0.2744637,2.1492081,1.192234,3.200592,3.3062401,3.562027
	C45.9334145,110.3904877,47.5600739,110.4633484,48.8299789,110.5907211z"/>
<path class="st0" d="M156.8694458,104.726799c-6.9586182,0-13.8357544,0-20.7711182,0
	c0.0435638,1.231041,0.201355,2.3602905,0.7422485,3.4092941c0.4799194,0.9307327,1.2687683,1.4924393,2.2365417,1.8212814
	c1.2505493,0.4249268,2.5463104,0.5404053,3.8587952,0.5393372c3.9217834-0.0031967,7.8435364-0.0011368,11.7653198-0.0011292
	c0.3120117,0,0.6240387,0,0.9868774,0c0,1.5638428,0,3.0338669,0,4.5786285
	c-0.2050018,0.0245743-0.4244385,0.0735931-0.6439362,0.0738144c-4.2994385,0.0043182-8.5991211,0.0305481-12.8981628-0.0097733
	c-1.9213562-0.0180283-3.8156281-0.3162155-5.599823-1.088562c-2.4539948-1.0622635-4.1539612-2.8679657-4.9908447-5.3950806
	c-1.2029266-3.6323929-1.2247314-7.3136902-0.0442505-10.9541168c1.1226807-3.4621124,3.6359558-5.4317474,7.1218262-6.1994858
	c1.0128784-0.2230682,2.065155-0.3663559,3.0999756-0.3698425c2.0865326-0.0070343,4.1908722-0.0400238,6.2562103,0.2048721
	c3.2435608,0.3846283,5.9044037,1.8495712,7.4953461,4.8601303c0.6431122,1.2169571,1.006012,2.5265121,1.2080994,3.8867188
	C156.9149933,101.5800858,156.9475555,103.080368,156.8694458,104.726799z M136.4035034,100.0050659
	c4.9621277,0,9.8727417,0,14.7688599,0c0.0295715-0.1118774,0.0566559-0.1669235,0.0559998-0.2216339
	c-0.0014038-0.1154404-0.0084839-0.2322769-0.028656-0.345787c-0.3132629-1.761673-1.3826294-2.8272781-3.0814667-3.267807
	c-1.9801788-0.5134659-3.9977264-0.591774-6.029953-0.4326019c-1.0684357,0.0836868-2.1291046,0.193512-3.1375275,0.5984192
	C137.3140411,96.9928513,136.6065063,98.2825394,136.4035034,100.0050659z"/>
<path class="st0" d="M164.802536,65.5664902c0.1951447,1.0557175,0.2993164,1.9558411,0.5343933,2.8203583
	c0.4773865,1.7555466,1.7046509,2.8049545,3.4412079,3.1627731c1.2221069,0.2518311,2.4847717,0.4074402,3.7314148,0.4216461
	c4.3566895,0.0496368,8.7143097,0.0192108,13.0715637,0.0191956c0.3470764,0,0.6941223,0,1.09375,0
	c0,1.7403259,0,3.3736572,0,5.0884018c-0.2318268,0.0275803-0.4758301,0.0816879-0.7198792,0.0819244
	c-4.7768707,0.0046997-9.553894,0.0262146-14.3304749-0.0096664c-1.6762543-0.0125885-3.3386688-0.2497101-4.9516907-0.7498398
	c-3.3725281-1.0456772-5.7250671-3.1895676-6.837204-6.5553589c-1.3023834-3.9416122-1.3069763-7.9447174-0.0869751-11.8955154
	c1.2130127-3.9281731,4.0219879-6.2058945,7.9803314-7.0676575c1.2196045-0.2655296,2.4851074-0.3803635,3.7350311-0.4314957
	c1.6104126-0.0658875,3.2271881-0.0276718,4.8395996,0.0202332c1.5205536,0.0451775,3.0127716,0.329052,4.4496918,0.8252449
	c3.1235657,1.0786285,5.258255,3.1847992,6.3583832,6.3056564c0.8940125,2.5361176,1.0088806,5.1637344,0.8738403,7.9598961
	c-2.5662537,0.0014114-5.098999,0.0033646-7.6317291,0.0040512c-2.582077,0.0007019-5.1641693,0.0001526-7.7462616,0.0001526
	C170.0634155,65.5664902,167.5193024,65.5664902,164.802536,65.5664902z M165.2415619,60.3355904
	c5.5179138,0,10.9758759,0,16.4755707,0c-0.0159607-0.2822571-0.0044708-0.5064125-0.0445404-0.7209473
	c-0.3585968-1.9207878-1.5608978-3.0536804-3.3991699-3.5421333c-2.1677704-0.5760117-4.3813477-0.6490936-6.6057892-0.4918671
	c-1.1862946,0.0838623-2.3637695,0.2134514-3.4936676,0.6422844
	C166.2960052,56.9356728,165.4869843,58.381897,165.2415619,60.3355904z"/>
<path class="st0" d="M94.0397339,77.1646423c-0.3685303,0-0.6858215,0-1.0031204,0
	c-4.518364,0.0000076-9.0367203,0.0020676-13.5550766-0.0010529c-1.683136-0.0011673-3.3483124-0.1946335-4.9696426-0.63974
	c-3.9781189-1.0920944-6.5357437-3.6404419-7.5640793-7.6389542c-0.8752518-3.4033127-0.8811417-6.8363304,0.00914-10.2396278
	c1.1218872-4.2886238,3.9434357-6.8431053,8.2367783-7.7707596c1.1268311-0.2434654,2.2952957-0.4057388,3.4450455-0.4081535
	c2.3180847-0.0048752,4.6612473-0.0623322,6.9495697,0.2393456c4.7744446,0.6294441,8.0084305,3.1852684,9.2565689,7.9567413
	c0.3318481,1.2686462,0.4483337,2.6022644,0.568428,3.9147644c0.0870667,0.9514923,0.0169983,1.9173698,0.0169983,2.9825325
	c-7.6915512,0-15.3539734,0-23.0941544,0c0.0690613,1.6678467,0.2542953,3.183754,1.2560577,4.463974
	c0.8733139,1.116066,2.1428223,1.5202408,3.4621353,1.7249908c1.0146103,0.1574631,2.0518951,0.2255783,3.0796814,0.2314911
	c4.260025,0.024498,8.5202789,0.0102844,12.7804413,0.0102921c0.3517227,0,0.7034302-0.0000076,1.0360641-0.0000076
	C94.1685791,72.7109985,94.2214813,75.6856461,94.0397339,77.1646423z M89.1038971,60.3434029
	c-0.0066147-1.6845055-0.7201614-3.0060081-2.0996933-3.7125549c-0.6770859-0.3467674-1.427124-0.6018753-2.1735992-0.7530289
	c-2.3853683-0.4830399-4.7992401-0.4729538-7.2016525-0.1562538c-0.8168259,0.1076813-1.636879,0.3593864-2.3989105,0.67976
	c-1.6956787,0.712883-2.3346481,2.1633492-2.5788956,3.9420776C78.1588364,60.3434029,83.5907822,60.3434029,89.1038971,60.3434029z
	"/>
<path class="st0" d="M166.0143433,104.7148819c-0.0149384,1.2967911,0.18396,2.453804,0.7636566,3.518158
	c0.5821533,1.0688553,1.563736,1.6506729,2.7072449,1.8719025c1.1039886,0.2135925,2.2378998,0.3608551,3.3605347,0.3735809
	c3.8924866,0.0441437,7.7857513,0.0170517,11.6787415,0.0170593c0.315155,0,0.6303101,0,0.9232788,0
	c0.197113,0.6873245,0.2364044,3.539093,0.070755,4.6072006c-0.2367554,0.0155716-0.4889832,0.0464554-0.7412109,0.0466309
	c-4.1835022,0.0029221-8.3670807,0.0156403-12.5504608-0.0052261c-1.5402069-0.0076752-3.0593872-0.2193756-4.5465393-0.6542053
	c-3.3430634-0.9775009-5.5025482-3.159668-6.4523468-6.4762726c-0.905365-3.1614532-0.9073486-6.374176-0.0743256-9.5524979
	c1.0108795-3.8570328,3.5677185-6.1508789,7.434494-6.9716415c1.0713043-0.2274017,2.1797943-0.3334427,3.2758942-0.376976
	c1.4497375-0.0575714,2.9051208-0.0301056,4.3561401,0.0187225c1.4259644,0.0479736,2.8206787,0.3177948,4.1682587,0.8015289
	c3.3720093,1.2104263,5.2236176,3.7110825,6.008316,7.105896c0.3651886,1.5800323,0.4903564,3.7929611,0.3352966,5.6575012
	c-0.957962,0.0382004-1.9343262,0.0133133-2.9089966,0.017662c-0.9877625,0.0044174-1.9755402,0.0009766-2.9633179,0.0009766
	c-0.9877625,0-1.9755402,0-2.9633026,0c-0.9877777,0-1.9755402,0-2.9633179,0s-1.9755402,0-2.9633179,0
	c-0.9877625,0-1.9755402,0-2.9633026,0C168.0250854,104.7148819,167.0436249,104.7148819,166.0143433,104.7148819z
	 M181.1000214,100.0022202c-0.1327209-2.0457458-1.0854034-3.2735596-3.0278931-3.8134537
	c-1.9733887-0.5485001-3.9997711-0.6064606-6.0310516-0.4596481c-1.0668335,0.0771179-2.1329346,0.1784668-3.1439362,0.5845718
	c-1.5936279,0.6401291-2.4956818,1.9256668-2.5437317,3.68853
	C171.2684021,100.0022202,176.1823883,100.0022202,181.1000214,100.0022202z"/>
<path class="st0" d="M130.3591919,77.1226959c-2.0410767,0-3.9342346,0-5.9686508,0
	c0-0.3813705,0.0000153-0.7225647,0.0000153-1.0637589c-0.0000381-4.1319962,0.0291443-8.2643204-0.017868-12.3957787
	c-0.0142136-1.2488861-0.1489182-2.5131416-0.3888245-3.7389603c-0.3952484-2.0195313-1.6955414-3.2819786-3.6597061-3.8460503
	c-1.7199936-0.4939575-3.4963837-0.5767059-5.2677383-0.566433c-1.6404266,0.0095177-3.2808456,0.101593-4.8857346,0.5269012
	c-2.1043472,0.5576706-3.4446869,1.858017-3.8571014,4.0006752c-0.205986,1.0701599-0.3375854,2.1711311-0.3476563,3.2595978
	c-0.0391006,4.2284775-0.0159607,8.4575272-0.0159836,12.6863632c0,0.348999,0.0000076,0.6979904,0.0000076,1.1119232
	c-1.9107819,0-3.735199,0-5.6552429,0c-0.0195007-0.3042221-0.0567017-0.6168823-0.0569839-0.9295731
	c-0.0040207-4.4548111-0.0470276-8.9102859,0.0212097-13.3640442c0.0230408-1.5041695,0.1931305-3.0361786,0.5348892-4.4996758
	c0.9732819-4.1676598,3.6854782-6.6135559,7.853241-7.4316025c1.164238-0.228508,2.360466-0.365181,3.5460663-0.3981781
	c2.1605606-0.0601387,4.3247986-0.0421906,6.4862671,0.0025101c1.5519791,0.0320892,3.0808105,0.3118019,4.5548096,0.7976723
	c3.7851105,1.2476768,5.9748993,3.9231873,6.7142792,7.782074c0.2534637,1.3228989,0.3774872,2.6881294,0.3927155,4.0359154
	c0.0484772,4.2928581,0.0179749,8.5865898,0.0179901,12.8799934
	C130.3591919,76.3224182,130.3591919,76.6725616,130.3591919,77.1226959z"/>
<path class="st0" d="M135.9277039,39.8847313c1.9716797,0,3.8621368,0,5.8852386,0
	c0.0939178,1.1460381,0.0320129,2.2947502,0.043396,3.4388275c0.0112457,1.129467,0.0024567,2.25914,0.0024567,3.3887177
	c0,1.1541672,0,2.3083305,0,3.5791206c3.6967468,0,7.2909088,0,10.9375916,0c0,1.7508888,0,3.384655,0,5.1603127
	c-1.1799469,0.0335693-2.361618,0.0113678-3.5418243,0.0152016c-1.2263947,0.0039787-2.4528046,0.0008926-3.6791992,0.0008926
	c-1.1915131,0-2.3830414,0-3.6521912,0c-0.0243835,0.3429298-0.0612183,0.6227264-0.0615845,0.9025726
	c-0.0040894,3.1950912-0.0129395,6.3902435,0.003067,9.5852585c0.0055084,1.0989151,0.1374359,2.1878815,0.5268707,3.228775
	c0.4593353,1.227684,1.2812347,2.1129608,2.5761108,2.3963165c0.9990997,0.2186432,2.0308685,0.3691559,3.0516205,0.3917694
	c2.4838715,0.0549927,4.9697723,0.0179596,7.4548492,0.0179901c0.3465576,0,0.6931152,0,1.1050873,0
	c0,1.7573929,0,3.4159088,0,5.1259003c-0.3429871,0.0182419-0.6256561,0.0460434-0.9083405,0.0463409
	c-2.9369202,0.0031204-5.8759613,0.0685272-8.809845-0.0259705c-1.5012512-0.0483475-3.0302429-0.242691-4.4820099-0.619957
	c-3.5007629-0.9097214-5.5568695-3.2615128-6.157074-6.8137589c-0.2244873-1.3286285-0.3229523-2.6931915-0.327713-4.0419083
	c-0.029007-8.2296906-0.0150452-16.459549-0.012558-24.6893501
	C135.8817444,40.625164,135.9103241,40.2785606,135.9277039,39.8847313z"/>
<path class="st0" d="M115.2349701,108.7873993c2.9578476-5.988266,5.8340073-11.8110809,8.7209167-17.6557083
	c1.9301224,0,3.8416367,0,5.7458191,0c0.0206299,0.0381241,0.0357819,0.061554,0.0463257,0.0868835
	c0.0108948,0.0262146,0.0319824,0.0604477,0.0234985,0.080574c-0.0899048,0.2129288-0.1748962,0.428833-0.2798004,0.6344299
	c-3.9419556,7.7253952-7.8858871,15.449791-11.8502426,23.214859c-1.5056458,0-2.9836655-0.006279-4.4616013,0.0043488
	c-0.3757172,0.0027008-0.4833679-0.2631989-0.6149597-0.5199432c-0.6087036-1.1879501-1.2156677-2.3767929-1.8224335-3.5657349
	c-3.2451248-6.3584824-6.4904251-12.7168732-9.7332535-19.0765152c-0.1273804-0.2498016-0.2302704-0.5120926-0.3785629-0.8448715
	c1.9969254,0,3.8996048,0,5.8971634,0C109.3910217,96.946846,112.27565,102.7914505,115.2349701,108.7873993z"/>
<path class="st0" d="M33.8747749,50.4822807c2.2125244,0,4.3285179,0,6.5440826,0
	c3.1886024,6.4582634,6.3962746,12.9551544,9.6827507,19.6116524c3.2711029-6.6234093,6.4768829-13.1145363,9.6901817-19.6208839
	c2.167942,0,4.290493,0,6.4162712,0c-0.1357346,0.7504234-12.3489189,24.8690071-13.5188599,26.6880608
	c-1.594944,0-3.2376595-0.0070419-4.8802338,0.0048141c-0.4254036,0.0030746-0.5263138-0.3132477-0.6701851-0.592186
	c-0.8869247-1.7195511-1.7714005-3.4403763-2.6509247-5.1637268c-3.3862991-6.6351471-6.7710381-13.2710953-10.1534004-19.9082603
	C34.1779442,51.194622,34.0499954,50.8729248,33.8747749,50.4822807z"/>
<path class="st0" d="M72.8822556,115.1045074c-1.8597412,0-3.5632401,0-5.3317261,0
	c-0.0172195-0.3245621-0.0449905-0.6062241-0.0451965-0.8879089c-0.0027695-3.7757568-0.0143661-7.55159,0.0040359-11.3272629
	c0.0084763-1.7413177,0.0965729-3.4736862,0.5380783-5.1801376c0.9250946-3.5756989,3.2672577-5.5875397,6.8288803-6.2106857
	c1.3644714-0.2387314,2.7625885-0.3502579,4.1487656-0.3852539c2.4091568-0.0608292,4.8209305-0.0177536,7.2316208-0.0157394
	c0.1429749,0.0001221,0.2859344,0.0223923,0.4202271,0.0336304c0.1835175,0.6316681,0.225502,3.269989,0.0652008,4.4970474
	c-0.2573166,0.0171051-0.5339737,0.0506287-0.81073,0.0514221c-1.7136154,0.004921-3.4283676-0.0357742-5.1404648,0.0151367
	c-1.2715225,0.0378036-2.539711,0.1896744-3.8089981,0.2954941c-0.1433411,0.01194-0.2852554,0.0498734-0.4258728,0.0839539
	c-2.3707428,0.5746918-3.3856506,1.7460022-3.5935745,4.1749344c-0.0519485,0.6065674-0.0758209,1.2173157-0.0768204,1.8261948
	c-0.0066223,3.9790649-0.0034256,7.9581451-0.0034256,11.9372177
	C72.8822556,114.3544998,72.8822556,114.6964493,72.8822556,115.1045074z"/>
<path class="st0" d="M96.6101608,115.1077805c-1.7659149,0-3.4647141,0-5.2227325,0c0-7.9864197,0-15.9292221,0-23.9876404
	c1.7307587-0.0459824,3.4496231-0.0328674,5.2227325-0.0021667
	C96.6101608,99.1230011,96.6101608,107.0660782,96.6101608,115.1077805z"/>
<path class="st0" d="M93.9785461,83.178215c1.5676117-0.0131149,2.8292389,1.2074356,2.8574524,2.7643661
	c0.0291519,1.6095276-1.2000885,2.9453354-2.7965469,2.9208755c-1.5999985-0.0245132-2.8477097-1.1664352-2.8726273-2.8621216
	C91.1441193,84.4557495,92.430687,83.1911545,93.9785461,83.178215z"/>
</svg>
